<?xml version="1.0" encoding="iso-8859-1"?>
<!-- Generator: Adobe Illustrator 18.0.0, SVG Export Plug-In . SVG Version: 6.00 Build 0)  -->
<!DOCTYPE svg PUBLIC "-//W3C//DTD SVG 1.1//EN" "http://www.w3.org/Graphics/SVG/1.1/DTD/svg11.dtd">
<svg version="1.1" id="Capa_1" xmlns="http://www.w3.org/2000/svg" xmlns:xlink="http://www.w3.org/1999/xlink" x="0px" y="0px"
	 viewBox="0 0 307.814 307.814" style="enable-background:new 0 0 307.814 307.814;" xml:space="preserve">
<g>
	<path d="M199.313,57.564l-9.004-51.359C189.68,2.617,186.564,0,182.922,0h-76.793c-3.643,0-6.758,2.617-7.387,6.205L89.714,57.7
		c-17.354,3.28-30.524,18.546-30.524,36.839v118.736c0,18.293,13.17,33.56,30.524,36.839l9.028,51.495
		c0.629,3.588,3.745,6.205,7.387,6.205h76.793c3.643,0,6.758-2.617,7.387-6.205l9.004-51.359
		c17.728-2.972,31.282-18.416,31.282-36.975V94.539C230.596,75.98,217.041,60.536,199.313,57.564z M74.189,208.608V99.205h141.406
		v109.403H74.189z M112.428,15h64.194l7.37,42.039h-78.935L112.428,15z M96.689,72.039h96.232h0.174
		c8.683,0,16.227,4.946,19.977,12.166H76.713C80.463,76.985,88.007,72.039,96.689,72.039z M176.622,292.814h-64.194l-7.37-42.039
		h78.935L176.622,292.814z M193.096,235.775h-0.174H96.689c-8.683,0-16.227-4.947-19.977-12.167h136.36
		C209.323,230.829,201.778,235.775,193.096,235.775z"/>
	<path d="M185.511,122.288c-2.929-2.929-7.678-2.929-10.606,0l-30.012,30.012l-18.418-18.419c-2.928-2.929-7.677-2.929-10.606,0
		c-2.929,2.929-2.929,7.678,0,10.607l23.722,23.722c1.406,1.407,3.314,2.197,5.303,2.197c1.989,0,3.897-0.79,5.303-2.197
		l35.315-35.315C188.44,129.966,188.44,125.217,185.511,122.288z"/>
	<path d="M243.625,98.934c-2.761,0-5,2.239-5,5v27.176c0,2.761,2.239,5,5,5c2.761,0,5-2.239,5-5v-27.176
		C248.625,101.173,246.386,98.934,243.625,98.934z"/>
	<path d="M243.625,149.839c-2.761,0-5,2.239-5,5v49.041c0,2.761,2.239,5,5,5c2.761,0,5-2.239,5-5v-49.041
		C248.625,152.078,246.386,149.839,243.625,149.839z"/>
</g>
<g>
</g>
<g>
</g>
<g>
</g>
<g>
</g>
<g>
</g>
<g>
</g>
<g>
</g>
<g>
</g>
<g>
</g>
<g>
</g>
<g>
</g>
<g>
</g>
<g>
</g>
<g>
</g>
<g>
</g>
</svg>
