<?xml version="1.0" encoding="UTF-8"?>
<svg width="16px" height="16px" viewBox="0 0 16 16" version="1.1" xmlns="http://www.w3.org/2000/svg" xmlns:xlink="http://www.w3.org/1999/xlink">
    <!-- Generator: Sketch 52.3 (67297) - http://www.bohemiancoding.com/sketch -->
    <title>Group</title>
    <desc>Created with Sketch.</desc>
    <defs>
        <polygon id="path-1" points="0.141877841 0.134013776 3.85437784 0.134013776 3.85437784 4.18531469 0.141877841 4.18531469"></polygon>
        <polygon id="path-3" points="0.0807545455 0.134013776 4.04075455 0.134013776 4.04075455 4.18531469 0.0807545455 4.18531469"></polygon>
        <polygon id="path-5" points="5.35714286e-05 0.134091821 14.8348214 0.134091821 14.8348214 11.0778122 5.35714286e-05 11.0778122"></polygon>
    </defs>
    <g id="Mob-Adaptiv" stroke="none" stroke-width="1" fill="none" fill-rule="evenodd">
        <g id="Home" transform="translate(-1343.000000, -17.000000)">
            <g id="Group-13">
                <g id="Group-11" transform="translate(55.000000, 11.000000)">
                    <g id="Top" transform="translate(1129.000000, 2.000000)">
                        <g id="Group" transform="translate(159.330827, 4.076923)">
                            <g id="Group-3" transform="translate(10.909091, 11.160839)">
                                <mask id="mask-2" fill="white">
                                    <use xlink:href="#path-1"></use>
                                </mask>
                                <g id="Clip-2"></g>
                                <path d="M3.85437784,2.15970608 C3.85437784,3.27858021 3.02341193,4.18539839 1.99812784,4.18539839 C0.973099432,4.18539839 0.141877841,3.27858021 0.141877841,2.15970608 C0.141877841,1.04083196 0.973099432,0.134013776 1.99812784,0.134013776 C3.02341193,0.134013776 3.85437784,1.04083196 3.85437784,2.15970608" id="Fill-1" fill="#000000" mask="url(#mask-2)"></path>
                            </g>
                            <g id="Group-6" transform="translate(5.454545, 11.160839)">
                                <mask id="mask-4" fill="white">
                                    <use xlink:href="#path-3"></use>
                                </mask>
                                <g id="Clip-5"></g>
                                <path d="M4.04075455,2.15970608 C4.04075455,3.27858021 3.15439091,4.18539839 2.06075455,4.18539839 C0.967390909,4.18539839 0.0807545455,3.27858021 0.0807545455,2.15970608 C0.0807545455,1.04083196 0.967390909,0.134013776 2.06075455,0.134013776 C3.15439091,0.134013776 4.04075455,1.04083196 4.04075455,2.15970608" id="Fill-4" fill="#000000" mask="url(#mask-4)"></path>
                            </g>
                            <g id="Group-9">
                                <mask id="mask-6" fill="white">
                                    <use xlink:href="#path-5"></use>
                                </mask>
                                <g id="Clip-8"></g>
                                <path d="M4.79076786,8.31235038 L4.83808929,8.3903145 L14.834875,8.3903145 L14.7279107,3.0636827 C10.2280233,2.81316782 7.15824158,2.5120649 5.51856567,2.16037392 C3.87888976,1.80868294 2.39575478,1.1332394 1.06916071,0.134043296 L5.35714286e-05,0.400447674 L4.376125,7.62749541 L3.59308929,11.0778122 L14.7013036,11.0778122 L14.7013036,10.5045656 L4.30344643,10.5045656 L4.79076786,8.31235038 Z" id="Fill-7" fill="#000000" mask="url(#mask-6)"></path>
                            </g>
                        </g>
                    </g>
                </g>
            </g>
        </g>
    </g>
</svg>