<?xml version="1.0" standalone="no"?>
<!DOCTYPE svg PUBLIC "-//W3C//DTD SVG 1.1//EN" "http://www.w3.org/Graphics/SVG/1.1/DTD/svg11.dtd" >
<svg xmlns="http://www.w3.org/2000/svg" xmlns:xlink="http://www.w3.org/1999/xlink" version="1.1">
<metadata>
Created by FontForge 20170731 at Tue Feb 21 01:21:05 2017
 By Aleksey,,,
</metadata>
<defs>
<font id="Vision-Regular" horiz-adv-x="548" >
  <font-face 
    font-family="Vision"
    font-weight="400"
    font-stretch="normal"
    units-per-em="1000"
    panose-1="0 0 0 0 0 0 0 0 0 0"
    ascent="800"
    descent="-200"
    x-height="514"
    cap-height="612"
    bbox="-9298 -458 1006 893"
    underline-thickness="50"
    underline-position="-225"
    unicode-range="U+000D-FB04"
  />
<missing-glyph horiz-adv-x="321" 
 />
    <glyph glyph-name="f_f" unicode="ff" horiz-adv-x="669" 
d="M553 711q56 0 96 -29l-26 -56q-24 14 -57 14q-49 0 -71.5 -37t-22.5 -89h153v-71h-155v-443h-78v443h-72h-1h-153v-443h-79v443h-72v71h72q0 79 43 138t119 59q56 0 96 -29l-26 -56q-25 14 -57 14q-49 0 -72 -37t-23 -89h152h1h72q0 79 42.5 138t118.5 59z" />
    <glyph glyph-name="f_i" unicode="fi" horiz-adv-x="476" 
d="M400 514v-514h-80v443h-154v-443h-78v443h-73v71h73q0 74 42 133.5t114 59.5q64 0 101 -25l-27 -56q-27 15 -52 15q-49 0 -73.5 -37.5t-25.5 -89.5h233z" />
    <glyph glyph-name="f_l" unicode="fl" horiz-adv-x="588" 
d="M314 629q-23 11 -52 11q-49 0 -72 -37t-23 -89h147v115zM314 700h82l1 -503q0 -133 71 -133q29 0 54 17l29 -64q-39 -28 -98 -28q-36 0 -62.5 15t-40.5 37t-22.5 55t-11 60t-2.5 61v226h-148v-443h-79v443h-72v71h72q0 50 17.5 94t55.5 73.5t89 29.5q33 0 65 -12v1z" />
    <glyph glyph-name="f_f_l" unicode="ffl" horiz-adv-x="891" 
d="M617 628q-23 12 -52 12q-49 0 -72 -37t-23 -89h147v114zM854 17q-43 -28 -98 -28q-36 0 -62.5 15t-40.5 37t-22.5 54.5t-11 60t-2.5 61.5v226h-148v-443h-78v443h-72h-1h-153v-443h-78v443h-72v71h72q0 50 17 93.5t54.5 73.5t88.5 30q57 0 97 -29l-26 -56q-25 14 -57 14
q-49 0 -71.5 -37t-23.5 -89h152h1h72q0 50 17 93.5t54.5 73.5t88.5 30q34 0 66 -13v2h81l2 -503q0 -133 71 -133q29 0 54 17z" />
    <glyph glyph-name="f_f_j" unicode="ffj" horiz-adv-x="790" 
d="M554 -191q-60 0 -102 28l29 62q25 -19 62 -19q81 0 81 180q0 255 1 383h-155v-443h-78v443h-72h-154v-443h-79v443h-72v71h72q0 79 43 138t119 59q56 0 96 -29l-26 -56q-25 14 -57 14q-49 0 -72 -37t-23 -89h153h72q0 79 42.5 138t118.5 59q57 0 97 -29l-27 -56
q-24 14 -56 14q-49 0 -72 -37t-23 -89h153h81v-411q0 -29 -0.5 -50.5t-4 -54t-9.5 -56.5t-17 -50.5t-27 -43.5t-40 -28t-54 -11z" />
    <glyph glyph-name="f_f_t" unicode="fft" horiz-adv-x="958" 
d="M894 83l27 -63q-41 -29 -90 -29q-70 0 -106 56t-36 130v266h-70h-1h-153v-443h-78v443h-67h-6h-149v-443h-78v443h-72v71h72q0 79 42.5 138t118.5 59q58 0 96 -28l-26 -57q-26 15 -57 15q-49 0 -72 -37.5t-23 -89.5h148h6h67q0 79 42.5 138t117.5 59q59 0 97 -28l-26 -57
q-27 15 -58 15q-48 0 -70.5 -37.5t-23.5 -89.5h152h1h70v141h79v-141h151v-71h-151v-244q0 -134 72 -134q27 0 54 18z" />
    <glyph glyph-name="f_j" unicode="fj" horiz-adv-x="479" 
d="M247 711q62 0 98 -29l-24 -53q-25 19 -63 19q-26 0 -44 -12.5t-27.5 -33.5t-14 -42.5t-4.5 -45.5h146h7h74v-411q0 -29 -0.5 -50t-4 -54t-9 -56.5t-17 -50.5t-27 -44t-40 -28t-54.5 -11q-59 0 -102 28l29 62q25 -19 62 -19q19 0 33.5 9t23 26t14 33.5t7.5 40.5t2.5 38
t0.5 33q0 72 0.5 205t0.5 178h-148v-443h-78v443h-73v71h73q1 81 41.5 139t117.5 58z" />
    <glyph glyph-name="f_t" unicode="ft" horiz-adv-x="660" 
d="M595 83l28 -63q-43 -29 -91 -29q-70 0 -106 56t-36 130v266h-69h-2h-152l-1 -443h-78v443h-73v71h73q0 79 42.5 138t118.5 59q56 0 96 -29l-26 -56q-24 14 -57 14q-49 0 -72 -37t-22 -89h151h2h69v141h79v-141h151v-71h-151l1 -244q0 -134 72 -134q26 0 53 18z" />
    <glyph glyph-name="t_f" unicode="tf" horiz-adv-x="683" 
d="M549 711q57 0 97 -29l-26 -56q-25 14 -57 14q-49 0 -72 -37t-23 -89h153v-71h-154v-443h-79v443h-72h-150v-245q0 -133 72 -133q28 0 53 18l28 -63q-42 -29 -90 -29q-70 0 -106 55.5t-36 130.5v266h-72v71h72v140h78l1 -140h150h72q0 79 42.5 138t118.5 59z" />
    <glyph glyph-name=".notdef" horiz-adv-x="321" 
 />
    <glyph glyph-name=".null" horiz-adv-x="0" 
 />
    <glyph glyph-name="nonmarkingreturn" horiz-adv-x="333" 
 />
    <glyph glyph-name="NULL" horiz-adv-x="0" 
 />
    <glyph glyph-name="NULL" horiz-adv-x="0" 
 />
    <glyph glyph-name="CR" unicode="&#xd;" horiz-adv-x="250" 
 />
    <glyph glyph-name="space" unicode=" " horiz-adv-x="250" 
 />
    <glyph glyph-name="exclam" unicode="!" horiz-adv-x="208" 
d="M45 726h118l-26 -556h-69zM158 44q0 -23 -16.5 -38.5t-38.5 -15.5q-23 0 -39.5 16t-16.5 38t16.5 37.5t39.5 15.5q22 0 38.5 -15.5t16.5 -37.5z" />
    <glyph glyph-name="quotedbl" unicode="&#x22;" horiz-adv-x="313" 
d="M45 639h75l-15 -211h-45zM192 639h76l-17 -211h-44z" />
    <glyph glyph-name="numbersign" unicode="#" horiz-adv-x="681" 
d="M620 380h-110l-24 -151h112l-17 -70h-107l-26 -159h-81l26 159h-162l-26 -159h-81l27 159h-106l18 70h100l25 151h-104l17 71h99l26 160h81l-27 -160h162l26 160h81l-26 -160h113zM408 225l26 159h-169l-26 -159h169z" />
    <glyph glyph-name="dollar" unicode="$" horiz-adv-x="542" 
d="M475 191q0 -76 -45 -127t-117 -64v-81h-58v77q-111 5 -188 62l38 76q27 -21 75 -39t80 -18q51 0 88 26t37 75q0 36 -30 61.5t-73 43t-86 37t-73 55t-30 85.5q0 72 46 113t118 52v72h58v-70q96 -4 147 -51l-28 -66q-22 19 -57.5 30t-67.5 11q-50 0 -89.5 -23.5
t-39.5 -70.5q0 -30 30.5 -51.5t73.5 -37t86.5 -34t74 -55t30.5 -88.5z" />
    <glyph glyph-name="percent" unicode="%" horiz-adv-x="758" 
d="M576 319q61 0 94.5 -50t33.5 -114t-33.5 -113.5t-94.5 -49.5q-62 0 -95.5 49.5t-33.5 113.5t34 114t95 50zM576 54q33 0 50 32t17 69t-17 69.5t-50 32.5t-50 -32.5t-17 -69.5t16.5 -69t50.5 -32zM183 623q61 0 94.5 -50t33.5 -114t-33.5 -113.5t-94.5 -49.5
q-62 0 -95.5 49.5t-33.5 113.5t34 114t95 50zM183 358q34 0 51 32t17 69t-17.5 69.5t-50.5 32.5t-50 -32.5t-17 -69.5t17 -69t50 -32zM296 0h-77l245 612h77z" />
    <glyph glyph-name="ampersand" unicode="&#x26;" horiz-adv-x="660" 
d="M613 0h-107q-34 35 -65 71q-77 -77 -178 -77q-83 0 -146 53.5t-63 135.5q0 66 42 120.5t106 81.5q-31 60 -31 100q0 64 51 100.5t118 36.5q69 0 118 -34l-30 -56q-35 23 -82 23q-36 0 -62.5 -21.5t-26.5 -56.5q0 -67 187 -290q43 72 45 167h73q0 -129 -66 -227
q79 -87 117 -127zM262 65q70 0 128 63q-101 118 -153 197q-45 -18 -76 -54.5t-31 -81.5q0 -52 39.5 -88t92.5 -36z" />
    <glyph glyph-name="quotesingle" unicode="'" horiz-adv-x="179" 
d="M45 639h89l-19 -211h-52z" />
    <glyph glyph-name="parenleft" unicode="(" horiz-adv-x="389" 
d="M344 -143l-49 -68q-118 85 -184 213.5t-66 274.5q0 145 66 274t184 215l49 -69q-101 -74 -157.5 -184.5t-56.5 -235.5t56.5 -235.5t157.5 -184.5z" />
    <glyph glyph-name="parenright" unicode=")" horiz-adv-x="389" 
d="M45 -138q101 73 157.5 184t56.5 236t-56.5 235.5t-157.5 184.5l50 69q118 -85 183.5 -214t65.5 -275q0 -145 -65.5 -274t-183.5 -215z" />
    <glyph glyph-name="asterisk" unicode="*" horiz-adv-x="414" 
d="M268 431l101 -69l-32 -48l-100 67v-130h-59v130l-100 -67l-33 48l102 69l-102 71l34 48l99 -69v129h59v-129l98 69l34 -48z" />
    <glyph glyph-name="plus" unicode="+" horiz-adv-x="473" 
d="M428 327v-76h-149v-153h-84v153h-150v76h150v154h84v-154h149z" />
    <glyph glyph-name="comma" unicode="," horiz-adv-x="240" 
d="M54 54q0 26 21 44t47 18q32 0 48 -27t16 -62q0 -40 -26 -83.5t-63 -52.5l-23 44q20 6 33 23t15 38q-28 -5 -48 12.5t-20 45.5z" />
    <glyph glyph-name="hyphen" unicode="-" horiz-adv-x="473" 
d="M428 338v-76h-383v76h383z" />
    <glyph glyph-name="period" unicode="." horiz-adv-x="213" 
d="M168 52q0 -26 -18 -44t-43 -18t-43.5 18t-18.5 44t18.5 44t43.5 18t43 -18t18 -44z" />
    <glyph glyph-name="slash" unicode="/" horiz-adv-x="321" 
d="M316 650l-234 -675h-77l233 675h78z" />
    <glyph glyph-name="zero" unicode="0" horiz-adv-x="557" 
d="M278 622q79 0 137 -49.5t84 -119.5t26 -147q0 -45 -9 -89.5t-29 -85.5t-48.5 -72.5t-70 -50t-90.5 -18.5t-90.5 18.5t-69.5 50t-48 72.5t-29 85.5t-9 89.5q0 56 15.5 111t45 101.5t77.5 75t108 28.5zM278 546q-44 0 -77 -23t-51 -60t-26.5 -76.5t-8.5 -80.5t8.5 -81
t26 -77t51 -60t77.5 -23q59 0 98 40.5t52.5 92t13.5 108.5q0 41 -8.5 80.5t-27 76.5t-51.5 60t-77 23z" />
    <glyph glyph-name="one" unicode="1" horiz-adv-x="344" 
d="M268 612v-612h-85v525l-105 -46l-21 70l138 63h73z" />
    <glyph glyph-name="two" unicode="2" horiz-adv-x="538" 
d="M254 621q80 0 138.5 -43t58.5 -116q0 -39 -19 -76.5t-48 -65.5t-63.5 -58.5t-64.5 -56.5t-52 -59.5t-26 -67.5h287v-78h-395l3 57q0 47 30 94.5t72.5 86.5t85 76t72.5 76t30 74q0 39 -32 60t-77 21q-80 0 -151 -51l-30 62q78 65 181 65z" />
    <glyph glyph-name="three" unicode="3" horiz-adv-x="531" 
d="M429 612v-73l-147 -169q80 0 129.5 -52t49.5 -132q0 -88 -63 -142t-153 -54q-46 0 -97 18.5t-87 48.5l31 63q68 -52 142 -52q60 0 101 30.5t41 88.5q0 26 -8.5 45.5t-26 31t-34 19t-43.5 10.5t-43.5 3.5t-43.5 0.5h-6v66l160 177h-243v72h341z" />
    <glyph glyph-name="four" unicode="4" horiz-adv-x="567" 
d="M433 612v-384h95v-72h-95v-156h-86v156h-281v63l265 393h102zM347 513l-191 -285h191v285z" />
    <glyph glyph-name="five" unicode="5" horiz-adv-x="538" 
d="M121 612h302v-72h-233l-4 -145h61q102 0 162 -49.5t60 -149.5q0 -89 -62 -147.5t-151 -58.5q-44 0 -94 16.5t-87 43.5l33 69q75 -50 142 -50q56 0 96.5 37t40.5 92q0 40 -18 67t-51.5 38.5t-63.5 15.5t-70 4q-12 0 -36 -0.5t-36 -0.5z" />
    <glyph glyph-name="six" unicode="6" horiz-adv-x="547" 
d="M269 378q85 0 138.5 -53.5t53.5 -138.5q0 -86 -56.5 -141t-143.5 -55t-144.5 54.5t-57.5 141.5q0 51 30 113q24 48 52.5 99.5t65.5 115.5t56 98h87l-135 -245q23 11 54 11zM261 311q-52 0 -86 -36t-34 -89q0 -52 34 -87.5t86 -35.5t85.5 35.5t33.5 87.5q0 53 -33.5 89
t-85.5 36z" />
    <glyph glyph-name="seven" unicode="7" horiz-adv-x="528" 
d="M453 612v-71q-33 -78 -234 -541h-90l236 538h-263v74h351z" />
    <glyph glyph-name="eight" unicode="8" horiz-adv-x="538" 
d="M269 624q67 0 115 -43.5t48 -110.5q0 -84 -67 -126q48 -24 75 -68.5t27 -98.5q0 -82 -57.5 -134.5t-140.5 -52.5t-140.5 52.5t-57.5 134.5q0 53 27.5 98t75.5 69q-68 43 -68 126q0 67 47.5 110.5t115.5 43.5zM269 555q-37 0 -63 -26.5t-26 -63.5q0 -38 25.5 -64.5
t63.5 -26.5t64.5 26.5t26.5 64.5t-26.5 64t-64.5 26zM269 300q-46 0 -82 -36.5t-36 -82.5q0 -50 34 -83.5t84 -33.5t84 33.5t34 83.5q0 47 -36 83t-82 36z" />
    <glyph glyph-name="nine" unicode="9" horiz-adv-x="549" 
d="M273 622q87 0 144 -54.5t57 -141.5q0 -53 -29 -113q-23 -48 -50 -97.5t-68.5 -120.5t-55.5 -95h-90l135 245q-25 -12 -54 -12q-81 0 -135.5 56t-54.5 137q0 86 57.5 141t143.5 55zM273 549q-52 0 -85.5 -35.5t-33.5 -87.5q0 -53 33.5 -88.5t85.5 -35.5t85.5 36t33.5 88
t-33.5 87.5t-85.5 35.5z" />
    <glyph glyph-name="colon" unicode=":" horiz-adv-x="254" 
d="M189 52q0 -26 -18.5 -44t-43.5 -18t-43.5 18t-18.5 44t18.5 44t43.5 18t43.5 -18t18.5 -44zM189 396q0 -26 -18.5 -44.5t-43.5 -18.5t-43.5 18.5t-18.5 44.5t18.5 44t43.5 18t43.5 -18t18.5 -44z" />
    <glyph glyph-name="semicolon" unicode=";" horiz-adv-x="263" 
d="M189 396q0 -26 -18.5 -44.5t-43.5 -18.5t-43.5 18.5t-18.5 44.5t18.5 44t43.5 18t43.5 -18t18.5 -44zM66 41q0 26 21 44t47 18q32 0 48 -27t16 -62q0 -40 -26 -83t-63 -53l-23 44q19 7 32.5 24t15.5 37q-28 -4 -48 12.5t-20 45.5z" />
    <glyph glyph-name="less" unicode="&#x3c;" horiz-adv-x="435" 
d="M390 533v-82l-246 -107l246 -107v-82l-345 158v62z" />
    <glyph glyph-name="equal" unicode="=" horiz-adv-x="475" 
d="M428 465v-76h-383v76h383zM430 260v-75h-383v75h383z" />
    <glyph glyph-name="greater" unicode="&#x3e;" horiz-adv-x="436" 
d="M45 540l346 -164v-62l-346 -164v83l245 112l-245 112v83z" />
    <glyph glyph-name="question" unicode="?" horiz-adv-x="436" 
d="M206 44q0 -23 -16.5 -38.5t-39.5 -15.5q-22 0 -38.5 16t-16.5 38t16.5 37.5t38.5 15.5q23 0 39.5 -15.5t16.5 -37.5zM199 709q79 0 131.5 -45.5t52.5 -123.5q0 -85 -55.5 -141.5t-139.5 -56.5v-164h-74v225h43q61 0 100.5 32.5t39.5 93.5q0 49 -34.5 77.5t-84.5 28.5
q-56 0 -109 -38l-24 66q25 21 71 33.5t83 12.5z" />
    <glyph glyph-name="at" unicode="@" horiz-adv-x="828" 
d="M386 459q33 0 67 -12.5t56 -34.5v37h73v-155q0 -5 -0.5 -23.5t-0.5 -32.5t0.5 -34.5t4 -36t9.5 -30t16.5 -22t24.5 -7.5q27 0 47 22.5t30.5 56t15.5 64.5t5 56q0 127 -95 206.5t-225 79.5q-134 0 -227 -93t-93 -226t93 -226.5t226 -93.5q67 0 149 39l18 -39
q-75 -40 -166 -40q-152 0 -256 104t-104 256t104 255.5t256 103.5q96 0 177.5 -38.5t132 -114t50.5 -173.5q0 -53 -14 -105.5t-52 -95t-92 -42.5q-29 0 -55.5 16t-39.5 41q-41 -56 -134 -56q-78 0 -128.5 61t-50.5 140q0 83 48 138t130 55zM402 395q-55 -1 -89.5 -36.5
t-34.5 -90.5q0 -56 35 -97t90 -41q35 0 68.5 19t37.5 51v23v79q0 18 -1 28q-3 29 -38 47t-68 18z" />
    <glyph glyph-name="A" unicode="A" horiz-adv-x="612" 
d="M250 612h112l200 -612h-87l-55 163h-227l-56 -163h-87zM306 520l-92 -281h185z" />
    <glyph glyph-name="B" unicode="B" horiz-adv-x="573" 
d="M76 612h215q68 0 115.5 -43t47.5 -110q0 -69 -53 -119q48 -18 76.5 -62.5t28.5 -95.5q0 -95 -57 -138.5t-154 -43.5h-219v612zM161 544v-180h106q48 0 77.5 23.5t29.5 70.5q0 38 -25.5 62t-64.5 24h-123zM161 292v-223h160q40 0 69 35t29 77t-28.5 76.5t-69.5 34.5h-160z
" />
    <glyph glyph-name="C" unicode="C" horiz-adv-x="609" 
d="M368 622q47 0 97.5 -17t83.5 -47l-36 -72q-27 25 -65.5 39.5t-74.5 14.5q-96 0 -157 -68.5t-61 -165.5t61 -165.5t157 -68.5q36 0 74.5 14.5t65.5 39.5l36 -73q-33 -29 -83 -45.5t-98 -16.5q-130 0 -215.5 92t-85.5 223t85.5 223.5t215.5 92.5z" />
    <glyph glyph-name="D" unicode="D" horiz-adv-x="601" 
d="M76 612h186q126 0 199 -87.5t73 -216.5q0 -123 -75.5 -215.5t-196.5 -92.5h-186v612zM161 532v-452h73q27 0 41 1q53 4 92.5 40t57.5 85t18 102q0 86 -43.5 152t-124.5 71q-14 1 -41 1h-73z" />
    <glyph glyph-name="E" unicode="E" horiz-adv-x="543" 
d="M76 612h391v-80h-306v-174h246v-74h-246v-204h306v-80h-391v612z" />
    <glyph glyph-name="F" unicode="F" horiz-adv-x="534" 
d="M76 612h391v-80h-307v-174h237v-81h-237v-277h-84v612z" />
    <glyph glyph-name="G" unicode="G" horiz-adv-x="631" 
d="M375 622q52 0 106 -17.5t90 -49.5l-37 -72q-27 24 -68.5 41t-77.5 17q-96 0 -163 -69t-67 -165q0 -101 65 -168.5t166 -67.5q25 0 54 11.5t43 28.5v192h84v-235q-21 -35 -83.5 -56.5t-112.5 -21.5q-132 0 -219.5 92t-87.5 225q0 131 88.5 223t219.5 92z" />
    <glyph glyph-name="H" unicode="H" horiz-adv-x="594" 
d="M518 612v-612h-85v285h-273v-285h-84v612h84v-246h273v246h85z" />
    <glyph glyph-name="I" unicode="I" horiz-adv-x="237" 
d="M161 612v-612h-85v612h85z" />
    <glyph glyph-name="J" unicode="J" horiz-adv-x="447" 
d="M377 611v-311q0 -38 -0.5 -59.5t-4 -59t-10 -60t-19 -50.5t-31 -44t-47 -27t-65.5 -11q-87 0 -150 54l37 73q44 -41 102 -41q33 0 54.5 14t31.5 40t13.5 50.5t3.5 56.5v375h85z" />
    <glyph glyph-name="K" unicode="K" horiz-adv-x="569" 
d="M76 612h85v-238l221 238h99l-241 -275l273 -337h-103l-249 301v-301h-85v612z" />
    <glyph glyph-name="L" unicode="L" horiz-adv-x="434" 
d="M76 612h84v-532h198v-80h-282v612z" />
    <glyph glyph-name="M" unicode="M" horiz-adv-x="726" 
d="M76 612h83l204 -253l204 253h83v-612h-85v490l-202 -253l-202 251v-488h-85v612z" />
    <glyph glyph-name="N" unicode="N" horiz-adv-x="594" 
d="M76 612h87l270 -458v458h85v-612h-88l-270 452v-452h-84v612z" />
    <glyph glyph-name="O" unicode="O" horiz-adv-x="675" 
d="M338 622q125 0 197.5 -94t72.5 -222q0 -130 -72 -223t-198 -93t-198.5 93t-72.5 223q0 128 73.5 222t197.5 94zM338 546q-90 0 -134.5 -72t-44.5 -168q0 -44 10 -85t30 -77t56 -57.5t83 -21.5q63 0 105 38t58 90t16 113q0 96 -44.5 168t-134.5 72z" />
    <glyph glyph-name="P" unicode="P" horiz-adv-x="567" 
d="M76 612h252q72 0 122 -58t50 -131q0 -69 -42.5 -127t-109.5 -67q-28 -4 -83 -4q-17 0 -52 0.5t-52 0.5v-226h-85v612zM161 532v-226h160q41 0 70 35.5t29 77.5t-29.5 77.5t-69.5 35.5h-160z" />
    <glyph glyph-name="Q" unicode="Q" horiz-adv-x="675" 
d="M338 621q125 0 197.5 -94t72.5 -222q0 -94 -37.5 -173t-114.5 -116l116 -135h-105l-97 114q-19 -4 -43 -4q-122 0 -191 93.5t-69 220.5q0 128 73.5 222t197.5 94zM338 545q-47 0 -83 -21.5t-56.5 -57t-30.5 -76.5t-10 -85q0 -61 16.5 -113t59 -90t104.5 -38
q63 0 104.5 38t57.5 90t16 113q0 96 -44 168t-134 72z" />
    <glyph glyph-name="R" unicode="R" horiz-adv-x="606" 
d="M76 612h256q70 0 118.5 -49.5t48.5 -120.5q0 -59 -33.5 -108.5t-89.5 -61.5l163 -272h-100l-151 260h-128v-260h-84v612zM160 540v-208h163q40 0 67.5 32t27.5 72t-28 72t-67 32h-163z" />
    <glyph glyph-name="S" unicode="S" horiz-adv-x="541" 
d="M300 622q104 0 162 -52l-29 -66q-23 18 -58 29.5t-66 11.5q-51 0 -90 -23.5t-39 -70.5q0 -30 30.5 -51.5t73.5 -37t86 -34t73.5 -55t30.5 -88.5q0 -88 -58.5 -141.5t-148.5 -53.5q-51 0 -106.5 16.5t-93.5 45.5l37 76q28 -21 76 -39t80 -18q51 0 88 25.5t37 74.5
q0 27 -16 48t-42 35t-57 26.5t-62 27.5t-57 33t-42 47t-16 66q0 83 60.5 125.5t146.5 42.5z" />
    <glyph glyph-name="T" unicode="T" horiz-adv-x="581" 
d="M50 612h481v-78h-198v-534h-85v534h-198v78z" />
    <glyph glyph-name="U" unicode="U" horiz-adv-x="576" 
d="M70 612h84v-397q0 -57 39 -100t95 -43q58 0 96.5 42t38.5 101v33v364h83v-364q0 -35 -1 -53q-6 -90 -66.5 -147.5t-150.5 -57.5q-91 0 -151 57t-66 148q-1 18 -1 53v364z" />
    <glyph glyph-name="V" unicode="V" horiz-adv-x="613" 
d="M50 612h90l167 -486l166 486h90l-207 -612h-97z" />
    <glyph glyph-name="W" unicode="W" horiz-adv-x="1039" 
d="M50 612h88l169 -486l168 481h88l170 -481l167 486h89l-208 -612h-97l-165 481l-164 -481h-96z" />
    <glyph glyph-name="X" unicode="X" horiz-adv-x="636" 
d="M81 612h90l147 -228l151 228h89l-183 -284l205 -328h-89l-173 263l-172 -263h-90l205 328z" />
    <glyph glyph-name="Y" unicode="Y" horiz-adv-x="599" 
d="M50 612h88l161 -250l162 250h88l-207 -329v-283h-85v283z" />
    <glyph glyph-name="Z" unicode="Z" horiz-adv-x="589" 
d="M513 612v-78l-340 -456h340v-78h-437v78l343 456h-327v78h421z" />
    <glyph glyph-name="bracketleft" unicode="[" horiz-adv-x="274" 
d="M45 821h184v-78h-99v-842h99v-78h-184v998z" />
    <glyph glyph-name="backslash" unicode="\" horiz-adv-x="407" 
d="M12 726h86l297 -864h-86z" />
    <glyph glyph-name="bracketright" unicode="]" horiz-adv-x="274" 
d="M229 821v-998h-184v78h99v842h-99v78h184z" />
    <glyph glyph-name="asciicircum" unicode="^" horiz-adv-x="684" 
d="M384 687l123 -331h-74l-88 247l-87 -247h-74l123 331h77z" />
    <glyph glyph-name="underscore" unicode="_" horiz-adv-x="634" 
d="M589 -72v-75h-544v75h544z" />
    <glyph glyph-name="grave" unicode="`" horiz-adv-x="441" 
d="M227 741l49 -126h-70l-68 126h89z" />
    <glyph glyph-name="a" unicode="a" 
d="M234 525q62 0 103 -26t58 -67.5t24.5 -92t8.5 -100.5t4.5 -91.5t17.5 -67t42 -25.5l-30 -65q-66 2 -95 62q-62 -62 -152 -62q-79 0 -127 48t-48 128q0 71 52.5 124.5t122.5 53.5q80 0 134 -44q-4 151 -121 151q-69 0 -133 -54l-28 60q31 31 76.5 49.5t90.5 18.5zM229 269
q-43 0 -76 -30.5t-33 -72.5q0 -47 30.5 -75.5t78.5 -28.5q78 0 124 54l-3 109q-43 44 -121 44z" />
    <glyph glyph-name="b" unicode="b" horiz-adv-x="559" 
d="M285 525q104 0 162 -77t58 -184q0 -106 -60 -190t-162 -84q-73 0 -137 53v-43h-79v700h79v-226q24 23 63.5 37t75.5 14zM264 449q-30 0 -66.5 -15t-51.5 -38v-270q45 -57 123 -57q49 0 85 30.5t51.5 73t15.5 90.5q0 76 -42 131t-115 55z" />
    <glyph glyph-name="c" unicode="c" horiz-adv-x="507" 
d="M296 524q46 0 94 -18t77 -50l-38 -65q-53 55 -122 55q-73 0 -121.5 -57t-48.5 -131q0 -73 47 -130t119 -57q71 0 126 55l38 -65q-31 -32 -79.5 -51.5t-94.5 -19.5q-108 0 -173.5 79t-65.5 188q0 111 66.5 189t175.5 78z" />
    <glyph glyph-name="d" unicode="d" horiz-adv-x="558" 
d="M281 525q35 0 72 -14t60 -37v226h78v-700h-78v43q-62 -54 -137 -54q-101 0 -161.5 84.5t-60.5 190.5q0 113 58.5 187t168.5 74zM295 446q-79 0 -115.5 -52t-36.5 -129q0 -80 38.5 -140t114.5 -60q32 0 65 16t52 41v271q-15 22 -51.5 37.5t-66.5 15.5z" />
    <glyph glyph-name="e" unicode="e" horiz-adv-x="527" 
d="M274 453q-61 0 -98 -40t-37 -101h258q1 61 -31 101t-92 40zM273 525q97 0 148.5 -64.5t51.5 -163.5v-50h-337q0 -73 43 -128.5t115 -55.5q37 0 75 15.5t60 42.5l35 -62q-27 -33 -75.5 -51t-95.5 -18q-111 0 -175 80.5t-64 194.5q0 109 56.5 184.5t162.5 75.5z" />
    <glyph glyph-name="f" unicode="f" horiz-adv-x="365" 
d="M249 711q56 0 96 -29l-26 -56q-25 14 -57 14q-49 0 -72 -37t-23 -89h153v-71h-154v-443h-79v443h-72v71h72q0 79 43 138t119 59z" />
    <glyph glyph-name="g" unicode="g" horiz-adv-x="558" 
d="M283 525q80 0 129 -52v41h79v-387q0 -40 -1 -60q-6 -107 -62 -182t-159 -75q-44 0 -96.5 16t-80.5 43l36 65q19 -19 62 -32.5t74 -13.5q66 0 107 53t41 121q-49 -41 -131 -41q-104 0 -165.5 75t-61.5 181t62.5 177t166.5 71zM292 449q-71 0 -112.5 -49t-41.5 -122
t41 -125.5t111 -52.5q38 0 73.5 14t49.5 44v234q-48 57 -121 57z" />
    <glyph glyph-name="h" unicode="h" horiz-adv-x="546" 
d="M295 525q88 0 129.5 -57.5t41.5 -149.5v-318h-79v268q0 35 -3.5 61t-14 53.5t-34 42t-58.5 14.5t-60 -16t-37.5 -42.5t-18 -54t-5.5 -58.5v-268h-80v700h80v-272q14 42 54 69.5t85 27.5z" />
    <glyph glyph-name="i" unicode="i" horiz-adv-x="255" 
d="M167 514v-514h-80v514h80zM179 621q0 -20 -15.5 -35t-36.5 -15t-36 14.5t-15 35.5t15 35.5t36 14.5t36.5 -14.5t15.5 -35.5z" />
    <glyph glyph-name="j" unicode="j" horiz-adv-x="318" 
d="M222 514v-411q0 -36 -1.5 -62t-6 -64t-15.5 -64t-28 -51.5t-45.5 -38.5t-65.5 -13q-57 0 -94 24l30 63q25 -15 57 -15q25 0 42.5 13.5t26 30.5t13 46t5 45.5t0.5 43.5l1 453h81zM234 622q0 -21 -15.5 -35.5t-36.5 -14.5t-36 14.5t-15 35.5t15 35.5t36 14.5t36.5 -14.5
t15.5 -35.5z" />
    <glyph glyph-name="k" unicode="k" horiz-adv-x="531" 
d="M67 700h79v-357l182 171h104l-220 -212l272 -302h-104l-234 256v-256h-79v700z" />
    <glyph glyph-name="l" unicode="l" horiz-adv-x="311" 
d="M37 700h82v-503q0 -133 71 -133q30 0 55 17l29 -64q-41 -28 -98 -28q-139 0 -139 228v483z" />
    <glyph glyph-name="m" unicode="m" horiz-adv-x="856" 
d="M76 514h80v-81q37 89 145 89q54 0 93.5 -27t57.5 -77q38 106 154 106q88 0 129 -57t41 -149v-318h-79v255q0 33 -1 52t-6.5 48t-16 45t-32 28.5t-51.5 12.5q-45 0 -74 -31.5t-39 -70.5t-10 -83v-256h-80v255q0 33 -1 52t-6.5 48.5t-16 45t-32 28t-52.5 12.5
q-45 0 -74.5 -32t-39 -71t-9.5 -83v-255h-80v514z" />
    <glyph glyph-name="n" unicode="n" horiz-adv-x="546" 
d="M295 525q90 0 130.5 -57t40.5 -150v-318h-79v268q0 171 -109 171q-36 0 -61.5 -17.5t-38 -46.5t-17.5 -57.5t-5 -60.5v-257h-80v514h80v-86q15 42 55 69.5t84 27.5z" />
    <glyph glyph-name="o" unicode="o" horiz-adv-x="578" 
d="M289 521q107 0 171 -79t64 -188t-64 -188t-171 -79t-171 79t-64 188t64 188t171 79zM289 449q-68 0 -109 -61.5t-41 -133.5q0 -73 40.5 -134.5t109.5 -61.5q72 0 111 60.5t39 135.5t-39 135t-111 60z" />
    <glyph glyph-name="p" unicode="p" horiz-adv-x="559" 
d="M282 525q102 0 162.5 -84.5t60.5 -190.5q0 -107 -57 -183.5t-160 -76.5q-89 0 -143 55v-226h-78v695h78v-43q62 54 137 54zM263 447q-32 0 -65 -16t-53 -42v-271q16 -23 52 -38.5t66 -15.5q72 0 114.5 55.5t42.5 129.5q0 79 -40.5 138.5t-116.5 59.5z" />
    <glyph glyph-name="q" unicode="q" horiz-adv-x="559" 
d="M273 525q78 -1 141 -54v43h78v-695h-78v226q-55 -55 -143 -55q-103 0 -160 76.5t-57 183.5q0 68 23 129t74.5 103.5t121.5 42.5zM296 445q-75 0 -115 -58.5t-40 -137.5q0 -73 41.5 -126.5t112.5 -53.5q30 0 67 15.5t52 38.5v264q-20 26 -53 42t-65 16z" />
    <glyph glyph-name="r" unicode="r" horiz-adv-x="379" 
d="M76 514h81v-86q14 42 54 69t85 27q17 0 63 -11l-39 -84q-21 8 -40 8q-45 0 -74 -28.5t-39 -66t-10 -81.5v-261h-81v514z" />
    <glyph glyph-name="s" unicode="s" horiz-adv-x="465" 
d="M253 525q40 0 82.5 -12.5t63.5 -36.5l-28 -59q-41 35 -106 35q-37 0 -72 -20t-35 -54q0 -27 26 -44.5t63 -29.5t73.5 -27.5t62.5 -48.5t26 -82q0 -73 -52 -114.5t-127 -41.5q-44 0 -92.5 14t-81.5 39l35 70q63 -48 127 -48q42 0 76.5 22t34.5 60q0 33 -25.5 53.5
t-62.5 32.5t-73.5 26t-62.5 43.5t-26 75.5q0 68 51.5 107.5t122.5 39.5z" />
    <glyph glyph-name="t" unicode="t" horiz-adv-x="355" 
d="M86 654h78l1 -140h150v-71h-150q0 -41 0.5 -123t0.5 -122q0 -133 71 -133q28 0 54 18l27 -63q-42 -29 -89 -29q-70 0 -106.5 56t-36.5 130v266h-71v71h71v140z" />
    <glyph glyph-name="u" unicode="u" 
d="M80 514h80v-257q0 -38 3 -64.5t13 -57.5t34 -47.5t61 -16.5q35 0 60 17.5t37.5 47t18 59t5.5 62.5v257h80v-514h-80v86q-15 -45 -56 -70.5t-90 -25.5q-45 0 -78 17.5t-51.5 48.5t-27 67.5t-8.5 79.5q0 52 -0.5 155.5t-0.5 155.5z" />
    <glyph glyph-name="v" unicode="v" horiz-adv-x="501" 
d="M43 514h81l125 -387l125 387h84l-169 -514h-80z" />
    <glyph glyph-name="w" unicode="w" horiz-adv-x="836" 
d="M43 514h83l123 -387l125 384h86l125 -384l123 387h85l-168 -514h-81l-126 397l-129 -397h-80z" />
    <glyph glyph-name="x" unicode="x" horiz-adv-x="538" 
d="M71 514h82l118 -176l117 176h84l-154 -242l173 -272h-86l-134 200l-136 -200h-88l176 272z" />
    <glyph glyph-name="y" unicode="y" horiz-adv-x="494" 
d="M43 514h86l125 -380l125 380h83q-12 -36 -74.5 -227.5t-100.5 -291.5q-34 -93 -57 -125q-39 -55 -96 -55q-19 0 -47 9t-42 20l31 62q30 -17 53 -17q32 0 54 44t30 87z" />
    <glyph glyph-name="z" unicode="z" horiz-adv-x="459" 
d="M61 514h351v-71l-274 -371h280v-72h-377v72l275 371h-255v71z" />
    <glyph glyph-name="braceleft" unicode="{" horiz-adv-x="347" 
d="M256 820h46v-77q-66 0 -82.5 -25.5t-16.5 -95.5v-247l-54 -54l54 -51v-293q0 -44 26 -60.5t73 -16.5v-77h-34q-150 0 -150 156v270l-73 72l73 75v286q0 62 38 100t100 38z" />
    <glyph glyph-name="bar" unicode="|" horiz-adv-x="108" 
d="M96 697v-760h-84v760h84z" />
    <glyph glyph-name="braceright" unicode="}" horiz-adv-x="347" 
d="M143 375v291q0 77 -98 77v77h33q150 0 150 -156v-268l74 -74l-74 -73v-288q0 -67 -41 -102.5t-109 -35.5h-33v77q46 0 72 17t26 61v292l54 52z" />
    <glyph glyph-name="asciitilde" unicode="~" horiz-adv-x="671" 
d="M210 425l-55 31q43 77 116 77q22 0 62 -15t61 -15q40 0 58 34l59 -31q-39 -71 -107 -71q-23 0 -63 16t-62 16q-47 0 -69 -42z" />
    <glyph glyph-name="exclamdown" unicode="&#xa1;" horiz-adv-x="208" 
d="M163 -42h-118l26 555h68zM50 640q0 23 16 38.5t39 15.5q22 0 38.5 -15.5t16.5 -38.5q0 -22 -16.5 -37.5t-38.5 -15.5q-23 0 -39 15.5t-16 37.5z" />
    <glyph glyph-name="cent" unicode="&#xa2;" horiz-adv-x="575" 
d="M360 69q37 0 75 14.5t64 38.5l36 -73q-58 -53 -164 -61v-79h-58v81q-116 15 -187.5 104.5t-71.5 208.5t71.5 208t187.5 104v82h58v-80q105 -8 164 -62l-36 -72q-26 24 -64.5 39t-74.5 15q-95 0 -157 -69t-62 -165q0 -97 61.5 -165.5t157.5 -68.5z" />
    <glyph glyph-name="sterling" unicode="&#xa3;" horiz-adv-x="497" 
d="M334 554q-37 0 -63 -21.5t-38 -56.5t-17.5 -67.5t-5.5 -67.5h132v-55h-132q-1 -45 -19 -122.5t-42 -94.5h253v-67h-368v67h12q42 0 66 80t24 137h-97v55h97q-1 49 8.5 96t31 90t61 69t92.5 26q79 0 123 -48l-28 -53q-40 33 -90 33z" />
    <glyph glyph-name="currency" unicode="&#xa4;" horiz-adv-x="582" 
d="M489 259q0 -63 -32 -111l75 -74l-57 -56l-70 71q-49 -37 -116 -37q-62 0 -112 35l-69 -69l-56 56l71 70q-33 49 -33 115q0 65 31 113l-69 69l56 57l68 -69q51 37 113 37q67 0 116 -39l70 71l57 -57l-73 -72q30 -47 30 -110zM289 115q60 0 99.5 42t39.5 102q0 59 -40 101
t-99 42q-57 0 -98 -42.5t-41 -100.5t41 -101t98 -43z" />
    <glyph glyph-name="yen" unicode="&#xa5;" horiz-adv-x="599" 
d="M549 612l-198 -312h116v-54h-125v-41h125v-54h-125v-151h-85v151h-126v54h126v41h-126v54h116l-197 312h88l161 -246l162 246h88z" />
    <glyph glyph-name="brokenbar" unicode="&#xa6;" horiz-adv-x="380" 
d="M195 207v-386h-85v386h85zM195 662v-386h-85v386h85z" />
    <glyph glyph-name="section" unicode="&#xa7;" horiz-adv-x="554" 
d="M170 275q0 -26 24.5 -47.5t53 -32t67.5 -23t52 -18.5q42 30 42 77q0 17 -5 31.5t-17 26t-22 19.5t-29.5 17t-29 13t-31.5 11.5t-27 9.5q-34 -9 -56 -30.5t-22 -53.5zM498 242q0 -92 -65 -145q32 -40 32 -91q0 -87 -59.5 -139.5t-147.5 -52.5q-52 0 -108 16.5t-94 45.5
l38 75q27 -20 75.5 -38.5t79.5 -18.5q51 0 88.5 27t37.5 76q0 36 -30 61t-73.5 42t-86.5 36t-73 55t-30 87q0 43 20.5 79.5t58.5 57.5q-46 38 -46 94q0 85 59.5 128.5t147.5 43.5q106 0 163 -52l-29 -66q-22 19 -57.5 30t-66.5 11q-51 0 -90 -23.5t-39 -70.5q0 -43 93 -85
q12 -5 38.5 -15.5t41.5 -16.5t37 -17.5t34.5 -23t25.5 -27.5t19 -37t6 -46z" />
    <glyph glyph-name="dieresis" unicode="&#xa8;" horiz-adv-x="502" 
d="M153 757q20 0 34 -14t14 -34t-14 -34t-34 -14q-19 0 -33 14t-14 34t14 34t33 14zM357 757q19 0 33.5 -14.5t14.5 -33.5t-14.5 -33.5t-33.5 -14.5q-20 0 -34 14t-14 34q0 19 14.5 33.5t33.5 14.5z" />
    <glyph glyph-name="copyright" unicode="&#xa9;" horiz-adv-x="768" 
d="M384 -30q-136 0 -233 97t-97 233t97 233t233 97t233 -97t97 -233t-97 -233t-233 -97zM384 599q-124 0 -212 -88t-88 -212q0 -123 88 -211t212 -88q123 0 211.5 88t88.5 211q0 124 -88.5 212t-211.5 88zM392 162q61 0 102 38l25 -44q-24 -25 -61 -39t-73 -14
q-81 0 -132 57.5t-51 139.5q0 84 51.5 140.5t134.5 56.5q35 0 71.5 -13.5t59.5 -37.5l-25 -43q-39 37 -99 37q-55 0 -93.5 -42.5t-38.5 -97.5t37.5 -96.5t91.5 -41.5z" />
    <glyph glyph-name="ordfeminine" unicode="&#xaa;" horiz-adv-x="352" 
d="M235 318q-38 -34 -92 -34q-50 0 -81 30.5t-31 81.5q0 45 33 76t79 31t77 -20q-5 81 -71 81q-21 0 -45 -10t-37 -26l-20 46q45 45 108 45q45 0 72.5 -21.5t35.5 -53.5t12 -69t4.5 -69t10 -53t30.5 -20l-23 -49q-41 0 -62 34zM222 366l-2 63q-27 27 -69 27
q-25 0 -43.5 -18.5t-18.5 -43.5q0 -26 18 -43t44 -17q45 0 71 32z" />
    <glyph glyph-name="guillemotleft" unicode="&#xab;" horiz-adv-x="478" 
d="M245 480l-111 -209l111 -209h-87l-113 209l113 209h87zM433 480l-110 -209l110 -209h-86l-114 209l114 209h86z" />
    <glyph glyph-name="logicalnot" unicode="&#xac;" horiz-adv-x="501" 
d="M456 434v-218h-84v141h-327v77h411z" />
    <glyph glyph-name="uni00AD" unicode="&#xad;" horiz-adv-x="473" 
d="M428 269h-383v76h383v-76z" />
    <glyph glyph-name="registered" unicode="&#xae;" horiz-adv-x="768" 
d="M384 -30q-136 0 -233 97t-97 233t97 233t233 97t233 -97t97 -233t-97 -233t-233 -97zM384 600q-124 0 -212.5 -88t-88.5 -213q0 -124 88.5 -212t212.5 -88t212.5 88t88.5 212t-88.5 212.5t-212.5 88.5zM531 125h-62q-18 27 -48 80t-37 65h-66v-145h-52v347h145
q41 0 68.5 -29.5t27.5 -69.5q0 -33 -18 -60t-49 -36zM406 316q21 0 35 17t14 38t-14 37.5t-35 16.5h-88v-109h88z" />
    <glyph glyph-name="macron" unicode="&#xaf;" horiz-adv-x="653" 
d="M537 717v-57h-383v57h383z" />
    <glyph glyph-name="degree" unicode="&#xb0;" horiz-adv-x="351" 
d="M176 635q54 0 92 -37t38 -91q0 -55 -37.5 -93t-92.5 -38q-56 0 -93.5 38t-37.5 93q0 54 38.5 91t92.5 37zM175 427q33 0 56.5 23.5t23.5 56.5t-23.5 55.5t-56.5 22.5t-55.5 -22.5t-22.5 -55.5t22.5 -56.5t55.5 -23.5z" />
    <glyph glyph-name="plusminus" unicode="&#xb1;" horiz-adv-x="473" 
d="M428 397v-75h-150v-154h-84v154h-149v75h149v154h84v-154h150zM428 31h-383v75h383v-75z" />
    <glyph glyph-name="twosuperior" unicode="&#xb2;" horiz-adv-x="261" 
d="M123 621q45 0 78 -27t33 -75q0 -27 -20 -51t-44.5 -39.5t-47.5 -37t-27 -41.5h145v-56h-218v25q0 42 23.5 75.5t51 50t51 36t23.5 38.5q0 46 -56 46q-44 0 -72 -30l-22 45q34 41 102 41z" />
    <glyph glyph-name="threesuperior" unicode="&#xb3;" horiz-adv-x="265" 
d="M21 323l23 43q50 -29 76 -29t45.5 14t19.5 39q0 18 -9 28.5t-27 14.5t-29.5 5t-32.5 1h-7v43l71 80h-114v50h190v-46l-67 -78q38 -7 61 -33.5t23 -64.5q0 -48 -35 -77.5t-84 -29.5q-58 0 -104 40z" />
    <glyph glyph-name="acute" unicode="&#xb4;" horiz-adv-x="477" 
d="M254 615h-70l50 126h89z" />
    <glyph glyph-name="paragraph" unicode="&#xb6;" horiz-adv-x="448" 
d="M433 620v-57h-69v-652h-61v652h-100v-652h-60v469q-49 0 -84.5 35t-35.5 85t35.5 85t84.5 35h290z" />
    <glyph glyph-name="cedilla" unicode="&#xb8;" horiz-adv-x="653" 
d="M384 24l-53 -158l-85 5l79 153h59z" />
    <glyph glyph-name="onesuperior" unicode="&#xb9;" horiz-adv-x="175" 
d="M144 612v-323h-59v262l-51 -28l-13 54l64 35h59z" />
    <glyph glyph-name="ordmasculine" unicode="&#xba;" horiz-adv-x="358" 
d="M320 450q0 -68 -41 -118t-108 -50t-108 50t-41 118q0 69 41 119t108 50t108 -50t41 -119zM83 450q0 -42 24 -78t64 -36q41 0 64 35t23 79q0 45 -22.5 79.5t-64.5 34.5q-40 0 -64 -36t-24 -78z" />
    <glyph glyph-name="guillemotright" unicode="&#xbb;" horiz-adv-x="479" 
d="M344 275l-110 209h86l114 -209l-114 -209h-86zM156 275l-111 209h87l113 -209l-113 -209h-87z" />
    <glyph glyph-name="questiondown" unicode="&#xbf;" horiz-adv-x="481" 
d="M289 671q23 0 39.5 -15.5t16.5 -37.5t-16.5 -38t-39.5 -16t-39 15.5t-16 38.5q0 22 16 37.5t39 15.5zM241 -49q-79 0 -132 46t-53 124q0 85 55.5 141.5t139.5 56.5v164h74v-225h-42q-62 0 -101 -32.5t-39 -93.5q0 -49 34.5 -77.5t84.5 -28.5q55 0 108 38l25 -66
q-27 -21 -72 -34t-82 -13z" />
    <glyph glyph-name="Agrave" unicode="&#xc0;" horiz-adv-x="612" 
d="M250 612h112l200 -612h-87l-55 163h-227l-56 -163h-87zM306 520l-92 -281h185zM294 828l50 -126h-71l-68 126h89z" />
    <glyph glyph-name="Aacute" unicode="&#xc1;" horiz-adv-x="612" 
d="M250 612h112l200 -612h-87l-55 163h-227l-56 -163h-87zM306 520l-92 -281h185zM330 701h-70l49 126h89z" />
    <glyph glyph-name="Acircumflex" unicode="&#xc2;" horiz-adv-x="612" 
d="M250 612h112l200 -612h-87l-55 163h-227l-56 -163h-87zM306 520l-92 -281h185zM306 785l-41 -87h-58l59 134h80l59 -134h-57z" />
    <glyph glyph-name="Atilde" unicode="&#xc3;" horiz-adv-x="612" 
d="M250 612h112l200 -612h-87l-55 163h-227l-56 -163h-87zM306 520l-92 -281h185zM186 693l-56 34q16 33 48.5 52.5t68.5 19.5q22 0 63 -15t64 -15q41 0 58 32l59 -29q-14 -31 -40 -50t-58 -19q-24 0 -68 15.5t-67 15.5q-49 0 -72 -41z" />
    <glyph glyph-name="Adieresis" unicode="&#xc4;" horiz-adv-x="612" 
d="M250 612h112l200 -612h-87l-55 163h-227l-56 -163h-87zM306 520l-92 -281h185zM203 791q20 0 34 -14t14 -34t-14 -34t-34 -14q-19 0 -33 14t-14 34t14 34t33 14zM407 791q19 0 33.5 -14.5t14.5 -33.5q0 -20 -14 -34t-34 -14t-34 14t-14 34q0 19 14.5 33.5t33.5 14.5z" />
    <glyph glyph-name="Aring" unicode="&#xc5;" horiz-adv-x="612" 
d="M250 612h112l200 -612h-87l-55 163h-227l-56 -163h-87zM306 520l-92 -281h185zM306 835q36 0 61.5 -25t25.5 -61t-25.5 -62t-61.5 -26q-37 0 -62.5 25.5t-25.5 62.5q0 36 26 61t62 25zM305 794q-18 0 -31.5 -13.5t-13.5 -31.5q0 -17 13.5 -31t31.5 -14t32 13.5t14 31.5
t-14 31.5t-32 13.5z" />
    <glyph glyph-name="AE" unicode="&#xc6;" horiz-adv-x="774" 
d="M698 532h-307v-174h247v-74h-247v-204h307v-80h-392v163h-113l-56 -163h-87l207 612h441v-80zM306 239v281l-92 -281h92z" />
    <glyph glyph-name="Ccedilla" unicode="&#xc7;" horiz-adv-x="609" 
d="M373 72q36 0 74.5 14.5t65.5 39.5l36 -73q-33 -30 -84.5 -45.5t-101.5 -15.5l-44 -122l-82 7l62 122q-106 23 -169 109.5t-63 197.5q0 131 85.5 223.5t215.5 92.5q48 0 98.5 -17t82.5 -47l-36 -72q-27 25 -65.5 39.5t-74.5 14.5q-95 0 -156.5 -68.5t-61.5 -165.5
t61 -165.5t157 -68.5z" />
    <glyph glyph-name="Egrave" unicode="&#xc8;" horiz-adv-x="543" 
d="M76 612h391v-80h-306v-174h246v-74h-246v-204h306v-80h-391v612zM277 827l49 -126h-70l-68 126h89z" />
    <glyph glyph-name="Eacute" unicode="&#xc9;" horiz-adv-x="543" 
d="M76 612h391v-80h-306v-174h246v-74h-246v-204h306v-80h-391v612zM297 701h-70l50 126h89z" />
    <glyph glyph-name="Ecircumflex" unicode="&#xca;" horiz-adv-x="543" 
d="M76 612h391v-80h-306v-174h246v-74h-246v-204h306v-80h-391v612zM279 786l-41 -87h-58l59 134h80l59 -134h-57z" />
    <glyph glyph-name="Edieresis" unicode="&#xcb;" horiz-adv-x="543" 
d="M76 612h391v-80h-306v-174h246v-74h-246v-204h306v-80h-391v612zM173 789q19 0 33.5 -14.5t14.5 -33.5q0 -20 -14 -34t-34 -14q-19 0 -33 14t-14 34t14 34t33 14zM377 789q19 0 33.5 -14.5t14.5 -33.5t-14.5 -33.5t-33.5 -14.5q-20 0 -34 14t-14 34t14 34t34 14z" />
    <glyph glyph-name="Igrave" unicode="&#xcc;" horiz-adv-x="235" 
d="M159 612v-612h-85v612h85zM105 828l50 -126h-70l-69 126h89z" />
    <glyph glyph-name="Iacute" unicode="&#xcd;" horiz-adv-x="235" 
d="M161 612v-612h-85v612h85zM150 702h-70l50 126h89z" />
    <glyph glyph-name="Icircumflex" unicode="&#xce;" horiz-adv-x="230" 
d="M158 612v-612h-85v612h85zM115 786l-41 -87h-58l59 134h80l59 -134h-57z" />
    <glyph glyph-name="Idieresis" unicode="&#xcf;" horiz-adv-x="199" 
d="M142 612v-612h-85v612h85zM-3 789q20 0 34 -14t14 -34t-14 -34t-34 -14q-19 0 -33 14t-14 34t14 34t33 14zM201 789q19 0 33.5 -14.5t14.5 -33.5t-14.5 -33.5t-33.5 -14.5t-33.5 14.5t-14.5 33.5t14.5 33.5t33.5 14.5z" />
    <glyph glyph-name="Eth" unicode="&#xd0;" horiz-adv-x="637" 
d="M298 612q124 0 198 -89t74 -215q0 -121 -76.5 -214.5t-195.5 -93.5h-204v276h-79v65h79v271h204zM298 80q83 0 132 70.5t49 157.5q0 90 -47.5 157t-133.5 67h-119v-191h146v-65h-146v-196h119z" />
    <glyph glyph-name="Ntilde" unicode="&#xd1;" horiz-adv-x="594" 
d="M518 612v-612h-88l-270 452v-452h-84v612h87l270 -458v458h85zM171 693l-55 34q15 32 47.5 52t69.5 20q22 0 63 -15t63 -15q42 0 59 33l58 -30q-13 -31 -39 -50t-59 -19q-24 0 -67.5 16t-66.5 16q-50 0 -73 -42z" />
    <glyph glyph-name="Ograve" unicode="&#xd2;" horiz-adv-x="675" 
d="M338 622q125 0 197.5 -94t72.5 -222q0 -131 -71.5 -223.5t-198.5 -92.5q-126 0 -198.5 93t-72.5 223q0 128 73.5 222t197.5 94zM338 546q-90 0 -134.5 -72t-44.5 -168q0 -44 10 -85t30 -77t56 -57.5t83 -21.5q63 0 105 38t58 90t16 113q0 96 -44.5 168t-134.5 72z
M343 829l50 -126h-70l-69 126h89z" />
    <glyph glyph-name="Oacute" unicode="&#xd3;" horiz-adv-x="675" 
d="M338 622q125 0 197.5 -94t72.5 -222q0 -131 -71.5 -223.5t-198.5 -92.5q-126 0 -198.5 93t-72.5 223q0 128 73.5 222t197.5 94zM338 546q-90 0 -134.5 -72t-44.5 -168q0 -44 10 -85t30 -77t56 -57.5t83 -21.5q63 0 105 38t58 90t16 113q0 96 -44.5 168t-134.5 72z
M354 702h-70l50 126h89z" />
    <glyph glyph-name="Ocircumflex" unicode="&#xd4;" horiz-adv-x="675" 
d="M338 622q125 0 197.5 -94t72.5 -222q0 -131 -71.5 -223.5t-198.5 -92.5q-126 0 -198.5 93t-72.5 223q0 128 73.5 222t197.5 94zM338 546q-90 0 -134.5 -72t-44.5 -168q0 -44 10 -85t30 -77t56 -57.5t83 -21.5q63 0 105 38t58 90t16 113q0 96 -44.5 168t-134.5 72z
M338 786l-41 -87h-58l59 134h80l59 -134h-58z" />
    <glyph glyph-name="Otilde" unicode="&#xd5;" horiz-adv-x="675" 
d="M338 622q125 0 197.5 -94t72.5 -222q0 -131 -71.5 -223.5t-198.5 -92.5q-126 0 -198.5 93t-72.5 223q0 128 73.5 222t197.5 94zM338 546q-90 0 -134.5 -72t-44.5 -168q0 -44 10 -85t30 -77t56 -57.5t83 -21.5q63 0 105 38t58 90t16 113q0 96 -44.5 168t-134.5 72z
M217 693l-55 34q15 32 47.5 52t69.5 20q22 0 63 -15t64 -15q41 0 58 32l59 -29q-14 -31 -40 -50t-59 -19q-24 0 -67 15.5t-67 15.5q-50 0 -73 -41z" />
    <glyph glyph-name="Odieresis" unicode="&#xd6;" horiz-adv-x="675" 
d="M338 622q125 0 197.5 -94t72.5 -222q0 -131 -71.5 -223.5t-198.5 -92.5q-126 0 -198.5 93t-72.5 223q0 128 73.5 222t197.5 94zM338 546q-90 0 -134.5 -72t-44.5 -168q0 -44 10 -85t30 -77t56 -57.5t83 -21.5q63 0 105 38t58 90t16 113q0 96 -44.5 168t-134.5 72z
M236 797q20 0 34 -14.5t14 -33.5q0 -20 -14 -34t-34 -14t-34 14t-14 34q0 19 14 33.5t34 14.5zM439 797q20 0 34 -14t14 -34t-14 -34t-34 -14t-34 14t-14 34q0 19 14.5 33.5t33.5 14.5z" />
    <glyph glyph-name="multiply" unicode="&#xd7;" horiz-adv-x="417" 
d="M369 207l-54 -52l-105 105l-109 -109l-56 56l109 109l-109 109l53 53l109 -109l109 109l56 -56l-109 -109z" />
    <glyph glyph-name="Oslash" unicode="&#xd8;" horiz-adv-x="675" 
d="M482 578q64 -43 95 -115.5t31 -155.5q0 -131 -71.5 -223.5t-198.5 -92.5q-54 0 -99 22l-37 -83h-59l47 106q-62 44 -92.5 116t-30.5 155q0 127 73.5 221.5t197.5 94.5q51 0 95 -22l41 95h59zM159 307q0 -124 62 -190l184 413q-31 17 -67 17q-90 0 -134.5 -72t-44.5 -168z
M338 66q63 0 105 38t58 90t16 113q0 124 -65 192l-185 -414q31 -19 71 -19z" />
    <glyph glyph-name="Ugrave" unicode="&#xd9;" horiz-adv-x="576" 
d="M70 612h83v-397q0 -57 39 -100t96 -43q58 0 96 42t38 101v33v364h84v-364q0 -35 -1 -53q-7 -90 -67 -147.5t-150 -57.5q-91 0 -151 57t-66 148q-1 18 -1 53v364zM288 827l49 -126h-70l-68 126h89z" />
    <glyph glyph-name="Uacute" unicode="&#xda;" horiz-adv-x="576" 
d="M70 612h83v-397q0 -57 39 -100t96 -43q58 0 96 42t38 101v33v364h84v-364q0 -35 -1 -53q-7 -90 -67 -147.5t-150 -57.5q-91 0 -151 57t-66 148q-1 18 -1 53v364zM308 701h-71l50 126h89z" />
    <glyph glyph-name="Ucircumflex" unicode="&#xdb;" horiz-adv-x="576" 
d="M70 612h83v-397q0 -57 39 -100t96 -43q58 0 96 42t38 101v33v364h84v-364q0 -35 -1 -53q-7 -90 -67 -147.5t-150 -57.5q-91 0 -151 57t-66 148q-1 18 -1 53v364zM287 786l-41 -87h-58l59 134h81l59 -134h-58z" />
    <glyph glyph-name="Udieresis" unicode="&#xdc;" horiz-adv-x="576" 
d="M70 612h83v-397q0 -57 39 -100t96 -43q58 0 96 42t38 101v33v364h84v-364q0 -35 -1 -53q-7 -90 -67 -147.5t-150 -57.5q-91 0 -151 57t-66 148q-1 18 -1 53v364zM185 789q20 0 34 -14.5t14 -34.5t-14 -33.5t-34 -13.5q-19 0 -33 13.5t-14 33.5t14 34.5t33 14.5zM389 789
q20 0 34 -14.5t14 -34.5q0 -19 -14 -33t-34 -14t-34 13.5t-14 33.5t14 34.5t34 14.5z" />
    <glyph glyph-name="Yacute" unicode="&#xdd;" horiz-adv-x="599" 
d="M50 612h88l161 -250l162 250h88l-207 -329v-283h-85v283zM334 702h-70l49 126h89z" />
    <glyph glyph-name="Thorn" unicode="&#xde;" horiz-adv-x="597" 
d="M208 524h122q89 0 144.5 -47.5t55.5 -135.5q0 -54 -21 -92.5t-54.5 -56.5t-66 -26t-66.5 -8q-14 0 -57.5 0.5t-56.5 0.5v-159h-80v663h80v-139zM322 239q56 0 92 24t36 77q0 103 -142 103h-100v-204h114zM-9265 43q12 0 39.5 0.5t42.5 0.5t41.5 -1t42.5 -3.5t38.5 -8
t36.5 -13.5t29.5 -20.5t24 -28t14.5 -37.5t6 -49q0 -42 -14 -72.5t-35 -47t-54 -26.5t-63 -12.5t-70 -2.5q-13 0 -39.5 0.5t-39.5 0.5v-181h-33v663h33v-162zM-9151 -245q168 0 168 128q0 68 -48 98t-120 30h-114v-256h114z" />
    <glyph glyph-name="germandbls" unicode="&#xdf;" horiz-adv-x="551" 
d="M497 144q0 -64 -49.5 -109t-114.5 -45q-58 0 -107 31l26 62q42 -22 72 -22q36 0 62 28t26 65q0 32 -22 57t-48 39t-48 37t-22 51q0 26 21 49l42 46t21 48q0 35 -27 52.5t-63 17.5q-59 0 -88.5 -44.5t-29.5 -105.5v-401h-81v397q0 98 51 161t147 63q67 0 119.5 -33
t52.5 -95q0 -32 -18.5 -61t-36.5 -52.5t-18 -41.5q0 -15 13.5 -30.5t33 -30t39 -32t33.5 -44t14 -57.5z" />
    <glyph glyph-name="agrave" unicode="&#xe0;" 
d="M234 525q62 0 103 -26t58 -67.5t24.5 -92t8.5 -100.5t4.5 -91.5t17.5 -67t42 -25.5l-30 -65q-66 2 -95 62q-62 -62 -152 -62q-79 0 -127 48t-48 128q0 70 52 119.5t123 49.5q34 0 72.5 -11.5t61.5 -30.5q-4 158 -121 158q-69 0 -133 -54l-28 60q31 31 76.5 49.5
t90.5 18.5zM229 272q-42 0 -75.5 -32t-33.5 -74q0 -47 30.5 -78t78.5 -31q34 0 68 15.5t56 41.5l-3 111q-21 22 -55 34.5t-66 12.5zM248 742l49 -126h-70l-68 126h89z" />
    <glyph glyph-name="aacute" unicode="&#xe1;" 
d="M234 525q62 0 103 -26t58 -67.5t24.5 -92t8.5 -100.5t4.5 -91.5t17.5 -67t42 -25.5l-30 -65q-66 2 -95 62q-62 -62 -152 -62q-79 0 -127 48t-48 128q0 70 52 119.5t123 49.5q34 0 72.5 -11.5t61.5 -30.5q-4 158 -121 158q-69 0 -133 -54l-28 60q31 31 76.5 49.5
t90.5 18.5zM229 272q-42 0 -75.5 -32t-33.5 -74q0 -47 30.5 -78t78.5 -31q34 0 68 15.5t56 41.5l-3 111q-21 22 -55 34.5t-66 12.5zM277 612h-70l50 126h89z" />
    <glyph glyph-name="acircumflex" unicode="&#xe2;" 
d="M234 525q62 0 103 -26t58 -67.5t24.5 -92t8.5 -100.5t4.5 -91.5t17.5 -67t42 -25.5l-30 -65q-66 2 -95 62q-62 -62 -152 -62q-79 0 -127 48t-48 128q0 70 52 119.5t123 49.5q34 0 72.5 -11.5t61.5 -30.5q-4 158 -121 158q-69 0 -133 -54l-28 60q31 31 76.5 49.5
t90.5 18.5zM229 272q-42 0 -75.5 -32t-33.5 -74q0 -47 30.5 -78t78.5 -31q34 0 68 15.5t56 41.5l-3 111q-21 22 -55 34.5t-66 12.5zM251 699l-41 -87h-58l59 134h80l59 -134h-57z" />
    <glyph glyph-name="atilde" unicode="&#xe3;" horiz-adv-x="547" 
d="M233 525q62 0 103 -26t58 -67.5t24.5 -92t8.5 -100.5t4.5 -91.5t17.5 -67t42 -25.5l-30 -65q-66 2 -95 62q-62 -62 -151 -62q-79 0 -127 48t-48 128q0 71 52 120t123 49q33 0 72 -11.5t62 -30.5q-4 158 -122 158q-68 0 -132 -54l-28 60q31 31 76 49.5t90 18.5zM228 272
q-42 0 -75 -32t-33 -74q0 -47 30.5 -78t77.5 -31q35 0 68.5 15.5t55.5 41.5l-2 111q-47 47 -122 47zM125 623l-55 34q15 33 47 52.5t69 19.5q22 0 63 -15t64 -15q41 0 58 32l59 -29q-14 -31 -40 -50t-58 -19q-24 0 -68 15.5t-67 15.5q-49 0 -72 -41z" />
    <glyph glyph-name="adieresis" unicode="&#xe4;" 
d="M234 525q62 0 103 -26t58 -67.5t24.5 -92t8.5 -100.5t4.5 -91.5t17.5 -67t42 -25.5l-30 -65q-66 2 -95 62q-62 -62 -152 -62q-79 0 -127 48t-48 128q0 70 52 119.5t123 49.5q34 0 72.5 -11.5t61.5 -30.5q-4 158 -121 158q-69 0 -133 -54l-28 60q31 31 76.5 49.5
t90.5 18.5zM229 272q-42 0 -75.5 -32t-33.5 -74q0 -47 30.5 -78t78.5 -31q34 0 68 15.5t56 41.5l-3 111q-21 22 -55 34.5t-66 12.5zM157 727q20 0 34 -14t14 -34t-14 -34t-34 -14t-33.5 14t-13.5 34t14 34t33 14zM361 727q19 0 33.5 -14.5t14.5 -33.5q0 -20 -14 -34t-34 -14
t-34 14t-14 34q0 19 14.5 33.5t33.5 14.5z" />
    <glyph glyph-name="aring" unicode="&#xe5;" 
d="M234 525q62 0 103 -26t58 -67.5t24.5 -92t8.5 -100.5t4.5 -91.5t17.5 -67t42 -25.5l-30 -65q-66 2 -95 62q-62 -62 -152 -62q-79 0 -127 48t-48 128q0 70 52 119.5t123 49.5q34 0 72.5 -11.5t61.5 -30.5q-4 158 -121 158q-69 0 -133 -54l-28 60q31 31 76.5 49.5
t90.5 18.5zM229 272q-42 0 -75.5 -32t-33.5 -74q0 -47 30.5 -78t78.5 -31q34 0 68 15.5t56 41.5l-3 111q-21 22 -55 34.5t-66 12.5zM239 763q36 0 61.5 -25t25.5 -61t-25.5 -62t-61.5 -26q-37 0 -62.5 25.5t-25.5 62.5q0 36 26 61t62 25zM238 722q-18 0 -31.5 -13.5
t-13.5 -31.5t13.5 -31.5t31.5 -13.5t32 13.5t14 31.5t-14 31.5t-32 13.5z" />
    <glyph glyph-name="ae" unicode="&#xe6;" horiz-adv-x="823" 
d="M572 525q95 -1 146 -65.5t51 -162.5v-50h-337q0 -71 43 -127.5t111 -56.5q39 0 78 15.5t62 42.5l34 -62q-28 -33 -77.5 -51t-98.5 -18q-52 0 -98 22.5t-74 64.5q-31 -39 -87 -63t-109 -24q-80 0 -128 48t-48 128q0 71 52 120t123 49q32 0 73.5 -11.5t60.5 -30.5
q-4 28 -6.5 40.5t-8 35.5t-13.5 34t-21 24t-31.5 18.5t-43.5 5.5q-67 0 -130 -54l-28 60q68 68 167 68q113 0 160 -106q55 106 178 106zM229 57q39 0 77.5 19.5t62.5 50.5q-16 46 -18 98q-50 47 -122 47q-42 0 -75.5 -32t-33.5 -74q0 -47 30.5 -78t78.5 -31zM435 310h258
q1 63 -30.5 105t-92.5 42t-98 -42.5t-37 -104.5z" />
    <glyph glyph-name="ccedilla" unicode="&#xe7;" horiz-adv-x="507" 
d="M304 68q78 0 131 51l32 -58q-53 -54 -160 -69l-45 -132l-84 7l64 128q-88 19 -138 93.5t-50 168.5q0 111 66.5 188.5t175.5 77.5q46 0 94 -18t77 -50l-32 -58q-22 24 -57.5 37t-70.5 13q-72 0 -121 -58t-49 -132q0 -73 48 -131t119 -58z" />
    <glyph glyph-name="egrave" unicode="&#xe8;" horiz-adv-x="527" 
d="M274 456q-61 0 -98 -42t-37 -104h258q1 62 -31 104t-92 42zM273 525q97 0 148.5 -64.5t51.5 -163.5v-50h-337q0 -73 43 -128.5t115 -55.5q37 0 75 15.5t60 42.5l35 -62q-27 -33 -75.5 -51t-95.5 -18q-111 0 -175 80.5t-64 194.5q0 109 56.5 184.5t162.5 75.5zM268 742
l49 -126h-70l-68 126h89z" />
    <glyph glyph-name="eacute" unicode="&#xe9;" horiz-adv-x="527" 
d="M382 741l-68 -126h-70l45 126h93zM274 456q-61 0 -98 -42t-37 -104h259q0 62 -32 104t-92 42zM274 525q96 0 147.5 -64.5t51.5 -163.5v-50h-337q0 -73 43 -128.5t115 -55.5q38 0 75.5 15.5t60.5 42.5l34 -62q-27 -33 -75.5 -51t-95.5 -18q-111 0 -175 80.5t-64 194.5
q0 110 56.5 185t163.5 75z" />
    <glyph glyph-name="ecircumflex" unicode="&#xea;" horiz-adv-x="527" 
d="M274 456q-61 0 -98 -42t-37 -104h258q1 62 -31 104t-92 42zM273 525q97 0 148.5 -64.5t51.5 -163.5v-50h-337q0 -73 43 -128.5t115 -55.5q37 0 75 15.5t60 42.5l35 -62q-27 -33 -75.5 -51t-95.5 -18q-111 0 -175 80.5t-64 194.5q0 109 56.5 184.5t162.5 75.5zM365 612
h-58l-41 87l-41 -87h-58l59 134h80z" />
    <glyph glyph-name="edieresis" unicode="&#xeb;" horiz-adv-x="527" 
d="M274 456q-61 0 -98 -42t-37 -104h258q1 62 -31 104t-92 42zM273 525q97 0 148.5 -64.5t51.5 -163.5v-50h-337q0 -73 43 -128.5t115 -55.5q37 0 75 15.5t60 42.5l35 -62q-27 -33 -75.5 -51t-95.5 -18q-111 0 -175 80.5t-64 194.5q0 109 56.5 184.5t162.5 75.5zM164 726
q20 0 34 -14t14 -34t-14 -34t-34 -14q-19 0 -33 14t-14 34t14 34t33 14zM368 726q20 0 34 -14t14 -34t-14 -34t-34 -14t-34 14t-14 34t14 34t34 14z" />
    <glyph glyph-name="igrave" unicode="&#xec;" horiz-adv-x="235" 
d="M159 514v-514h-80v514h80zM16 741h89l49 -126h-70z" />
    <glyph glyph-name="iacute" unicode="&#xed;" horiz-adv-x="238" 
d="M156 514v-514h-80v514h80zM154 615h-70l49 126h89z" />
    <glyph glyph-name="icircumflex" unicode="&#xee;" horiz-adv-x="229" 
d="M154 514v-514h-79v514h79zM115 701l-46 -89h-53l59 134h79l59 -134h-53z" />
    <glyph glyph-name="idieresis" unicode="&#xef;" horiz-adv-x="239" 
d="M159 514v-514h-80v514h80zM17 726q19 0 33.5 -14t14.5 -34t-14 -34t-34 -14q-19 0 -33 14t-14 34t14 34t33 14zM221 726q19 0 33.5 -14t14.5 -34t-14 -34t-34 -14t-34 14t-14 34t14 34t34 14z" />
    <glyph glyph-name="eth" unicode="&#xf0;" horiz-adv-x="482" 
d="M270 577q2 -3 40 -61.5t49 -79t35.5 -68.5t33.5 -84.5t9 -71.5q0 -91 -51.5 -156.5t-140.5 -65.5q-86 0 -138.5 64.5t-52.5 152.5q0 87 47 149t132 62q31 0 53 -14l-81 128l-80 -53l-25 38l83 55l-73 124h88l48 -81l74 49l25 -38zM245 53q56 0 86 46t30 105
q0 61 -29 106.5t-87 45.5q-56 0 -86.5 -46.5t-30.5 -105.5q0 -57 31.5 -104t85.5 -47z" />
    <glyph glyph-name="ntilde" unicode="&#xf1;" horiz-adv-x="545" 
d="M295 525q89 0 129.5 -56.5t40.5 -150.5v-318h-78v268q0 34 -4.5 60.5t-16 52t-35.5 39.5t-60 14q-42 0 -69 -27t-36.5 -62.5t-9.5 -76.5v-268h-80v514h80v-86q14 42 54 69.5t85 27.5zM146 623l-55 34q15 33 47 52.5t69 19.5q23 0 64 -15t63 -15q41 0 58 32l59 -29
q-13 -31 -39 -50t-59 -19q-24 0 -67.5 15.5t-66.5 15.5q-50 0 -73 -41z" />
    <glyph glyph-name="ograve" unicode="&#xf2;" horiz-adv-x="579" 
d="M290 521q107 0 171 -79t64 -188t-64 -188t-171 -79t-171.5 79t-64.5 188t64.5 188t171.5 79zM290 449q-69 0 -110 -61.5t-41 -133.5q0 -73 40.5 -134.5t110.5 -61.5q71 0 110 60.5t39 135.5t-39 135t-110 60zM292 741l50 -126h-70l-69 126h89z" />
    <glyph glyph-name="oacute" unicode="&#xf3;" horiz-adv-x="578" 
d="M289 521q107 0 171 -79t64 -188t-64 -188t-171 -79t-171 79t-64 188t64 188t171 79zM289 449q-69 0 -109.5 -61.5t-40.5 -133.5q0 -73 40 -134.5t110 -61.5q72 0 111 60.5t39 135.5t-39 135t-111 60zM320 615h-70l49 126h89z" />
    <glyph glyph-name="ocircumflex" unicode="&#xf4;" horiz-adv-x="579" 
d="M290 521q107 0 171 -79t64 -188t-64 -188t-171 -79t-171.5 79t-64.5 188t64.5 188t171.5 79zM290 449q-69 0 -110 -61.5t-41 -133.5q0 -73 40.5 -134.5t110.5 -61.5q71 0 110 60.5t39 135.5t-39 135t-110 60zM290 699l-41 -87h-58l59 134h80l59 -134h-57z" />
    <glyph glyph-name="otilde" unicode="&#xf5;" horiz-adv-x="579" 
d="M290 521q107 0 171 -79t64 -188t-64 -188t-171 -79t-171.5 79t-64.5 188t64.5 188t171.5 79zM290 449q-69 0 -110 -61.5t-41 -133.5q0 -73 40.5 -134.5t110.5 -61.5q71 0 110 60.5t39 135.5t-39 135t-110 60zM170 607l-55 34q15 33 47 52.5t69 19.5q22 0 63 -15t64 -15
q41 0 58 32l59 -29q-14 -31 -40 -50t-58 -19q-24 0 -68 15.5t-67 15.5q-49 0 -72 -41z" />
    <glyph glyph-name="odieresis" unicode="&#xf6;" horiz-adv-x="579" 
d="M290 521q107 0 171 -79t64 -188t-64 -188t-171 -79t-171.5 79t-64.5 188t64.5 188t171.5 79zM290 449q-69 0 -110 -61.5t-41 -133.5q0 -73 40.5 -134.5t110.5 -61.5q71 0 110 60.5t39 135.5t-39 135t-110 60zM188 726q20 0 34 -14t14 -34t-14 -34t-34 -14t-34 14t-14 34
t14 34t34 14zM391 726q20 0 34 -14t14 -34t-14 -34t-34 -14t-34 14t-14 34t14.5 34t33.5 14z" />
    <glyph glyph-name="divide" unicode="&#xf7;" horiz-adv-x="488" 
d="M298 482q0 -22 -16 -38t-38 -16t-38 16t-16 38t16 38t38 16t38 -16t16 -38zM298 92q0 -22 -16 -38t-38 -16t-38 16t-16 38t16 38t38 16t38 -16t16 -38zM443 254h-398v76h398v-76z" />
    <glyph glyph-name="oslash" unicode="&#xf8;" horiz-adv-x="578" 
d="M404 488q59 -36 89.5 -98t30.5 -135q0 -109 -64 -188t-171 -79q-45 0 -80 17l-51 -120h-44l58 137q-59 36 -88.5 98t-29.5 135q0 109 64 188t171 79q41 0 78 -17l52 129h44zM139 255q0 -96 59 -156l146 336q-24 14 -55 14q-68 0 -109 -61t-41 -133zM289 59q72 0 111 60.5
t39 135.5q0 103 -60 159l-147 -340q30 -15 57 -15z" />
    <glyph glyph-name="ugrave" unicode="&#xf9;" 
d="M80 514h80v-257q0 -36 3.5 -63.5t14.5 -57t35.5 -45.5t61.5 -16q35 0 59.5 17t36 45.5t16.5 57.5t5 62v257h80v-514h-80v86q-15 -45 -56 -70.5t-90 -25.5q-45 0 -78 17.5t-51.5 48.5t-27 67.5t-8.5 79.5q0 52 -0.5 155.5t-0.5 155.5zM275 741l49 -126h-70l-68 126h89z
" />
    <glyph glyph-name="uacute" unicode="&#xfa;" 
d="M80 514h80v-257q0 -36 3.5 -63.5t14.5 -57t35.5 -45.5t61.5 -16q35 0 59.5 17t36 45.5t16.5 57.5t5 62v257h80v-514h-80v86q-15 -45 -56 -70.5t-90 -25.5q-45 0 -78 17.5t-51.5 48.5t-27 67.5t-8.5 79.5q0 52 -0.5 155.5t-0.5 155.5zM300 615h-70l50 126h89z" />
    <glyph glyph-name="ucircumflex" unicode="&#xfb;" 
d="M80 514h80v-257q0 -36 3.5 -63.5t14.5 -57t35.5 -45.5t61.5 -16q35 0 59.5 17t36 45.5t16.5 57.5t5 62v257h80v-514h-80v86q-15 -45 -56 -70.5t-90 -25.5q-45 0 -78 17.5t-51.5 48.5t-27 67.5t-8.5 79.5q0 52 -0.5 155.5t-0.5 155.5zM278 699l-41 -87h-58l59 134h80
l59 -134h-57z" />
    <glyph glyph-name="udieresis" unicode="&#xfc;" 
d="M80 514h80v-257q0 -36 3.5 -63.5t14.5 -57t35.5 -45.5t61.5 -16q35 0 59.5 17t36 45.5t16.5 57.5t5 62v257h80v-514h-80v86q-15 -45 -56 -70.5t-90 -25.5q-45 0 -78 17.5t-51.5 48.5t-27 67.5t-8.5 79.5q0 52 -0.5 155.5t-0.5 155.5zM176 726q20 0 34 -14t14 -34t-14 -34
t-34 -14t-34 14t-14 34t14 34t34 14zM379 726q20 0 34 -14t14 -34t-14 -34t-34 -14t-34 14t-14 34t14.5 34t33.5 14z" />
    <glyph glyph-name="yacute" unicode="&#xfd;" horiz-adv-x="494" 
d="M43 514h86l125 -380l125 380h83q-12 -36 -74.5 -227.5t-100.5 -291.5q-34 -93 -57 -125q-39 -55 -96 -55q-19 0 -47 9t-42 20l31 62q30 -17 53 -17q32 0 54 44t30 87zM282 615h-70l49 126h89z" />
    <glyph glyph-name="thorn" unicode="&#xfe;" horiz-adv-x="560" 
d="M285 525q104 0 162.5 -77t58.5 -184t-60 -190.5t-162 -83.5q-74 0 -138 53v-182h-79v839h79v-226q24 23 63.5 37t75.5 14zM264 449q-30 0 -66.5 -15t-51.5 -38v-270q45 -57 124 -57q73 0 112.5 59t39.5 135t-42.5 131t-115.5 55z" />
    <glyph glyph-name="ydieresis" unicode="&#xff;" horiz-adv-x="494" 
d="M43 514h86l125 -380l125 380h83q-12 -36 -74.5 -227.5t-100.5 -291.5q-34 -93 -57 -125q-39 -55 -96 -55q-19 0 -47 9t-42 20l31 62q30 -17 53 -17q32 0 54 44t30 87zM148 726q20 0 34 -14t14 -34t-14 -34t-34 -14q-19 0 -33 14t-14 34t14 34t33 14zM352 726q20 0 34 -14
t14 -34t-14 -34t-34 -14t-34 14t-14 34t14 34t34 14z" />
    <glyph glyph-name="Amacron" unicode="&#x100;" horiz-adv-x="612" 
d="M250 612h112l200 -612h-87l-55 163h-227l-56 -163h-87zM306 520l-92 -281h185zM497 768v-57h-383v57h383z" />
    <glyph glyph-name="amacron" unicode="&#x101;" 
d="M234 525q62 0 103 -26t58 -67.5t24.5 -92t8.5 -100.5t4.5 -91.5t17.5 -67t42 -25.5l-30 -65q-66 2 -95 62q-62 -62 -152 -62q-79 0 -127 48t-48 128q0 70 52 119.5t123 49.5q34 0 72.5 -11.5t61.5 -30.5q-4 158 -121 158q-69 0 -133 -54l-28 60q31 31 76.5 49.5
t90.5 18.5zM229 272q-42 0 -75.5 -32t-33.5 -74q0 -47 30.5 -78t78.5 -31q34 0 68 15.5t56 41.5l-3 111q-21 22 -55 34.5t-66 12.5zM437 682v-57h-383v57h383z" />
    <glyph glyph-name="Abreve" unicode="&#x102;" horiz-adv-x="612" 
d="M250 612h112l200 -612h-87l-55 163h-227l-56 -163h-87zM306 520l-92 -281h185zM306 741q21 0 35 15.5t14 37.5h55q0 -45 -29 -74t-74 -29t-75 29t-30 74h56q0 -22 13.5 -37.5t34.5 -15.5z" />
    <glyph glyph-name="abreve" unicode="&#x103;" 
d="M234 525q62 0 103 -26t58 -67.5t24.5 -92t8.5 -100.5t4.5 -91.5t17.5 -67t42 -25.5l-30 -65q-66 2 -95 62q-62 -62 -152 -62q-79 0 -127 48t-48 128q0 70 52 119.5t123 49.5q34 0 72.5 -11.5t61.5 -30.5q-4 158 -121 158q-69 0 -133 -54l-28 60q31 31 76.5 49.5
t90.5 18.5zM229 272q-42 0 -75.5 -32t-33.5 -74q0 -47 30.5 -78t78.5 -31q34 0 68 15.5t56 41.5l-3 111q-21 22 -55 34.5t-66 12.5zM249 655q21 0 35 15.5t14 37.5h55q0 -45 -29 -74t-74 -29t-75 29t-30 74h56q0 -22 13.5 -37.5t34.5 -15.5z" />
    <glyph glyph-name="Aogonek" unicode="&#x104;" horiz-adv-x="588" 
d="M598 -98l20 -37q-21 -21 -62 -21q-36 0 -61.5 22.5t-25.5 57.5q0 38 33 76h-26l-56 163h-227l-55 -163h-88l200 612h113l200 -612q-18 -7 -27.5 -26.5t-9.5 -40.5q0 -43 41 -43q13 0 31 12zM214 239h185l-93 281z" />
    <glyph glyph-name="aogonek" unicode="&#x105;" horiz-adv-x="500" 
d="M510 -100l20 -37q-21 -21 -62 -21q-32 0 -59 21.5t-28 52.5q0 46 30 84q-29 16 -45 50q-62 -62 -152 -62q-79 0 -126.5 48t-47.5 126q0 71 51.5 120.5t123.5 49.5q33 0 71.5 -11t62.5 -30q-4 157 -122 157q-71 0 -132 -54l-28 61q31 31 76 49t90 18q57 0 96.5 -23.5
t60 -65t29 -86t8.5 -98.5v-18.5v-25.5t0.5 -27.5t2 -30t4.5 -28t8 -26.5t11.5 -20.5t16 -14.5t21.5 -5l-28 -62q-27 -22 -27 -62q0 -18 12.5 -29.5t30.5 -11.5q16 0 31 12zM228 54q34 0 68 16t56 42l-3 110q-45 48 -121 48q-42 0 -75 -32t-33 -74q0 -48 30 -79t78 -31z" />
    <glyph glyph-name="Cacute" unicode="&#x106;" horiz-adv-x="609" 
d="M368 622q47 0 97.5 -17t83.5 -47l-36 -72q-27 25 -65.5 39.5t-74.5 14.5q-96 0 -157 -68.5t-61 -165.5t61 -165.5t157 -68.5q36 0 74.5 14.5t65.5 39.5l36 -73q-33 -29 -83 -45.5t-98 -16.5q-130 0 -215.5 92t-85.5 223t85.5 223.5t215.5 92.5zM388 702h-70l49 126h89z
" />
    <glyph glyph-name="cacute" unicode="&#x107;" horiz-adv-x="507" 
d="M296 524q46 0 94 -18t77 -50l-33 -58q-22 23 -57.5 36.5t-69.5 13.5q-73 0 -121.5 -58t-48.5 -132q0 -73 47.5 -131t118.5 -58q35 0 71 13.5t60 37.5l33 -59q-31 -32 -79.5 -51.5t-94.5 -19.5q-108 0 -173.5 79t-65.5 188q0 111 66.5 189t175.5 78zM329 615h-70l50 126
h89z" />
    <glyph glyph-name="Ccircumflex" unicode="&#x108;" horiz-adv-x="609" 
d="M368 622q47 0 97.5 -17t83.5 -47l-36 -72q-27 25 -65.5 39.5t-74.5 14.5q-96 0 -157 -68.5t-61 -165.5t61 -165.5t157 -68.5q36 0 74.5 14.5t65.5 39.5l36 -73q-33 -29 -83 -45.5t-98 -16.5q-130 0 -215.5 92t-85.5 223t85.5 223.5t215.5 92.5zM345 785l-41 -87h-58
l59 134h80l59 -134h-57z" />
    <glyph glyph-name="ccircumflex" unicode="&#x109;" horiz-adv-x="507" 
d="M296 524q46 0 94 -18t77 -50l-33 -58q-22 23 -57.5 36.5t-69.5 13.5q-73 0 -121.5 -58t-48.5 -132q0 -73 47.5 -131t118.5 -58q35 0 71 13.5t60 37.5l33 -59q-31 -32 -79.5 -51.5t-94.5 -19.5q-108 0 -173.5 79t-65.5 188q0 111 66.5 189t175.5 78zM290 699l-41 -87h-59
l59 134h81l59 -134h-58z" />
    <glyph glyph-name="Cdotaccent" unicode="&#x10a;" horiz-adv-x="609" 
d="M368 622q47 0 97.5 -17t83.5 -47l-36 -72q-27 25 -65.5 39.5t-74.5 14.5q-96 0 -157 -68.5t-61 -165.5t61 -165.5t157 -68.5q36 0 74.5 14.5t65.5 39.5l36 -73q-33 -29 -83 -45.5t-98 -16.5q-130 0 -215.5 92t-85.5 223t85.5 223.5t215.5 92.5zM341 801q22 0 38 -16
t16 -38t-16 -38.5t-38 -16.5t-38 16t-16 39q0 22 16 38t38 16z" />
    <glyph glyph-name="cdotaccent" unicode="&#x10b;" horiz-adv-x="507" 
d="M296 524q46 0 94 -18t77 -50l-33 -58q-22 23 -57.5 36.5t-69.5 13.5q-73 0 -121.5 -58t-48.5 -132q0 -73 47.5 -131t118.5 -58q35 0 71 13.5t60 37.5l33 -59q-31 -32 -79.5 -51.5t-94.5 -19.5q-108 0 -173.5 79t-65.5 188q0 111 66.5 189t175.5 78zM272 719
q22 0 38 -16.5t16 -38.5t-16 -38t-38 -16t-38 16t-16 38q0 23 16 39t38 16z" />
    <glyph glyph-name="Ccaron" unicode="&#x10c;" horiz-adv-x="609" 
d="M368 622q47 0 97.5 -17t83.5 -47l-36 -72q-27 25 -65.5 39.5t-74.5 14.5q-96 0 -157 -68.5t-61 -165.5t61 -165.5t157 -68.5q36 0 74.5 14.5t65.5 39.5l36 -73q-33 -29 -83 -45.5t-98 -16.5q-130 0 -215.5 92t-85.5 223t85.5 223.5t215.5 92.5zM341 743l44 90h54
l-59 -134h-80l-59 134h55z" />
    <glyph glyph-name="ccaron" unicode="&#x10d;" horiz-adv-x="507" 
d="M296 524q46 0 94 -18t77 -50l-33 -58q-22 23 -57.5 36.5t-69.5 13.5q-73 0 -121.5 -58t-48.5 -132q0 -73 47.5 -131t118.5 -58q35 0 71 13.5t60 37.5l33 -59q-31 -32 -79.5 -51.5t-94.5 -19.5q-108 0 -173.5 79t-65.5 188q0 111 66.5 189t175.5 78zM269 656l45 89h53
l-59 -134h-79l-59 134h54z" />
    <glyph glyph-name="Dcaron" unicode="&#x10e;" horiz-adv-x="601" 
d="M76 612h186q126 0 199 -87.5t73 -216.5q0 -123 -75.5 -215.5t-196.5 -92.5h-186v612zM161 532v-452h73q27 0 41 1q53 4 92.5 40t57.5 85t18 102q0 86 -43.5 152t-124.5 71q-14 1 -41 1h-73zM273 743l45 90h53l-59 -134h-79l-59 134h54z" />
    <glyph glyph-name="dcaron" unicode="&#x10f;" horiz-adv-x="654" 
d="M626 615h-70l49 126h89zM54 264q0 113 58.5 187t168.5 74q35 0 72 -14t60 -37v226h78v-700h-78v43q-62 -54 -137 -54q-101 0 -161.5 84.5t-60.5 190.5zM143 265q0 -80 38.5 -140t114.5 -60q32 0 65 16t52 41v271q-15 22 -51.5 37.5t-66.5 15.5q-70 0 -111 -54t-41 -127z
" />
    <glyph glyph-name="Dcroat" unicode="&#x110;" horiz-adv-x="637" 
d="M298 612q124 0 198 -89t74 -215q0 -121 -76.5 -214.5t-195.5 -93.5h-204v276h-79v65h79v271h204zM298 80q84 0 132.5 70.5t48.5 157.5q0 90 -47.5 157t-133.5 67h-119v-191l125 -1v-64h-125v-196h119z" />
    <glyph glyph-name="dcroat" unicode="&#x111;" horiz-adv-x="639" 
d="M572 632v-58h-80v-573h-79v42q-61 -53 -137 -53q-102 0 -162 84t-60 191q0 112 59 186t168 74q36 0 72.5 -13.5t59.5 -37.5v101h-81v57h81v69h79v-69h80zM413 123v270q-15 22 -51.5 37.5t-66.5 15.5q-70 0 -111 -54t-41 -126q0 -50 15 -94t50.5 -75.5t87.5 -31.5
q32 0 64.5 16t52.5 42z" />
    <glyph glyph-name="Emacron" unicode="&#x112;" horiz-adv-x="545" 
d="M76 612h391v-80h-306v-174h246v-74h-246v-204h306v-80h-391v612zM469 768v-57h-383v57h383z" />
    <glyph glyph-name="emacron" unicode="&#x113;" horiz-adv-x="527" 
d="M274 456q-61 0 -98 -42t-37 -104h258q1 62 -31 104t-92 42zM273 525q97 0 148.5 -64.5t51.5 -163.5v-50h-337q0 -73 43 -128.5t115 -55.5q37 0 75 15.5t60 42.5l35 -62q-27 -33 -75.5 -51t-95.5 -18q-111 0 -175 80.5t-64 194.5q0 109 56.5 184.5t162.5 75.5zM458 682
v-57h-383v57h383z" />
    <glyph glyph-name="Ebreve" unicode="&#x114;" horiz-adv-x="543" 
d="M76 612h391v-80h-306v-174h246v-74h-246v-204h306v-80h-391v612zM274 740q21 0 35 15.5t14 37.5h55q0 -45 -29 -74t-74 -29t-75 29t-30 74h56q0 -22 13.5 -37.5t34.5 -15.5z" />
    <glyph glyph-name="ebreve" unicode="&#x115;" horiz-adv-x="527" 
d="M274 456q-61 0 -98 -42t-37 -104h258q1 62 -31 104t-92 42zM273 525q97 0 148.5 -64.5t51.5 -163.5v-50h-337q0 -73 43 -128.5t115 -55.5q37 0 75 15.5t60 42.5l35 -62q-27 -33 -75.5 -51t-95.5 -18q-111 0 -175 80.5t-64 194.5q0 109 56.5 184.5t162.5 75.5zM267 658
q21 0 34.5 15.5t13.5 37.5h55q0 -45 -29 -74t-74 -29t-74.5 29t-29.5 74h55q0 -22 13.5 -37.5t35.5 -15.5z" />
    <glyph glyph-name="Edotaccent" unicode="&#x116;" horiz-adv-x="543" 
d="M76 612h391v-80h-306v-174h246v-74h-246v-204h306v-80h-391v612zM267 834q22 0 38 -16.5t16 -38.5t-16 -38t-38 -16t-38 16t-16 38q0 23 16 39t38 16z" />
    <glyph glyph-name="edotaccent" unicode="&#x117;" horiz-adv-x="527" 
d="M274 456q-61 0 -98 -42t-37 -104h258q1 62 -31 104t-92 42zM273 525q97 0 148.5 -64.5t51.5 -163.5v-50h-337q0 -73 43 -128.5t115 -55.5q37 0 75 15.5t60 42.5l35 -62q-27 -33 -75.5 -51t-95.5 -18q-111 0 -175 80.5t-64 194.5q0 109 56.5 184.5t162.5 75.5zM260 721
q22 0 38 -16.5t16 -38.5t-16 -38t-38 -16t-38 16t-16 38t16 38.5t38 16.5z" />
    <glyph glyph-name="Eogonek" unicode="&#x118;" horiz-adv-x="477" 
d="M487 -95l20 -36q-20 -21 -62 -21q-36 0 -61.5 22.5t-25.5 57.5q0 40 27 72h-309v612h392v-80h-307v-174h246v-74h-246v-204h307v-80q-19 -3 -36.5 -22t-17.5 -38q0 -46 42 -46q14 0 31 11z" />
    <glyph glyph-name="eogonek" unicode="&#x119;" horiz-adv-x="535" 
d="M491 -65l20 -37q-22 -21 -62 -21q-36 0 -61.5 24t-25.5 60q0 22 7 40q-37 -12 -77 -12q-110 0 -174 80t-64 194q0 110 56 185t163 75q96 0 148 -64t52 -163v-51h-337q0 -73 43.5 -128.5t114.5 -55.5q37 0 75 15.5t61 42.5l34 -61q-6 -7 -17.5 -19.5t-16.5 -19t-9.5 -19.5
t-4.5 -29q0 -19 12.5 -33.5t32.5 -14.5q16 0 30 12zM274 454q-61 0 -98 -42t-37 -103h259q0 62 -32 103.5t-92 41.5z" />
    <glyph glyph-name="Ecaron" unicode="&#x11a;" horiz-adv-x="543" 
d="M76 612h391v-80h-306v-174h246v-74h-246v-204h306v-80h-391v612zM274 743l45 89h53l-59 -134h-79l-59 134h54z" />
    <glyph glyph-name="ecaron" unicode="&#x11b;" horiz-adv-x="527" 
d="M274 456q-61 0 -98 -42t-37 -104h258q1 62 -31 104t-92 42zM273 525q97 0 148.5 -64.5t51.5 -163.5v-50h-337q0 -73 43 -128.5t115 -55.5q37 0 75 15.5t60 42.5l35 -62q-27 -33 -75.5 -51t-95.5 -18q-111 0 -175 80.5t-64 194.5q0 109 56.5 184.5t162.5 75.5zM272 656
l45 90h53l-59 -134h-79l-59 134h54z" />
    <glyph glyph-name="Gcircumflex" unicode="&#x11c;" horiz-adv-x="631" 
d="M486 304l84 -1v-235q-20 -35 -83 -56.5t-112 -21.5q-132 0 -220 92t-88 225q0 131 88.5 223t219.5 92q52 0 106 -17.5t90 -49.5l-36 -72q-27 24 -69 41t-78 17q-96 0 -162.5 -69t-66.5 -165q0 -101 65 -168.5t165 -67.5q25 0 54 11.5t43 28.5v193zM350 786l-41 -87h-58
l59 134h80l59 -134h-57z" />
    <glyph glyph-name="gcircumflex" unicode="&#x11d;" horiz-adv-x="558" 
d="M283 525q80 0 129 -52v41h79v-387q0 -40 -1 -60q-6 -107 -62 -182t-159 -75q-44 0 -96.5 16t-80.5 43l36 65q19 -19 62 -32.5t74 -13.5q66 0 107 53t41 121q-49 -41 -131 -41q-104 0 -165.5 75t-61.5 181t62.5 177t166.5 71zM292 449q-71 0 -112.5 -49t-41.5 -122
t41 -125.5t111 -52.5q38 0 73.5 14t49.5 44v234q-48 57 -121 57zM291 699l-41 -87h-58l59 134h80l59 -134h-57z" />
    <glyph glyph-name="Gbreve" unicode="&#x11e;" horiz-adv-x="631" 
d="M486 304l85 -1v-235q-20 -35 -83.5 -56.5t-112.5 -21.5q-132 0 -220 92t-88 225q0 131 88.5 223t219.5 92q53 0 107 -17.5t89 -49.5l-36 -72q-26 24 -68.5 41t-77.5 17q-97 0 -163.5 -69t-66.5 -165q0 -101 65 -168.5t165 -67.5q25 0 54 11.5t43 28.5v193zM336 745
q21 0 35 16t14 38h55q0 -45 -29 -74.5t-74 -29.5t-75 29.5t-30 74.5h56q0 -22 13.5 -38t34.5 -16z" />
    <glyph glyph-name="gbreve" unicode="&#x11f;" horiz-adv-x="558" 
d="M283 525q80 0 129 -52v41h79v-387q0 -40 -1 -60q-6 -107 -62 -182t-159 -75q-44 0 -96.5 16t-80.5 43l36 65q19 -19 62 -32.5t74 -13.5q66 0 107 53t41 121q-49 -41 -131 -41q-104 0 -165.5 75t-61.5 181t62.5 177t166.5 71zM292 449q-71 0 -112.5 -49t-41.5 -122
t41 -125.5t111 -52.5q38 0 73.5 14t49.5 44v234q-48 57 -121 57zM275 655q21 0 34.5 16t13.5 38h55q0 -45 -29 -74.5t-74 -29.5t-74.5 29t-29.5 75h55q0 -22 13.5 -38t35.5 -16z" />
    <glyph glyph-name="Gdotaccent" unicode="&#x120;" horiz-adv-x="631" 
d="M570 304v-235q-20 -35 -83 -57t-113 -22q-132 0 -219.5 92t-87.5 225q0 131 88.5 223t219.5 92q52 0 106 -17.5t90 -49.5l-36 -72q-28 26 -69 42t-78 16q-96 0 -162.5 -69t-66.5 -165q0 -101 65 -168.5t165 -67.5q65 0 97 40v193h84zM337 797q22 0 38 -16t16 -38
t-16 -38.5t-38 -16.5q-23 0 -39 16t-16 39q0 22 16.5 38t38.5 16z" />
    <glyph glyph-name="gdotaccent" unicode="&#x121;" horiz-adv-x="558" 
d="M283 525q80 0 129 -52v41h79v-387q0 -40 -1 -60q-6 -107 -62 -182t-159 -75q-44 0 -96.5 16t-80.5 43l36 65q19 -19 62 -32.5t74 -13.5q66 0 107 53t41 121q-49 -41 -131 -41q-104 0 -165.5 75t-61.5 181t62.5 177t166.5 71zM292 449q-71 0 -112.5 -49t-41.5 -122
t41 -125.5t111 -52.5q38 0 73.5 14t49.5 44v234q-48 57 -121 57zM278 720q22 0 38 -16t16 -38t-16 -38.5t-38 -16.5t-38.5 16.5t-16.5 38.5t16 38t39 16z" />
    <glyph glyph-name="Gcommaaccent" unicode="&#x122;" horiz-adv-x="631" 
d="M570 304v-235q-20 -35 -83 -57t-113 -22q-132 0 -219.5 92t-87.5 225q0 131 88.5 223t219.5 92q52 0 106 -17.5t90 -49.5l-36 -72q-28 26 -69 42t-78 16q-96 0 -162.5 -69t-66.5 -165q0 -101 65 -168.5t165 -67.5q65 0 97 40v193h84zM393 -143q0 -36 -23 -74t-56 -47
l-19 39q19 5 31 20.5t13 35.5q-25 -4 -42.5 10.5t-17.5 40.5q0 22 17 38t38 16q29 0 44 -24t15 -55z" />
    <glyph glyph-name="gcommaaccent" unicode="&#x123;" horiz-adv-x="558" 
d="M283 525q80 0 129 -52v41h79v-387q0 -40 -1 -60q-6 -107 -62 -182t-159 -75q-44 0 -96.5 16t-80.5 43l36 65q19 -19 62 -32.5t74 -13.5q66 0 107 53t41 121q-49 -41 -131 -41q-104 0 -165.5 75t-61.5 181t62.5 177t166.5 71zM292 449q-71 0 -112.5 -49t-41.5 -122
t41 -125.5t111 -52.5q38 0 73.5 14t49.5 44v234q-48 57 -121 57zM238 681q0 36 23 74t56 47l19 -39q-18 -5 -30.5 -21t-14.5 -35q25 4 43 -11t18 -41q0 -21 -17 -37t-39 -16q-29 0 -43.5 24t-14.5 55z" />
    <glyph glyph-name="Hcircumflex" unicode="&#x124;" horiz-adv-x="594" 
d="M518 612v-612h-84v285h-273v-285h-85v612h85v-246h273v246h84zM297 786l-41 -87h-59l59 134h81l59 -134h-58z" />
    <glyph glyph-name="hcircumflex" unicode="&#x125;" horiz-adv-x="546" 
d="M295 525q88 0 129.5 -57.5t41.5 -149.5v-318h-79v268q0 34 -4.5 60.5t-16 52t-35.5 39.5t-59 14q-61 0 -88.5 -49.5t-27.5 -116.5v-268h-80v700h80v-272q14 42 54 69.5t85 27.5zM280 846l-41 -87h-58l59 134h80l59 -134h-57z" />
    <glyph glyph-name="Hbar" unicode="&#x126;" horiz-adv-x="722" 
d="M503 470h-273v-104h273v104zM587 612v-85h59v-57h-59v-470h-84v285h-273v-285h-85v470h-69v57h69v85h85v-85h273v85h84z" />
    <glyph glyph-name="hbar" unicode="&#x127;" horiz-adv-x="628" 
d="M377 526q88 0 129.5 -57.5t41.5 -149.5v-318h-79v268q0 34 -4 60.5t-15.5 52t-35.5 39.5t-59 14q-43 0 -70.5 -27t-37 -62.5t-9.5 -76.5v-268h-80v587h-82v57h82v56h80v-56h96v-57h-96v-159q15 42 55 69.5t84 27.5z" />
    <glyph glyph-name="Itilde" unicode="&#x128;" horiz-adv-x="241" 
d="M158 612v-612h-85v612h85zM-4 687l-56 34q16 33 48.5 52.5t68.5 19.5q22 0 63 -15t64 -15q41 0 58 32l59 -29q-14 -31 -40 -50t-58 -19q-24 0 -68 15.5t-67 15.5q-50 0 -72 -41z" />
    <glyph glyph-name="itilde" unicode="&#x129;" horiz-adv-x="233" 
d="M156 514v-514h-80v514h80zM-5 597l-55 34q18 33 49 52.5t68 19.5q22 0 62 -15t62 -15q36 0 53 33l59 -30q-38 -69 -104 -69q-22 0 -62.5 16t-61.5 16q-46 0 -70 -42z" />
    <glyph glyph-name="Imacron" unicode="&#x12a;" horiz-adv-x="283" 
d="M185 612v-612h-85v612h85zM333 768v-57h-383v57h383z" />
    <glyph glyph-name="imacron" unicode="&#x12b;" horiz-adv-x="251" 
d="M165 514v-514h-80v514h80zM317 682v-57h-383v57h383z" />
    <glyph glyph-name="Ibreve" unicode="&#x12c;" horiz-adv-x="239" 
d="M162 612v-612h-85v612h85zM120 748q21 0 34.5 15.5t13.5 37.5h55q0 -45 -29 -74t-74 -29t-74.5 29t-29.5 74h55q0 -22 13.5 -37.5t35.5 -15.5z" />
    <glyph glyph-name="ibreve" unicode="&#x12d;" horiz-adv-x="239" 
d="M159 514v-514h-79v514h79zM120 668q20 0 34 15t14 36h55q0 -45 -29 -74t-74 -29t-74.5 29t-29.5 74h55q0 -21 14 -36t35 -15z" />
    <glyph glyph-name="Iogonek" unicode="&#x12e;" horiz-adv-x="211" 
d="M175 -93l20 -37q-21 -21 -62 -21q-36 0 -61.5 21t-25.5 55q0 35 33 75h-9v612h81v-612h-19q-31 -33 -31 -61q0 -18 12.5 -31t30.5 -13q16 0 31 12z" />
    <glyph glyph-name="iogonek" unicode="&#x12f;" horiz-adv-x="211" 
d="M110 554q-21 0 -36 14.5t-15 35.5t15 35t36 14t36 -14.5t15 -34.5q0 -21 -15 -35.5t-36 -14.5zM175 -93l20 -37q-21 -21 -61 -21q-36 0 -62 21.5t-26 54.5q0 35 33 75h-9v496h80v-496h-19q-29 -32 -29 -61q0 -18 12.5 -31t30.5 -13q15 0 30 12z" />
    <glyph glyph-name="Idotaccent" unicode="&#x130;" horiz-adv-x="261" 
d="M173 612v-612h-85v612h85zM131 802q22 0 38 -16.5t16 -38.5t-16 -38t-38 -16t-38.5 16t-16.5 38q0 23 16 39t39 16z" />
    <glyph glyph-name="dotlessi" unicode="&#x131;" horiz-adv-x="310" 
d="M57 483h208v-480h-82v404h-126v76z" />
    <glyph glyph-name="Jcircumflex" unicode="&#x134;" horiz-adv-x="452" 
d="M376 611v-311v-46t-2 -46t-4.5 -47.5t-9 -43.5t-15 -42t-22 -34t-30.5 -28t-41 -17t-53 -7q-87 0 -149 54l36 73q44 -41 102 -41q104 0 104 161v375h84zM336 785l-41 -87h-58l59 134h81l59 -134h-58z" />
    <glyph glyph-name="jcircumflex" unicode="&#x135;" horiz-adv-x="362" 
d="M58 -119q80 0 80 159l1 474h81v-411q0 -34 -1.5 -59.5t-5.5 -63t-14.5 -64.5t-26 -53t-42.5 -39.5t-62 -13.5q-67 0 -102 27l29 62q24 -18 63 -18zM179 701l-45 -89h-54l59 134h80l59 -134h-53z" />
    <glyph glyph-name="Kcommaaccent" unicode="&#x136;" horiz-adv-x="569" 
d="M240 337l273 -337h-103l-249 301v-301h-85v612h85v-238l220 238h100zM334 -143q0 -36 -23 -74t-56 -47l-19 39q19 5 31 20.5t13 35.5q-25 -4 -42.5 10.5t-17.5 40.5q0 22 17 38t38 16q29 0 44 -24t15 -55z" />
    <glyph glyph-name="kcommaaccent" unicode="&#x137;" horiz-adv-x="531" 
d="M212 302l272 -302h-104l-234 256v-256h-79v700h79v-357l182 171h104zM333 -143q0 -36 -23 -74t-56 -47l-20 39q19 5 31 20.5t14 35.5q-25 -4 -43 10.5t-18 40.5q0 22 17 38t39 16q29 0 44 -24t15 -55z" />
    <glyph glyph-name="Lacute" unicode="&#x139;" horiz-adv-x="435" 
d="M359 80v-80h-283v612h84v-532h199zM225 828l-67 -126h-71l49 126h89z" />
    <glyph glyph-name="lacute" unicode="&#x13a;" horiz-adv-x="311" 
d="M274 17q-41 -28 -98 -28q-139 0 -139 228v483h82v-503q0 -133 71 -133q30 0 55 17zM119 747h-71l49 126h89z" />
    <glyph glyph-name="Lcommaaccent" unicode="&#x13b;" horiz-adv-x="435" 
d="M359 80v-80h-283v612h84v-532h199zM297 -143q0 -36 -23 -74t-56 -47l-19 39q19 5 31 20.5t13 35.5q-25 -4 -43 10.5t-18 40.5q0 22 17 38t39 16q29 0 44 -24t15 -55z" />
    <glyph glyph-name="lcommaaccent" unicode="&#x13c;" horiz-adv-x="311" 
d="M274 17q-41 -28 -98 -28q-139 0 -139 228v483h82v-503q0 -133 71 -133q30 0 55 17zM220 -143q0 -36 -23.5 -74t-56.5 -47l-19 39q19 5 31 20.5t14 35.5q-25 -4 -43 10.5t-18 40.5q0 22 17 38t39 16q29 0 44 -24t15 -55z" />
    <glyph glyph-name="Lcaron" unicode="&#x13d;" horiz-adv-x="450" 
d="M359 80v-80h-283v612h84v-532h199zM374 690l-62 -114h-69l45 114h86z" />
    <glyph glyph-name="lcaron" unicode="&#x13e;" horiz-adv-x="376" 
d="M328 613h-70l49 126h89zM274 17q-41 -28 -98 -28q-139 0 -139 228v483h82v-503q0 -133 71 -133q30 0 55 17z" />
    <glyph glyph-name="Ldot" unicode="&#x13f;" horiz-adv-x="448" 
d="M359 80v-80h-283v612h84v-532h199zM318 378q22 0 38 -16t16 -38t-16 -38.5t-38 -16.5t-38 16t-16 39q0 22 16 38t38 16z" />
    <glyph glyph-name="ldot" unicode="&#x140;" horiz-adv-x="379" 
d="M272 19q-44 -30 -94 -30q-141 0 -141 228v483h82v-503q0 -130 66 -130q35 0 58 16zM342 356q0 -22 -16 -38.5t-38 -16.5t-38.5 16.5t-16.5 38.5t16 38t39 16q22 0 38 -16t16 -38z" />
    <glyph glyph-name="Lslash" unicode="&#x141;" horiz-adv-x="490" 
d="M216 80h198v-80h-283v276l-116 -73v66l116 74v269h85v-224l155 98v-66l-155 -99v-241z" />
    <glyph glyph-name="lslash" unicode="&#x142;" horiz-adv-x="410" 
d="M344 74l29 -63q-43 -30 -89 -30q-34 0 -59.5 12t-41 35t-25.5 47t-14 58.5t-5 58t-1 56.5v41l-123 -78v63l123 78v339h82v-296l151 96v-63l-151 -96v-144q0 -132 68 -132q32 0 56 18z" />
    <glyph glyph-name="Nacute" unicode="&#x143;" horiz-adv-x="594" 
d="M518 612v-612h-87l-270 452v-452h-85v612h87l270 -458v458h85zM314 702h-71l50 126h89z" />
    <glyph glyph-name="nacute" unicode="&#x144;" horiz-adv-x="545" 
d="M295 525q89 0 129.5 -56.5t40.5 -150.5v-318h-78v268q0 34 -4.5 60.5t-16 52t-35.5 39.5t-60 14q-42 0 -69 -27t-36.5 -62.5t-9.5 -76.5v-268h-80v514h80v-86q14 42 54 69.5t85 27.5zM288 615h-70l50 126h89z" />
    <glyph glyph-name="Ncommaaccent" unicode="&#x145;" horiz-adv-x="594" 
d="M518 612v-612h-87l-270 452v-452h-85v612h87l270 -458v458h85zM352 -143q0 -36 -23 -74t-56 -47l-19 39q19 5 31 20.5t13 35.5q-25 -4 -42.5 10.5t-17.5 40.5q0 22 17 38t38 16q29 0 44 -24t15 -55z" />
    <glyph glyph-name="ncommaaccent" unicode="&#x146;" horiz-adv-x="545" 
d="M295 525q89 0 129.5 -56.5t40.5 -150.5v-318h-78v268q0 34 -4.5 60.5t-16 52t-35.5 39.5t-60 14q-42 0 -69 -27t-36.5 -62.5t-9.5 -76.5v-268h-80v514h80v-86q14 42 54 69.5t85 27.5zM337 -143q0 -36 -23 -74t-56 -47l-19 39q19 5 31 20.5t13 35.5q-25 -4 -42.5 10.5
t-17.5 40.5q0 22 17 38t38 16q29 0 44 -24t15 -55z" />
    <glyph glyph-name="Ncaron" unicode="&#x147;" horiz-adv-x="594" 
d="M518 612v-612h-87l-270 452v-452h-85v612h87l270 -458v458h85zM292 743l45 90h54l-59 -134h-80l-59 134h54z" />
    <glyph glyph-name="ncaron" unicode="&#x148;" horiz-adv-x="545" 
d="M295 525q89 0 129.5 -56.5t40.5 -150.5v-318h-78v268q0 34 -4.5 60.5t-16 52t-35.5 39.5t-60 14q-42 0 -69 -27t-36.5 -62.5t-9.5 -76.5v-268h-80v514h80v-86q14 42 54 69.5t85 27.5zM272 656l45 90h54l-59 -134h-80l-59 134h54z" />
    <glyph glyph-name="napostrophe" unicode="&#x149;" horiz-adv-x="552" 
d="M302 525q89 0 129.5 -56.5t40.5 -150.5v-318h-78v268q0 34 -4.5 60.5t-16 52t-35.5 39.5t-60 14q-42 0 -69 -27t-36.5 -62.5t-9.5 -76.5v-268h-80v514h80v-86q14 42 54 69.5t85 27.5zM-5 703q21 -7 31.5 -26.5t10.5 -42.5q0 -37 -23 -74.5t-57 -46.5q-12 26 -19 39
q18 5 30.5 21t14.5 36q-25 -5 -43 10.5t-18 41.5q0 20 15 35t34 15q16 0 24 -8z" />
    <glyph glyph-name="Omacron" unicode="&#x14c;" horiz-adv-x="675" 
d="M338 622q125 0 197.5 -94t72.5 -222q0 -131 -71.5 -223.5t-198.5 -92.5q-126 0 -198.5 93t-72.5 223q0 128 73.5 222t197.5 94zM338 546q-90 0 -134.5 -72t-44.5 -168q0 -44 10 -85t30 -77t56 -57.5t83 -21.5q63 0 105 38t58 90t16 113q0 96 -44.5 168t-134.5 72z
M529 768v-57h-383v57h383z" />
    <glyph glyph-name="omacron" unicode="&#x14d;" horiz-adv-x="579" 
d="M290 521q107 0 171 -79t64 -188t-64 -188t-171 -79t-171.5 79t-64.5 188t64.5 188t171.5 79zM290 449q-69 0 -110 -61.5t-41 -133.5q0 -73 40.5 -134.5t110.5 -61.5q71 0 110 60.5t39 135.5t-39 135t-110 60zM482 682v-57h-383v57h383z" />
    <glyph glyph-name="Obreve" unicode="&#x14e;" horiz-adv-x="675" 
d="M338 622q125 0 197.5 -94t72.5 -222q0 -131 -71.5 -223.5t-198.5 -92.5q-126 0 -198.5 93t-72.5 223q0 128 73.5 222t197.5 94zM338 546q-90 0 -134.5 -72t-44.5 -168q0 -44 10 -85t30 -77t56 -57.5t83 -21.5q63 0 105 38t58 90t16 113q0 96 -44.5 168t-134.5 72z
M337 746q22 0 35.5 15.5t13.5 37.5h55q0 -45 -29 -74t-74 -29t-75 29t-29 74h55q0 -22 13.5 -37.5t34.5 -15.5z" />
    <glyph glyph-name="obreve" unicode="&#x14f;" horiz-adv-x="579" 
d="M290 521q107 0 171 -79t64 -188t-64 -188t-171 -79t-171.5 79t-64.5 188t64.5 188t171.5 79zM290 449q-69 0 -110 -61.5t-41 -133.5q0 -73 40.5 -134.5t110.5 -61.5q71 0 110 60.5t39 135.5t-39 135t-110 60zM289 664q21 0 34.5 15.5t13.5 37.5h56q0 -45 -29.5 -74
t-73.5 -29q-46 0 -75.5 29t-29.5 74h56q0 -21 13.5 -37t34.5 -16z" />
    <glyph glyph-name="Ohungarumlaut" unicode="&#x150;" horiz-adv-x="675" 
d="M338 622q125 0 197.5 -94t72.5 -222q0 -131 -71.5 -223.5t-198.5 -92.5q-126 0 -198.5 93t-72.5 223q0 128 73.5 222t197.5 94zM338 546q-90 0 -134.5 -72t-44.5 -168q0 -44 10 -85t30 -77t56 -57.5t83 -21.5q63 0 105 38t58 90t16 113q0 96 -44.5 168t-134.5 72z
M269 709h-70l45 126h94zM453 709h-70l45 126h94z" />
    <glyph glyph-name="ohungarumlaut" unicode="&#x151;" horiz-adv-x="579" 
d="M290 521q107 0 171 -79t64 -188t-64 -188t-171 -79t-171.5 79t-64.5 188t64.5 188t171.5 79zM290 449q-69 0 -110 -61.5t-41 -133.5q0 -73 40.5 -134.5t110.5 -61.5q71 0 110 60.5t39 135.5t-39 135t-110 60zM214 615h-70l45 126h94zM398 615h-70l45 126h94z" />
    <glyph glyph-name="OE" unicode="&#x152;" horiz-adv-x="988" 
d="M912 532h-307v-174h247v-73h-247v-205h307v-80h-391v97q-32 -48 -79.5 -74.5t-103.5 -26.5q-127 0 -199 92.5t-72 223.5q0 128 73 222t198 94q55 0 103 -27.5t80 -74.5v86h391v-80zM338 71q62 0 104 38t58 90t16 113q0 60 -16.5 112t-58.5 90t-103 38q-47 0 -83 -21.5
t-56.5 -57t-30.5 -76.5t-10 -85q0 -61 16.5 -113t58.5 -90t105 -38z" />
    <glyph glyph-name="oe" unicode="&#x153;" horiz-adv-x="917" 
d="M290 449q-69 0 -109.5 -61.5t-40.5 -133.5q0 -73 40 -134.5t110 -61.5q71 0 110 60.5t39 135.5t-38.5 135t-110.5 60zM663 456q-61 0 -97.5 -42t-36.5 -104h258q0 62 -32 104t-92 42zM663 525q96 0 148 -64.5t52 -163.5l-1 -50h-337q0 -73 43.5 -128.5t114.5 -55.5
q38 0 76 15.5t60 42.5l34 -62q-27 -33 -75 -51t-95 -18q-66 0 -116 30t-81 82q-31 -53 -81 -84t-115 -31q-71 0 -126 38.5t-82.5 98.5t-27.5 130t27.5 130t82.5 98.5t126 38.5q61 0 109.5 -28t79.5 -76q58 108 184 108z" />
    <glyph glyph-name="Racute" unicode="&#x154;" horiz-adv-x="606" 
d="M539 0h-99l-151 260h-128v-260h-85v612h257q72 0 120.5 -51.5t48.5 -123.5q0 -58 -35 -107t-90 -58zM161 540v-208h163q40 0 67 31.5t27 72.5q0 40 -27.5 72t-67.5 32h-162zM302 702h-70l49 126h89z" />
    <glyph glyph-name="racute" unicode="&#x155;" horiz-adv-x="379" 
d="M76 514h81v-86q14 42 54 69t85 27q17 0 63 -11l-39 -84q-21 8 -40 8q-45 0 -74 -28.5t-39 -66t-10 -81.5v-261h-81v514zM219 615h-70l49 126h89z" />
    <glyph glyph-name="Rcommaaccent" unicode="&#x156;" horiz-adv-x="606" 
d="M439 0l-151 260h-128v-260h-84v612h256q72 0 120.5 -51.5t48.5 -123.5q0 -58 -34.5 -107t-90.5 -58l163 -272h-100zM160 540v-208h163q40 0 67.5 32t27.5 72t-28 72t-67 32h-163zM344 -143q0 -36 -23 -74t-56 -47l-19 39q19 5 31 20.5t13 35.5q-25 -4 -42.5 10.5
t-17.5 40.5q0 22 17 38t38 16q29 0 44 -24t15 -55z" />
    <glyph glyph-name="rcommaaccent" unicode="&#x157;" horiz-adv-x="379" 
d="M320 429q-21 8 -40 8q-45 0 -74 -28.5t-39 -66t-10 -81.5v-261h-81v514h81v-86q14 42 54 69.5t85 27.5q13 0 63 -12zM221 -143q0 -36 -23.5 -74t-56.5 -47l-19 39q19 5 31 20.5t14 35.5q-25 -4 -43 10.5t-18 40.5q0 22 17 38t39 16q29 0 44 -24t15 -55z" />
    <glyph glyph-name="Rcaron" unicode="&#x158;" horiz-adv-x="606" 
d="M439 0l-151 260h-128v-260h-84v612h256q72 0 120.5 -51.5t48.5 -123.5q0 -58 -34.5 -107t-90.5 -58l163 -272h-100zM160 540v-208h163q40 0 67.5 32t27.5 72t-28 72t-67 32h-163zM270 743l45 90h54l-59 -134h-80l-59 134h54z" />
    <glyph glyph-name="rcaron" unicode="&#x159;" horiz-adv-x="379" 
d="M76 514h81v-86q14 42 54 69t85 27q17 0 63 -11l-39 -84q-21 8 -40 8q-45 0 -74 -28.5t-39 -66t-10 -81.5v-261h-81v514zM196 656l45 90h54l-59 -134h-80l-59 134h54z" />
    <glyph glyph-name="Sacute" unicode="&#x15a;" horiz-adv-x="541" 
d="M300 622q104 0 162 -52l-29 -66q-23 18 -58 29.5t-66 11.5q-51 0 -90 -23.5t-39 -70.5q0 -30 30.5 -51.5t73.5 -37t86 -34t73.5 -55t30.5 -88.5q0 -88 -58.5 -141.5t-148.5 -53.5q-51 0 -106.5 16.5t-93.5 45.5l37 76q28 -21 76 -39t80 -18q51 0 88 25.5t37 74.5
q0 27 -16 48t-42 35t-57 26.5t-62 27.5t-57 33t-42 47t-16 66q0 83 60.5 125.5t146.5 42.5zM307 702h-70l49 126h89z" />
    <glyph glyph-name="sacute" unicode="&#x15b;" horiz-adv-x="465" 
d="M253 525q40 0 82.5 -12.5t63.5 -36.5l-28 -59q-41 35 -106 35q-36 0 -66 -20t-30 -54q0 -26 24.5 -44t60 -32t71 -30.5t60 -48.5t24.5 -77q0 -73 -52 -114.5t-127 -41.5q-44 0 -92.5 14t-81.5 39l35 70q63 -48 127 -48q41 0 70 21.5t29 60.5q0 29 -24.5 49t-59.5 33
t-70 28.5t-59.5 46t-24.5 74.5q0 68 51.5 107.5t122.5 39.5zM272 615h-70l49 126h89z" />
    <glyph glyph-name="Scircumflex" unicode="&#x15c;" horiz-adv-x="541" 
d="M300 622q104 0 162 -52l-29 -66q-23 18 -58 29.5t-66 11.5q-51 0 -90 -23.5t-39 -70.5q0 -30 30.5 -51.5t73.5 -37t86 -34t73.5 -55t30.5 -88.5q0 -88 -58.5 -141.5t-148.5 -53.5q-51 0 -106.5 16.5t-93.5 45.5l37 76q28 -21 76 -39t80 -18q51 0 88 25.5t37 74.5
q0 27 -16 48t-42 35t-57 26.5t-62 27.5t-57 33t-42 47t-16 66q0 83 60.5 125.5t146.5 42.5zM278 786l-41 -87h-58l59 134h81l59 -134h-58z" />
    <glyph glyph-name="scircumflex" unicode="&#x15d;" horiz-adv-x="465" 
d="M253 525q40 0 82.5 -12.5t63.5 -36.5l-28 -59q-41 35 -106 35q-36 0 -66 -20t-30 -54q0 -26 24.5 -44t60 -32t71 -30.5t60 -48.5t24.5 -77q0 -73 -52 -114.5t-127 -41.5q-44 0 -92.5 14t-81.5 39l35 70q63 -48 127 -48q41 0 70 21.5t29 60.5q0 29 -24.5 49t-59.5 33
t-70 28.5t-59.5 46t-24.5 74.5q0 68 51.5 107.5t122.5 39.5zM257 699l-41 -87h-59l59 134h81l59 -134h-58z" />
    <glyph glyph-name="Scedilla" unicode="&#x15e;" horiz-adv-x="542" 
d="M180 452q0 -30 30.5 -51.5t73.5 -36.5t86.5 -34t74 -57t30.5 -92q0 -75 -46.5 -124.5t-121.5 -60.5l-45 -129l-84 5l62 120q-105 9 -173 61l38 76q27 -21 75 -39t80 -18q52 0 88.5 29t36.5 80q0 34 -30 58t-73 40t-86 34.5t-73 53.5t-30 84q0 86 59.5 129t148.5 43
q103 0 161 -52l-28 -66q-23 19 -58.5 30t-66.5 11q-50 0 -89.5 -23.5t-39.5 -70.5z" />
    <glyph glyph-name="scedilla" unicode="&#x15f;" horiz-adv-x="465" 
d="M409 148q0 -61 -37 -101t-99 -52l-46 -129l-84 5l62 120q-87 7 -149 52l35 70q63 -48 127 -48q40 0 69.5 21.5t29.5 60.5q0 28 -24.5 48t-59.5 33.5t-70 29.5t-59.5 46.5t-24.5 73.5q0 68 51.5 107.5t121.5 39.5q40 0 82.5 -12.5t64.5 -37.5l-28 -58q-43 35 -106 35
q-36 0 -66.5 -20t-30.5 -54q0 -26 25 -44.5t60 -32t70.5 -30t60.5 -47.5t25 -76z" />
    <glyph glyph-name="Scaron" unicode="&#x160;" horiz-adv-x="541" 
d="M300 622q104 0 162 -52l-29 -66q-23 18 -58 29.5t-66 11.5q-51 0 -90 -23.5t-39 -70.5q0 -30 30.5 -51.5t73.5 -37t86 -34t73.5 -55t30.5 -88.5q0 -88 -58.5 -141.5t-148.5 -53.5q-51 0 -106.5 16.5t-93.5 45.5l37 76q28 -21 76 -39t80 -18q51 0 88 25.5t37 74.5
q0 27 -16 48t-42 35t-57 26.5t-62 27.5t-57 33t-42 47t-16 66q0 83 60.5 125.5t146.5 42.5zM282 743l45 90h54l-59 -134h-80l-59 134h55z" />
    <glyph glyph-name="scaron" unicode="&#x161;" horiz-adv-x="465" 
d="M253 525q40 0 82.5 -12.5t63.5 -36.5l-28 -59q-41 35 -106 35q-36 0 -66 -20t-30 -54q0 -26 24.5 -44t60 -32t71 -30.5t60 -48.5t24.5 -77q0 -73 -52 -114.5t-127 -41.5q-44 0 -92.5 14t-81.5 39l35 70q63 -48 127 -48q41 0 70 21.5t29 60.5q0 29 -24.5 49t-59.5 33
t-70 28.5t-59.5 46t-24.5 74.5q0 68 51.5 107.5t122.5 39.5zM253 656l45 89h53l-59 -134h-79l-59 134h54z" />
    <glyph glyph-name="Tcommaaccent" unicode="&#x162;" horiz-adv-x="581" 
d="M333 534v-534h-85v534h-198v78h481v-78h-198zM352 -143q0 -36 -23 -74t-56 -47l-20 39q19 5 31 20.5t14 35.5q-25 -4 -43 10.5t-18 40.5q0 22 17 38t39 16q29 0 44 -24t15 -55z" />
    <glyph glyph-name="tcommaaccent" unicode="&#x163;" horiz-adv-x="356" 
d="M292 83l27 -63q-42 -29 -89 -29q-70 0 -106.5 56t-36.5 130v266h-72v71h72v140h78l1 -140h150v-71h-150l1 -245q0 -133 71 -133q28 0 54 18zM269 -143q0 -36 -23.5 -74t-56.5 -47l-19 39q19 5 31 20.5t14 35.5q-25 -4 -43 10.5t-18 40.5q0 22 17 38t39 16q29 0 44 -24
t15 -55z" />
    <glyph glyph-name="Tcaron" unicode="&#x164;" horiz-adv-x="581" 
d="M50 612h481v-78h-198v-534h-85v534h-198v78zM290 743l45 90h54l-59 -134h-80l-59 134h54z" />
    <glyph glyph-name="tcaron" unicode="&#x165;" horiz-adv-x="433" 
d="M291 83l28 -63q-43 -29 -90 -29q-70 0 -106.5 56t-36.5 130v266h-71v71h71v140h79v-140h151v-71h-151l1 -245q0 -133 72 -133q28 0 53 18zM385 614h-70l49 126h89z" />
    <glyph glyph-name="Tbar" unicode="&#x166;" horiz-adv-x="581" 
d="M531 534h-198v-122h149v-57h-149v-355h-85v355h-149v57h149v122h-198v78h481v-78z" />
    <glyph glyph-name="tbar" unicode="&#x167;" horiz-adv-x="356" 
d="M291 83l28 -63q-43 -30 -91 -30q-69 0 -105 56t-36 130v82h-72v57h72v127h-72v72h72v140h78l1 -140h150v-72h-150v-127h143v-57h-143q0 -8 -0.5 -25t-0.5 -26q0 -142 73 -142q28 0 53 18z" />
    <glyph glyph-name="Utilde" unicode="&#x168;" horiz-adv-x="576" 
d="M70 612h83v-397q0 -57 39 -100t96 -43q58 0 96 42t38 101v33v364h84v-364q0 -35 -1 -53q-7 -90 -67 -147.5t-150 -57.5q-91 0 -151 57t-66 148q-1 18 -1 53v364zM167 693l-55 34q16 33 48.5 52.5t68.5 19.5q22 0 63 -15t64 -15q41 0 58 32l59 -29q-14 -31 -40 -50
t-58 -19q-24 0 -68 15.5t-67 15.5q-49 0 -73 -41z" />
    <glyph glyph-name="utilde" unicode="&#x169;" 
d="M80 514h80v-257q0 -36 3.5 -63.5t14.5 -57t35.5 -45.5t61.5 -16q35 0 59.5 17t36 45.5t16.5 57.5t5 62v257h80v-514h-80v86q-15 -45 -56 -70.5t-90 -25.5q-45 0 -78 17.5t-51.5 48.5t-27 67.5t-8.5 79.5q0 52 -0.5 155.5t-0.5 155.5zM158 607l-55 34q15 33 47 52.5
t69 19.5q23 0 64 -15t63 -15q41 0 58 32l59 -29q-13 -31 -39 -50t-59 -19q-24 0 -67.5 15.5t-66.5 15.5q-50 0 -73 -41z" />
    <glyph glyph-name="Umacron" unicode="&#x16a;" horiz-adv-x="576" 
d="M70 612h83v-397q0 -57 39 -100t96 -43q58 0 96 42t38 101v33v364h84v-364q0 -35 -1 -53q-7 -90 -67 -147.5t-150 -57.5q-91 0 -151 57t-66 148q-1 18 -1 53v364zM479 768v-57h-383v57h383z" />
    <glyph glyph-name="umacron" unicode="&#x16b;" 
d="M80 514h80v-257q0 -36 3.5 -63.5t14.5 -57t35.5 -45.5t61.5 -16q35 0 59.5 17t36 45.5t16.5 57.5t5 62v257h80v-514h-80v86q-15 -45 -56 -70.5t-90 -25.5q-45 0 -78 17.5t-51.5 48.5t-27 67.5t-8.5 79.5q0 52 -0.5 155.5t-0.5 155.5zM471 682v-57h-383v57h383z" />
    <glyph glyph-name="Ubreve" unicode="&#x16c;" horiz-adv-x="576" 
d="M70 612h83v-397q0 -57 39 -100t96 -43q58 0 96 42t38 101v33v364h84v-364q0 -35 -1 -53q-7 -90 -67 -147.5t-150 -57.5q-91 0 -151 57t-66 148q-1 18 -1 53v364zM287 742q21 0 35 16t14 37h55q0 -44 -29 -73.5t-74 -29.5t-75 29t-30 74h56q0 -21 13.5 -37t34.5 -16z" />
    <glyph glyph-name="ubreve" unicode="&#x16d;" 
d="M80 514h80v-257q0 -36 3.5 -63.5t14.5 -57t35.5 -45.5t61.5 -16q35 0 59.5 17t36 45.5t16.5 57.5t5 62v257h80v-514h-80v86q-15 -45 -56 -70.5t-90 -25.5q-45 0 -78 17.5t-51.5 48.5t-27 67.5t-8.5 79.5q0 52 -0.5 155.5t-0.5 155.5zM278 655q21 0 34.5 16t13.5 38h55
q0 -45 -29 -74.5t-74 -29.5t-74.5 29t-29.5 75h55q0 -22 13.5 -38t35.5 -16z" />
    <glyph glyph-name="Uring" unicode="&#x16e;" horiz-adv-x="576" 
d="M70 612h83v-397q0 -57 39 -100t96 -43q58 0 96 42t38 101v33v364h84v-364q0 -35 -1 -53q-7 -90 -67 -147.5t-150 -57.5q-91 0 -151 57t-66 148q-1 18 -1 53v364zM288 860q36 0 61.5 -25t25.5 -61t-25.5 -62t-61.5 -26q-37 0 -62.5 25.5t-25.5 62.5q0 36 26 61t62 25z
M287 819q-18 0 -31.5 -13.5t-13.5 -31.5t13.5 -31.5t31.5 -13.5t32 13.5t14 31.5t-14 31.5t-32 13.5z" />
    <glyph glyph-name="uring" unicode="&#x16f;" 
d="M80 514h80v-257q0 -36 3.5 -63.5t14.5 -57t35.5 -45.5t61.5 -16q35 0 59.5 17t36 45.5t16.5 57.5t5 62v257h80v-514h-80v86q-15 -45 -56 -70.5t-90 -25.5q-45 0 -78 17.5t-51.5 48.5t-27 67.5t-8.5 79.5q0 52 -0.5 155.5t-0.5 155.5zM278 764q36 0 61.5 -25.5t25.5 -60.5
q0 -37 -25 -62.5t-62 -25.5t-62.5 25.5t-25.5 62.5q0 36 26 61t62 25zM277 722q-17 0 -30.5 -13.5t-13.5 -30.5q0 -18 13 -32t31 -14t32 13.5t14 32.5q0 18 -14 31t-32 13z" />
    <glyph glyph-name="Uhungarumlaut" unicode="&#x170;" horiz-adv-x="576" 
d="M70 612h83v-397q0 -57 39 -100t96 -43q58 0 96 42t38 101v33v364h84v-364q0 -35 -1 -53q-7 -90 -67 -147.5t-150 -57.5q-91 0 -151 57t-66 148q-1 18 -1 53v364zM223 688h-70l45 126h94zM407 688h-70l45 126h94z" />
    <glyph glyph-name="uhungarumlaut" unicode="&#x171;" 
d="M80 514h80v-257q0 -36 3.5 -63.5t14.5 -57t35.5 -45.5t61.5 -16q35 0 59.5 17t36 45.5t16.5 57.5t5 62v257h80v-514h-80v86q-15 -45 -56 -70.5t-90 -25.5q-45 0 -78 17.5t-51.5 48.5t-27 67.5t-8.5 79.5q0 52 -0.5 155.5t-0.5 155.5zM210 615h-70l45 126h93zM394 615h-70
l45 126h93z" />
    <glyph glyph-name="Uogonek" unicode="&#x172;" horiz-adv-x="576" 
d="M422 612h84v-364q0 -194 -138 -244q-31 -41 -31 -66q0 -20 11.5 -32.5t30.5 -12.5q14 0 32 12l20 -36q-22 -21 -65 -21q-35 0 -60 22.5t-25 57.5q0 33 21 62q-96 -5 -160 52t-71 153q-1 18 -1 53v364h83v-397q0 -59 38 -101t97 -42q65 0 99.5 46t34.5 113v381z" />
    <glyph glyph-name="uogonek" unicode="&#x173;" horiz-adv-x="550" 
d="M506 -93l20 -37q-22 -21 -62 -21q-35 0 -61 22.5t-26 56.5q0 24 8 38.5t25 33.5h-18v86q-16 -46 -58 -71t-93 -25q-45 0 -78 19.5t-50.5 53t-25 70.5t-7.5 80v301h80v-253q0 -31 1.5 -52t8 -48.5t18 -44.5t33.5 -29t53 -12q117 0 117 186q0 42 0.5 126.5t0.5 126.5h79
v-514q-28 -25 -33 -43q-2 -8 -2 -17q0 -45 39 -45q13 0 31 12z" />
    <glyph glyph-name="Wcircumflex" unicode="&#x174;" horiz-adv-x="1039" 
d="M50 612h94l163 -476l166 471h93l167 -471l162 476h94l-208 -612h-96l-166 467l-164 -467h-96zM519 784l-41 -87h-58l59 134h80l59 -134h-57z" />
    <glyph glyph-name="wcircumflex" unicode="&#x175;" horiz-adv-x="836" 
d="M43 514h83l123 -387l125 384h86l125 -384l123 387h85l-168 -514h-81l-126 397l-129 -397h-80zM418 699l-41 -87h-58l59 134h80l59 -134h-58z" />
    <glyph glyph-name="Ycircumflex" unicode="&#x176;" horiz-adv-x="599" 
d="M50 612h88l161 -250l162 250h88l-207 -329v-283h-85v283zM299 785l-41 -87h-58l59 134h80l59 -134h-57z" />
    <glyph glyph-name="ycircumflex" unicode="&#x177;" horiz-adv-x="494" 
d="M43 514h86l125 -380l125 380h83q-12 -36 -74.5 -227.5t-100.5 -291.5q-34 -93 -57 -125q-39 -55 -96 -55q-19 0 -47 9t-42 20l31 62q30 -17 53 -17q32 0 54 44t30 87zM251 699l-41 -87h-58l59 134h80l59 -134h-57z" />
    <glyph glyph-name="Ydieresis" unicode="&#x178;" horiz-adv-x="599" 
d="M50 612h88l161 -250l162 250h88l-207 -329v-283h-85v283zM197 789q19 0 33.5 -14.5t14.5 -33.5t-14.5 -33.5t-33.5 -14.5q-20 0 -34 14t-14 34q0 19 14.5 33.5t33.5 14.5zM400 789q20 0 34 -14t14 -34t-14 -34t-34 -14t-34 14.5t-14 33.5t14 33.5t34 14.5z" />
    <glyph glyph-name="Zacute" unicode="&#x179;" horiz-adv-x="589" 
d="M513 612v-78l-327 -456h327v-78h-437v78l328 456h-312v78h421zM315 702h-70l49 126h89z" />
    <glyph glyph-name="zacute" unicode="&#x17a;" horiz-adv-x="459" 
d="M61 514h351v-71l-274 -371h280v-72h-377v72l275 371h-255v71zM264 615h-70l49 126h89z" />
    <glyph glyph-name="Zdotaccent" unicode="&#x17b;" horiz-adv-x="589" 
d="M513 612v-78l-327 -456h327v-78h-437v78l328 456h-312v78h421zM294 802q22 0 38 -16.5t16 -38.5t-16 -38t-38 -16t-38 16t-16 38q0 23 16 39t38 16z" />
    <glyph glyph-name="zdotaccent" unicode="&#x17c;" horiz-adv-x="459" 
d="M61 514h351v-71l-274 -371h280v-72h-377v72l275 371h-255v71zM237 720q22 0 38 -16.5t16 -38.5t-16 -38.5t-38 -16.5t-38 16.5t-16 38.5q0 23 16 39t38 16z" />
    <glyph glyph-name="Zcaron" unicode="&#x17d;" horiz-adv-x="589" 
d="M513 612v-78l-327 -456h327v-78h-437v78l328 456h-312v78h421zM300 743l45 90h54l-59 -134h-80l-59 134h54z" />
    <glyph glyph-name="zcaron" unicode="&#x17e;" horiz-adv-x="459" 
d="M61 514h351v-71l-274 -371h280v-72h-377v72l275 371h-255v71zM237 656l45 90h53l-59 -134h-79l-59 134h54z" />
    <glyph glyph-name="AEacute" unicode="&#x1fc;" horiz-adv-x="774" 
d="M698 532h-307v-174h246v-74h-246v-204h307v-80h-392v163h-114l-55 -163h-87l207 612h441v-80zM306 239v281l-92 -281h92zM417 701h-70l50 126h89z" />
    <glyph glyph-name="aeacute" unicode="&#x1fd;" horiz-adv-x="823" 
d="M572 525q95 -1 146 -65.5t51 -162.5v-50h-337q0 -71 43 -127.5t111 -56.5q39 0 78 15.5t62 42.5l34 -62q-28 -33 -77.5 -51t-98.5 -18q-52 0 -98 22.5t-74 64.5q-31 -39 -87 -63t-109 -24q-80 0 -128 48t-48 128q0 71 52 120t123 49q32 0 73.5 -11.5t60.5 -30.5l-2 9
q-5 34 -7.5 48t-11 38.5t-20 34.5t-32.5 19t-51 9q-67 0 -130 -54l-28 60q68 68 167 68q113 0 160 -106q55 106 178 106zM229 57q39 0 77.5 19.5t62.5 50.5q-16 46 -18 98q-50 47 -122 47q-42 0 -75.5 -32t-33.5 -74q0 -47 30.5 -78t78.5 -31zM435 310h258q1 63 -30.5 105
t-92.5 42t-98 -42.5t-37 -104.5zM342 615h-70l50 126h89z" />
    <glyph glyph-name="Scommaaccent" unicode="&#x218;" horiz-adv-x="542" 
d="M67 52l37 76q28 -21 76 -39t80 -18q52 0 88.5 26t36.5 77q0 30 -21.5 52.5t-54 36t-70.5 31t-70.5 35.5t-54 50t-21.5 75q0 83 60.5 125.5t146.5 42.5q104 0 162 -52l-29 -66q-23 18 -58 29.5t-66 11.5q-51 0 -90 -23.5t-39 -70.5q0 -30 30.5 -51.5t73.5 -36.5t86.5 -34
t74 -57t30.5 -92q0 -86 -60.5 -138t-146.5 -52q-52 0 -107.5 16.5t-93.5 45.5zM328 -143q0 -36 -23 -74t-56 -47l-19 39q19 5 31 20.5t13 35.5q-25 -4 -43 10.5t-18 40.5q0 22 17 38t39 16q29 0 44 -24t15 -55z" />
    <glyph glyph-name="scommaaccent" unicode="&#x219;" horiz-adv-x="465" 
d="M230 -10q-44 0 -92.5 14t-81.5 39l35 70q63 -48 127 -48q41 0 70 21.5t29 60.5q0 29 -24.5 49t-59.5 33t-70 28.5t-59.5 46t-24.5 74.5q0 68 51.5 107.5t122.5 39.5q40 0 82.5 -12.5t63.5 -36.5l-28 -59q-41 35 -106 35q-36 0 -66 -20t-30 -54q0 -26 24.5 -44t60 -32
t71 -30.5t60 -48.5t24.5 -77q0 -73 -52 -114.5t-127 -41.5zM291 -143q0 -36 -23 -74t-56 -47l-19 39q19 5 31 20.5t13 35.5q-25 -4 -43 10.5t-18 40.5q0 22 17 38t39 16q29 0 44 -24t15 -55z" />
    <glyph glyph-name="circumflex" unicode="&#x2c6;" horiz-adv-x="543" 
d="M272 699l-41 -87h-58l59 134h80l59 -134h-57z" />
    <glyph glyph-name="caron" unicode="&#x2c7;" horiz-adv-x="507" 
d="M231 656l45 89h54l-59 -134h-80l-59 134h54z" />
    <glyph glyph-name="breve" unicode="&#x2d8;" horiz-adv-x="475" 
d="M242 642q21 0 34.5 15.5t13.5 37.5h55q0 -45 -29 -74.5t-74 -29.5t-74.5 29t-29.5 75h55q0 -22 13.5 -37.5t35.5 -15.5z" />
    <glyph glyph-name="dotaccent" unicode="&#x2d9;" horiz-adv-x="461" 
d="M220 752q22 0 38 -16.5t16 -38.5t-16 -38t-38 -16t-38.5 16t-16.5 38q0 23 16.5 39t38.5 16z" />
    <glyph glyph-name="ring" unicode="&#x2da;" horiz-adv-x="653" 
d="M299 671q36 0 61.5 -25t25.5 -61t-25.5 -62t-61.5 -26q-37 0 -62.5 25.5t-25.5 62.5q0 36 26 61t62 25zM298 629q-18 0 -31.5 -13t-13.5 -31t13.5 -32t31.5 -14t32 14t14 32t-14 31t-32 13z" />
    <glyph glyph-name="ogonek" unicode="&#x2db;" horiz-adv-x="653" 
d="M349 -94l20 -36q-21 -21 -62 -21q-35 0 -61 22.5t-26 57.5q0 24 12.5 50.5t31.5 41.5l43 -16q-31 -26 -31 -66q0 -44 43 -44q13 0 30 11z" />
    <glyph glyph-name="tilde" unicode="&#x2dc;" horiz-adv-x="518" 
d="M130 641l-55 34q15 32 47.5 51.5t68.5 19.5q23 0 64 -14.5t64 -14.5q41 0 57 32l60 -29q-14 -31 -40 -50t-59 -19q-24 0 -67.5 15.5t-66.5 15.5q-50 0 -73 -41z" />
    <glyph glyph-name="hungarumlaut" unicode="&#x2dd;" horiz-adv-x="568" 
d="M218 622h-70l45 126h93zM402 622h-70l45 126h93z" />
    <glyph glyph-name="Wgrave" unicode="&#x1e80;" horiz-adv-x="1039" 
d="M50 612h94l163 -476l166 471h93l167 -471l162 476h94l-208 -612h-96l-166 467l-164 -467h-96zM516 828l49 -126h-70l-68 126h89z" />
    <glyph glyph-name="wgrave" unicode="&#x1e81;" horiz-adv-x="836" 
d="M43 514h83l123 -387l125 384h86l125 -384l123 387h85l-168 -514h-81l-126 397l-129 -397h-80zM417 741l49 -126h-70l-68 126h89z" />
    <glyph glyph-name="Wacute" unicode="&#x1e82;" horiz-adv-x="1039" 
d="M50 612h94l163 -476l166 471h93l167 -471l162 476h94l-208 -612h-96l-166 467l-164 -467h-96zM540 702h-70l49 126h89z" />
    <glyph glyph-name="wacute" unicode="&#x1e83;" horiz-adv-x="836" 
d="M43 514h83l123 -387l125 384h86l125 -384l123 387h85l-168 -514h-81l-126 397l-129 -397h-80zM449 615h-70l50 126h89z" />
    <glyph glyph-name="Wdieresis" unicode="&#x1e84;" horiz-adv-x="1039" 
d="M50 612h94l163 -476l166 471h93l167 -471l162 476h94l-208 -612h-96l-166 467l-164 -467h-96zM406 789q20 0 34 -14.5t14 -34.5t-14 -33.5t-34 -13.5t-33.5 13.5t-13.5 33.5t14 34.5t33 14.5zM624 789q19 0 33 -14.5t14 -34.5t-13.5 -33.5t-33.5 -13.5t-34.5 14t-14.5 33
q0 20 14.5 34.5t34.5 14.5z" />
    <glyph glyph-name="wdieresis" unicode="&#x1e85;" horiz-adv-x="836" 
d="M43 514h83l123 -387l125 384h86l125 -384l123 387h85l-168 -514h-81l-126 397l-129 -397h-80zM316 725q20 0 34 -14.5t14 -33.5t-14 -33.5t-34 -14.5t-34 14t-14 34q0 19 14 33.5t34 14.5zM519 725q20 0 34 -14t14 -34t-14 -34t-34 -14q-19 0 -33.5 14.5t-14.5 33.5
q0 20 14 34t34 14z" />
    <glyph glyph-name="Ygrave" unicode="&#x1ef2;" horiz-adv-x="599" 
d="M50 612h88l161 -250l162 250h88l-207 -329v-283h-85v283zM297 829l50 -126h-71l-68 126h89z" />
    <glyph glyph-name="ygrave" unicode="&#x1ef3;" horiz-adv-x="494" 
d="M43 514h86l125 -380l125 380h83q-12 -36 -74.5 -227.5t-100.5 -291.5q-34 -93 -57 -125q-39 -55 -96 -55q-19 0 -47 9t-42 20l31 62q30 -17 54 -17q31 0 53 44t30 87zM243 741l49 -126h-70l-68 126h89z" />
    <glyph glyph-name="endash" unicode="&#x2013;" horiz-adv-x="567" 
d="M522 338v-76h-477v76h477z" />
    <glyph glyph-name="emdash" unicode="&#x2014;" horiz-adv-x="833" 
d="M788 338v-76h-743v76h743z" />
    <glyph glyph-name="quoteleft" unicode="&#x2018;" horiz-adv-x="157" 
d="M21 532q0 36 23 73.5t56 46.5l20 -38q-19 -6 -31 -21.5t-14 -35.5q25 5 43 -10t18 -41q0 -21 -17 -37t-39 -16q-29 0 -44 24t-15 55z" />
    <glyph glyph-name="quoteright" unicode="&#x2019;" horiz-adv-x="157" 
d="M136 574q0 -36 -23.5 -74t-56.5 -47l-19 39q19 5 31 20.5t14 35.5q-25 -4 -43 10.5t-18 40.5q0 22 17 38t39 16q29 0 44 -24t15 -55z" />
    <glyph glyph-name="quotesinglbase" unicode="&#x201a;" horiz-adv-x="174" 
d="M21 67q0 25 21 43t47 18q32 0 48 -27t16 -62q0 -40 -25.5 -83t-62.5 -53l-24 45q20 6 33 23t15 37q-29 -5 -48.5 12.5t-19.5 46.5z" />
    <glyph glyph-name="quotedblleft" unicode="&#x201c;" horiz-adv-x="375" 
d="M110 423q-38 9 -63.5 52t-25.5 84q0 37 17 63.5t52 26.5q25 0 44 -18t19 -43q0 -26 -16 -43.5t-42 -17.5q-7 0 -10 1q2 -21 15 -38t33 -23zM311 423q-37 9 -63 52t-26 84q0 37 17 63.5t52 26.5q25 0 44 -18t19 -43q0 -26 -16 -43.5t-42 -17.5q-7 0 -10 1q2 -21 15 -38
t33 -23z" />
    <glyph glyph-name="quotedblright" unicode="&#x201d;" horiz-adv-x="368" 
d="M21 586q0 25 20.5 43t46.5 18q32 0 48.5 -27t16.5 -61q0 -41 -26 -84t-63 -53l-24 45q20 6 33.5 22.5t15.5 37.5q-28 -4 -48 13t-20 46zM214 586q0 25 21 43t47 18q32 0 48.5 -27t16.5 -61q0 -41 -26 -84t-63 -53l-24 45q20 6 33.5 22.5t15.5 37.5q-28 -4 -48.5 13
t-20.5 46z" />
    <glyph glyph-name="quotedblbase" unicode="&#x201e;" horiz-adv-x="367" 
d="M21 67q0 25 20.5 43t46.5 18q32 0 48.5 -27.5t16.5 -61.5q0 -40 -26 -83t-63 -53l-24 45q20 6 33.5 22.5t15.5 37.5q-29 -4 -48.5 13t-19.5 46zM214 67q0 25 21 43t47 18q32 0 48 -27t16 -62q0 -40 -25.5 -83t-62.5 -53l-24 45q20 6 33 22.5t15 37.5q-29 -5 -48.5 12.5
t-19.5 46.5z" />
    <glyph glyph-name="dagger" unicode="&#x2020;" horiz-adv-x="484" 
d="M439 416h-156v-585h-83v585h-155v76h155v347h83v-347h156v-76z" />
    <glyph glyph-name="daggerdbl" unicode="&#x2021;" horiz-adv-x="485" 
d="M440 458h-163v-204h163v-75h-163v-348h-83v348h-148v75h148v204h-149v75h149v306h83v-306h163v-75z" />
    <glyph glyph-name="bullet" unicode="&#x2022;" horiz-adv-x="233" 
d="M188 319q0 -30 -21 -50.5t-51 -20.5q-29 0 -50 20.5t-21 50.5q0 29 21 50t50 21q30 0 51 -21t21 -50z" />
    <glyph glyph-name="ellipsis" unicode="&#x2026;" horiz-adv-x="837" 
d="M168 52q0 -26 -18 -44t-43 -18t-43.5 18t-18.5 44t18.5 44t43.5 18t43 -18t18 -44zM480 52q0 -26 -18 -44t-44 -18t-44 18t-18 44t18 44t44 18t44 -18t18 -44zM792 52q0 -26 -18 -44t-44 -18t-44 18t-18 44t18 44t44 18t44 -18t18 -44z" />
    <glyph glyph-name="perthousand" unicode="&#x2030;" horiz-adv-x="1060" 
d="M576 319q61 0 94.5 -50t33.5 -114t-33.5 -113.5t-94.5 -49.5q-62 0 -95.5 49.5t-33.5 113.5t34 114t95 50zM576 54q33 0 50 32t17 69t-17 69.5t-50 32.5t-50 -32.5t-17 -69.5t16.5 -69t50.5 -32zM878 319q61 0 94.5 -49.5t33.5 -113.5t-33.5 -113.5t-94.5 -49.5
q-62 0 -95.5 49t-33.5 114q0 63 34 113t95 50zM878 54q33 0 50.5 32.5t17.5 69.5t-17.5 69.5t-50.5 32.5t-50 -32.5t-17 -69.5t17 -69.5t50 -32.5zM183 623q61 0 95 -50t34 -114t-33.5 -113.5t-95.5 -49.5t-95.5 49.5t-33.5 113.5t34 114t95 50zM183 358q34 0 51 32t17 69
t-17.5 69.5t-50.5 32.5t-50 -32.5t-17 -69.5t17 -69t50 -32zM296 0h-77l245 612h77z" />
    <glyph glyph-name="guilsinglleft" unicode="&#x2039;" horiz-adv-x="290" 
d="M245 480l-111 -209l111 -209h-87l-113 209l113 209h87z" />
    <glyph glyph-name="guilsinglright" unicode="&#x203a;" horiz-adv-x="290" 
d="M155 270l-110 209h86l114 -209l-114 -209h-86z" />
    <glyph glyph-name="fraction" unicode="&#x2044;" horiz-adv-x="331" 
d="M319 645l-231 -670h-76l232 670h75z" />
    <glyph glyph-name="zerosuperior" unicode="&#x2070;" horiz-adv-x="310" 
d="M232 452q0 43 -18.5 79t-57.5 36t-58 -36t-19 -79t19 -78.5t58 -35.5t57.5 35.5t18.5 78.5zM21 452q0 66 36 116.5t99 50.5t98 -50.5t35 -116.5t-35 -116t-98 -50q-64 0 -99.5 49.5t-35.5 116.5z" />
    <glyph glyph-name="foursuperior" unicode="&#x2074;" horiz-adv-x="294" 
d="M165 533l-78 -108h78v108zM223 372v-81h-58v81h-144v44l140 196h62v-187h50v-53h-50z" />
    <glyph glyph-name="fivesuperior" unicode="&#x2075;" horiz-adv-x="272" 
d="M21 318l25 47q46 -28 75 -28q25 0 42.5 16.5t17.5 41.5q0 14 -5 24.5t-15 16.5t-20 9.5t-25.5 4.5t-26 1t-26 -0.5t-21.5 -0.5l5 162h169v-52h-119l-2 -58q67 0 106.5 -23t39.5 -85q0 -49 -34.5 -80.5t-83.5 -31.5q-53 0 -102 36z" />
    <glyph glyph-name="sixsuperior" unicode="&#x2076;" horiz-adv-x="268" 
d="M78 385q0 -24 16.5 -40.5t40.5 -16.5q25 0 41.5 16.5t16.5 40.5q0 25 -16.5 42t-41.5 17q-24 0 -40.5 -17t-16.5 -42zM21 386q0 11 3 24t11 30.5t12 25.5t16 30t13 23q15 29 34 58t22 35h62l-68 -123q6 3 20 3q44 0 72.5 -30t28.5 -75q0 -49 -31.5 -79.5t-80.5 -30.5
t-81.5 30t-32.5 79z" />
    <glyph glyph-name="sevensuperior" unicode="&#x2077;" horiz-adv-x="227" 
d="M206 612v-38v-2l-123 -285h-66l122 274h-127v51h194z" />
    <glyph glyph-name="eightsuperior" unicode="&#x2078;" horiz-adv-x="261" 
d="M75 389q0 -23 16.5 -39t39.5 -16t39.5 16t16.5 39q0 21 -17 38t-39 17t-39 -16.5t-17 -38.5zM131 574q-17 0 -29 -12t-12 -28q0 -17 12 -28.5t29 -11.5t28 11.5t11 28.5t-11.5 28.5t-27.5 11.5zM21 387q0 56 46 86q-27 23 -27 62q0 38 26.5 62t64.5 24q37 0 64.5 -24
t27.5 -61q0 -39 -30 -63q47 -29 47 -86q0 -45 -32 -74t-77 -29q-46 0 -78 29t-32 74z" />
    <glyph glyph-name="ninesuperior" unicode="&#x2079;" horiz-adv-x="266" 
d="M189 513q0 24 -16 41t-40 17t-40.5 -17t-16.5 -41t16.5 -41.5t40.5 -17.5t40 17.5t16 41.5zM245 513q0 -50 -70 -159l-39 -67h-64l68 122q-6 -3 -18 -3q-43 0 -72 31.5t-29 75.5q0 48 32 78t80 30t80 -30.5t32 -77.5z" />
    <glyph glyph-name="parenleftsuperior" unicode="&#x207d;" horiz-adv-x="179" 
d="M150 283l8 -6l-29 -38l-8 6q-45 32 -72 82q-28 51 -28 106q0 53 28 106q29 50 72 83l8 6l29 -40l-8 -6q-81 -60 -81 -149q0 -88 81 -150z" />
    <glyph glyph-name="parenrightsuperior" unicode="&#x207e;" horiz-adv-x="179" 
d="M58 622q46 -35 72 -83q28 -50 28 -106q0 -57 -27 -106q-27 -48 -73 -82l-8 -6l-29 38l8 6q81 61 81 150q0 90 -81 149l-8 6l29 40z" />
    <glyph glyph-name="zeroinferior" unicode="&#x2080;" horiz-adv-x="309" 
d="M232 159q0 42 -18.5 78t-57.5 36q-40 0 -59 -35.5t-19 -78.5t19 -78t59 -35q39 0 57.5 35.5t18.5 77.5zM21 159q0 66 36 117t99 51t97.5 -51t34.5 -117t-34 -116.5t-98 -50.5t-99.5 50t-35.5 117z" />
    <glyph glyph-name="oneinferior" unicode="&#x2081;" horiz-adv-x="175" 
d="M144 323v-323h-59v262l-51 -28l-13 54l64 35h59z" />
    <glyph glyph-name="twoinferior" unicode="&#x2082;" horiz-adv-x="261" 
d="M123 327q45 0 78 -27t33 -75q0 -27 -20 -51t-44.5 -39.5t-47.5 -37t-27 -41.5h145v-56h-218v25q0 42 23.5 75.5t51 50t51 36t23.5 38.5q0 46 -56 46q-44 0 -72 -30l-22 45q34 41 102 41z" />
    <glyph glyph-name="threeinferior" unicode="&#x2083;" horiz-adv-x="265" 
d="M21 31l23 43q3 -2 10.5 -6t11 -6t10 -5.5t10.5 -5t10 -3t12 -2.5t12 -1q26 0 45.5 14t19.5 39q0 18 -9 28.5t-27 14.5t-29.5 5t-32.5 1h-7v44l70 78h-113v52h190v-47l-67 -78q38 -7 61 -33.5t23 -64.5q0 -48 -35 -77.5t-84 -29.5q-58 0 -104 40z" />
    <glyph glyph-name="fourinferior" unicode="&#x2084;" horiz-adv-x="294" 
d="M165 242l-78 -108h78v108zM223 81v-81h-58v81h-144v44l140 196h62v-187h50v-53h-50z" />
    <glyph glyph-name="fiveinferior" unicode="&#x2085;" horiz-adv-x="272" 
d="M21 27l25 47q46 -28 75 -28q25 0 42.5 16.5t17.5 41.5q0 14 -5 24.5t-15 16.5t-20 9.5t-25.5 4.5t-26 1t-26 -0.5t-21.5 -0.5l5 162h169v-52h-119l-2 -58q67 0 106.5 -23t39.5 -85q0 -49 -34.5 -80.5t-83.5 -31.5q-53 0 -102 36z" />
    <glyph glyph-name="sixinferior" unicode="&#x2086;" horiz-adv-x="268" 
d="M78 98q0 -24 16.5 -40.5t40.5 -16.5q25 0 41.5 16.5t16.5 40.5q0 25 -16.5 42t-41.5 17q-24 0 -40.5 -17t-16.5 -42zM21 99q0 11 3 24t11 30.5t12 25.5t16 30t13 23q15 29 34 58t22 35h62l-68 -123q6 3 20 3q44 0 72.5 -30t28.5 -75q0 -49 -31.5 -79.5t-80.5 -30.5
t-81.5 30t-32.5 79z" />
    <glyph glyph-name="seveninferior" unicode="&#x2087;" horiz-adv-x="236" 
d="M215 325v-38v-2l-123 -285h-66l122 274h-127v51h194z" />
    <glyph glyph-name="eightinferior" unicode="&#x2088;" horiz-adv-x="261" 
d="M75 96q0 -23 16.5 -39t39.5 -16t39 16t16 39q0 21 -16.5 38t-38.5 17t-39 -17t-17 -38zM131 279q-17 0 -28.5 -11.5t-11.5 -28.5q0 -16 11.5 -27t28.5 -11q16 0 27.5 11t11.5 27q0 17 -11.5 28.5t-27.5 11.5zM21 94q0 56 46 86q-28 23 -28 62q0 37 26.5 61.5t64.5 24.5
t65 -24t27 -61q0 -39 -29 -63q47 -29 47 -86q0 -46 -32 -74.5t-78 -28.5t-77.5 28.5t-31.5 74.5z" />
    <glyph glyph-name="nineinferior" unicode="&#x2089;" horiz-adv-x="266" 
d="M189 225q0 24 -16 41t-40 17t-40.5 -17t-16.5 -41t16.5 -41.5t40.5 -17.5t40 17.5t16 41.5zM245 225q0 -50 -70 -159l-39 -67h-64l68 122q-6 -3 -18 -3q-43 0 -72 31.5t-29 75.5q0 48 32 78t80 30t80 -30.5t32 -77.5z" />
    <glyph glyph-name="parenleftinferior" unicode="&#x208d;" horiz-adv-x="179" 
d="M150 15l8 -6l-29 -38l-8 6q-45 32 -72 82q-28 51 -28 106q0 53 28 106q29 50 72 83l8 6l29 -40l-8 -6q-81 -60 -81 -149q0 -88 81 -150z" />
    <glyph glyph-name="parenrightinferior" unicode="&#x208e;" horiz-adv-x="179" 
d="M58 358q47 -36 72 -83q28 -50 28 -106q0 -57 -27 -106q-27 -48 -73 -82l-8 -6l-29 38l8 6q81 61 81 150t-81 150l-8 6l29 39z" />
    <glyph glyph-name="franc" unicode="&#x20a3;" horiz-adv-x="509" 
d="M442 540h-291v-174h225v-72h-225v-115h141v-61h-141v-118h-76v118h-60v61h60v433h367v-72z" />
    <glyph glyph-name="lira" unicode="&#x20a4;" horiz-adv-x="497" 
d="M334 554q-37 0 -63 -21.5t-38 -56.5t-17.5 -67.5t-5.5 -67.5h132v-55h-132q-1 -45 -19 -122.5t-42 -94.5h253v-67h-368v67h12q42 0 66 80t24 137h-97v55h97q-1 49 8.5 96t31 90t61 69t92.5 26q79 0 123 -48l-28 -53q-40 33 -90 33z" />
    <glyph glyph-name="Euro" unicode="&#x20ac;" horiz-adv-x="637" 
d="M393 70q36 0 74.5 14.5t65.5 39.5l35 -73q-32 -30 -82.5 -46t-98.5 -16q-104 0 -184.5 65t-105.5 167h-82v47h75q-2 13 -2 38q0 18 2 28h-75v47h81q23 106 104.5 172.5t188.5 66.5q48 0 98.5 -17t82.5 -47l-36 -72q-26 24 -65.5 39t-74.5 15q-73 0 -129 -43t-77 -114h197
v-47h-208q-2 -10 -2 -29t3 -37h207v-47h-195q22 -68 77 -109.5t126 -41.5z" />
    <glyph glyph-name="afii61352" unicode="&#x2116;" horiz-adv-x="913" 
d="M433 611h86v-612h-88l-270 460v-460h-85v612h87l270 -461v461zM854 277v-59h-243v59h243zM729 576q54 0 92 -37t38 -91q0 -55 -37.5 -93t-92.5 -38t-93 37.5t-38 93.5q0 54 38.5 91t92.5 37zM728 522q-31 0 -53 -21.5t-22 -52.5t22 -53.5t53 -22.5q32 0 54 22t22 54
q0 31 -22.5 52.5t-53.5 21.5z" />
    <glyph glyph-name="minus" unicode="&#x2212;" horiz-adv-x="473" 
d="M428 269h-383v76h383v-76z" />
    <glyph glyph-name="uni2215" unicode="&#x2215;" horiz-adv-x="331" 
d="M319 645l-232 -670h-75l232 670h75z" />
    <glyph glyph-name="uni2219" unicode="&#x2219;" horiz-adv-x="214" 
d="M169 316q0 -26 -18.5 -44t-43.5 -18t-43.5 18t-18.5 44t18.5 44t43.5 18t43.5 -18t18.5 -44z" />
    <glyph glyph-name="radical" unicode="&#x221a;" horiz-adv-x="733" 
d="M733 771l-388 -818l-168 285h-134v69h179l116 -201l311 665h84z" />
    <glyph glyph-name="approxequal" unicode="&#x2248;" horiz-adv-x="449" 
d="M100 324l-55 30q43 78 116 78q22 0 62 -15t61 -15q42 0 58 33l59 -31q-39 -71 -107 -71q-22 0 -62.5 16t-62.5 16q-46 0 -69 -41zM102 161l-55 30q43 78 117 78q22 0 61 -15t61 -15q41 0 59 33l59 -30q-41 -71 -108 -71q-22 0 -62.5 15.5t-62.5 15.5q-46 0 -69 -41z" />
    <glyph glyph-name="notequal" unicode="&#x2260;" horiz-adv-x="475" 
d="M387 640l-63 -175h104v-76h-131l-46 -129h179v-75h-206l-75 -210h-59l75 210h-118v75h145l46 129h-193v76h220l63 175h59z" />
    <glyph glyph-name="lessequal" unicode="&#x2264;" horiz-adv-x="455" 
d="M410 41h-365v76h365v-76zM410 195l-365 123v77l365 123v-73l-271 -88l271 -87v-75z" />
    <glyph glyph-name="greaterequal" unicode="&#x2265;" horiz-adv-x="455" 
d="M45 117h365v-76h-365v76zM410 318l-365 -123v75l271 87l-271 88v73l365 -123v-77z" />
    <glyph glyph-name="triangle" unicode="&#x25b3;" horiz-adv-x="253" 
d="M235 291l-217 -136v273z" />
    <glyph glyph-name="circle" unicode="&#x25cb;" horiz-adv-x="292" 
d="M45 291q0 41 30 70.5t71 29.5t71 -29.5t30 -70.5q0 -42 -30 -71.5t-71 -29.5t-71 29.5t-30 71.5z" />
    <glyph glyph-name="f_f_i" unicode="&#xfb03;" horiz-adv-x="780" 
d="M704 514v-514h-80v443h-153v-443h-79v443h-72h-154v-443h-79v443h-72v71h72q0 79 43 138t119 59q56 0 96 -29l-26 -56q-25 14 -57 14q-49 0 -72 -37t-23 -89h153h72q0 79 42.5 138t118.5 59q58 0 96 -29l-26 -56q-24 14 -57 14q-48 0 -71 -37t-23 -89h152h1h79z" />
    <glyph glyph-name="A.sc" horiz-adv-x="540" 
d="M362 135h-183l-46 -135h-83l175 515h90l175 -515h-83zM341 206l-71 215l-71 -215h142z" />
    <glyph glyph-name="AE.001" horiz-adv-x="675" 
d="M267 204v217l-71 -217h71zM599 444h-257v-142h206v-64h-206v-167h257v-71h-332v135h-91l-46 -135h-80l174 515h375v-71z" />
    <glyph glyph-name="AEacute.001" horiz-adv-x="675" 
d="M268 204v217l-72 -217h72zM599 444h-257v-142h207v-64h-207v-167h257v-71h-331v135h-91l-46 -135h-81l175 515h374v-71zM374 592h-69l45 114h86z" />
    <glyph glyph-name="Aacute.001" horiz-adv-x="537" 
d="M196 204h146l-73 221zM312 515l175 -515h-80l-46 135h-185l-46 -135h-80l174 515h88zM314 615h-69l44 114h87z" />
    <glyph glyph-name="Abreve.001" horiz-adv-x="535" 
d="M407 0l-46 136h-187l-46 -136h-78l174 514h87l174 -514h-78zM193 203h149l-75 226zM311 679h54q0 -41 -27 -68.5t-68 -27.5q-42 0 -69 27t-27 69h54q1 -20 11.5 -33.5t30.5 -13.5q18 0 30.5 14.5t10.5 32.5z" />
    <glyph glyph-name="Acircumflex.001" horiz-adv-x="535" 
d="M407 0l-46 136h-187l-46 -136h-78l174 514h87l174 -514h-78zM193 203h149l-75 226zM234 589h-57l54 121h77l54 -121h-57l-36 73z" />
    <glyph glyph-name="Adieresis.001" horiz-adv-x="535" 
d="M407 0l-46 136h-187l-46 -136h-78l174 514h87l174 -514h-78zM193 203h149l-75 226zM405 634q0 -19 -13.5 -32t-32.5 -13t-32 13t-13 32t13.5 32t31.5 13q19 0 32.5 -13t13.5 -32zM224 634q0 -19 -13 -32t-32 -13t-32 13t-13 32q0 18 13 31.5t32 13.5q18 0 31.5 -13
t13.5 -32z" />
    <glyph glyph-name="Agrave.001" horiz-adv-x="534" 
d="M406 0l-46 136h-186l-46 -136h-78l174 514h86l174 -514h-78zM193 203h148l-74 226zM169 704h87l44 -114h-69z" />
    <glyph glyph-name="Amacron.001" horiz-adv-x="535" 
d="M407 0l-46 136h-187l-46 -136h-78l174 514h87l174 -514h-78zM193 203h149l-75 226zM442 601h-346v56h346v-56z" />
    <glyph glyph-name="Aogonek.001" horiz-adv-x="504" 
d="M515 -80l19 -36q-20 -20 -56 -20q-21 0 -39 9t-29.5 26t-11.5 38q0 17 3.5 30t8 20t10.5 13h-13l-46 135h-184l-46 -136h-81l175 515h88l174 -515q-34 -19 -34 -52q0 -38 34 -38q15 0 28 11zM196 204h146l-73 220z" />
    <glyph glyph-name="Aring.001" horiz-adv-x="535" 
d="M407 0l-46 136h-187l-46 -136h-78l174 514h87l174 -514h-78zM193 203h149l-75 226zM230 638q0 -15 11.5 -27t26.5 -12q16 0 28 11.5t12 27.5t-12 27t-28 11q-15 0 -26.5 -11t-11.5 -27zM348 638q0 -33 -23 -56t-56 -23t-56 23t-23 56t23.5 55.5t55.5 22.5t55.5 -23
t23.5 -55z" />
    <glyph glyph-name="Atilde.001" horiz-adv-x="535" 
d="M407 0l-46 136h-187l-46 -136h-78l174 514h87l174 -514h-78zM193 203h149l-75 226zM106 622q12 30 42.5 48.5t63.5 18.5q20 0 56 -13t56 -13q36 0 51 28l57 -29q-10 -27 -35 -45.5t-54 -18.5q-21 0 -60 14t-60 14q-22 0 -35 -8.5t-29 -28.5z" />
    <glyph glyph-name="B.sc" horiz-adv-x="509" 
d="M294 0h-218v515h182q59 0 99.5 -36.5t40.5 -94.5q0 -57 -43 -98q40 -15 63.5 -51.5t23.5 -79.5q0 -64 -41.5 -109.5t-106.5 -45.5zM153 450v-142h103q31 0 51.5 22t20.5 53q0 30 -20.5 48.5t-51.5 18.5h-103zM284 243h-131v-180h131q34 0 56.5 28.5t22.5 62.5t-23 61.5
t-56 27.5z" />
    <glyph glyph-name="C.sc" horiz-adv-x="535" 
d="M443 112l32 -65l-1 -1q-25 -25 -69 -39.5t-84 -14.5q-110 0 -182 78.5t-72 187.5t72 186.5t182 77.5q40 0 84 -14t69 -39h1l-32 -66l-2 2q-20 20 -52.5 32t-62.5 12q-79 0 -129.5 -56.5t-50.5 -134.5q0 -80 50 -136t130 -56q29 0 62 12.5t53 31.5z" />
    <glyph glyph-name="Cacute.001" horiz-adv-x="535" 
d="M442 109l33 -63q-58 -54 -154 -54q-110 0 -182 77.5t-72 188.5q0 110 72.5 187.5t181.5 77.5q39 0 85.5 -15t68.5 -39l-33 -64q-49 46 -116 46q-79 0 -130.5 -56.5t-51.5 -136.5q0 -81 51.5 -137.5t130.5 -56.5q29 0 64 13t52 32zM338 592h-69l45 114h86z" />
    <glyph glyph-name="Ccaron.001" horiz-adv-x="535" 
d="M442 109l33 -63q-58 -54 -154 -54q-110 0 -182 77.5t-72 188.5q0 110 72.5 187.5t181.5 77.5q39 0 85.5 -15t68.5 -39l-33 -64q-49 46 -116 46q-79 0 -130.5 -56.5t-51.5 -136.5q0 -81 51.5 -137.5t130.5 -56.5q29 0 64 13t52 32zM301 634l39 77h53l-53 -122h-78l-54 122
h54z" />
    <glyph glyph-name="Ccedilla.001" horiz-adv-x="534" 
d="M253 1q-83 22 -134.5 93.5t-51.5 163.5q0 110 72.5 187.5t181.5 77.5q38 0 85 -15t68 -39l-32 -64q-49 46 -116 46q-53 0 -95 -26.5t-64.5 -70.5t-22.5 -96q0 -81 51 -137.5t131 -56.5q28 0 63.5 13t52.5 32l32 -63q-28 -27 -69.5 -40.5t-83.5 -13.5h-4l-43 -111l-74 5z
" />
    <glyph glyph-name="Ccircumflex.001" horiz-adv-x="535" 
d="M442 109l33 -63q-58 -54 -154 -54q-110 0 -182 77.5t-72 188.5q0 110 72.5 187.5t181.5 77.5q39 0 85.5 -15t68.5 -39l-33 -64q-49 46 -116 46q-79 0 -130.5 -56.5t-51.5 -136.5q0 -81 51.5 -137.5t130.5 -56.5q29 0 64 13t52 32zM309 662l-35 -73h-57l54 121h77l54 -121
h-57z" />
    <glyph glyph-name="Cdotaccent.001" horiz-adv-x="535" 
d="M442 109l33 -63q-58 -54 -154 -54q-110 0 -182 77.5t-72 188.5q0 110 72.5 187.5t181.5 77.5q39 0 85.5 -15t68.5 -39l-33 -64q-49 46 -116 46q-79 0 -130.5 -56.5t-51.5 -136.5q0 -81 51.5 -137.5t130.5 -56.5q29 0 64 13t52 32zM344 634q0 -20 -15 -35.5t-36 -15.5
q-20 0 -35 15t-15 36q0 20 15 35.5t35 15.5q21 0 36 -15.5t15 -35.5z" />
    <glyph glyph-name="D.sc" horiz-adv-x="532" 
d="M235 0h-159v515h159q107 0 168.5 -75t61.5 -182q0 -104 -63.5 -181t-166.5 -77zM245 442q-11 1 -34 1h-58v-371h82q68 0 107.5 58.5t39.5 129.5t-34.5 123t-102.5 59z" />
    <glyph glyph-name="DEL" horiz-adv-x="513" 
d="M468 200h-423v76h423v-76z" />
    <glyph glyph-name="Dcaron.001" horiz-adv-x="530" 
d="M383 260q0 70 -36 124.5t-103 58.5q-11 1 -34 1h-60v-373h60q23 0 34 1q65 5 102 61.5t37 126.5zM463 257q0 -103 -64.5 -180t-165.5 -77h-157v515h157q105 0 167.5 -75t62.5 -183zM237 634l39 77h53l-54 -122h-77l-54 122h54z" />
    <glyph glyph-name="E.sc" horiz-adv-x="485" 
d="M153 442v-138h206v-68h-206v-163h256v-73h-333v515h333v-73h-256z" />
    <glyph glyph-name="Eacute.001" horiz-adv-x="483" 
d="M76 515h331v-71h-257v-142h207v-65h-207v-166h257v-71h-331v515zM327 710l-62 -114h-69l44 114h87z" />
    <glyph glyph-name="Ebreve.001" horiz-adv-x="483" 
d="M407 444h-257v-142h207v-65h-207v-166h257v-71h-331v515h331v-71zM288 678h53q0 -42 -26 -69t-68 -27t-69.5 27t-27.5 69h55q0 -20 10.5 -33.5t30.5 -13.5q19 0 30.5 14t11.5 33z" />
    <glyph glyph-name="Ecaron.001" horiz-adv-x="483" 
d="M407 444h-257v-142h207v-65h-207v-166h257v-71h-331v515h331v-71zM246 635l39 76h53l-53 -121h-77l-54 121h53z" />
    <glyph glyph-name="Ecircumflex.001" horiz-adv-x="483" 
d="M407 444h-257v-142h207v-65h-207v-166h257v-71h-331v515h331v-71zM250 662l-35 -73h-57l54 122h77l53 -122h-56z" />
    <glyph glyph-name="Edieresis.001" horiz-adv-x="483" 
d="M407 444h-257v-142h207v-65h-207v-166h257v-71h-331v515h331v-71zM382 631q0 -19 -13 -31.5t-32 -12.5t-32.5 12.5t-13.5 31.5t13.5 32.5t32.5 13.5t32 -13.5t13 -32.5zM202 631q0 -19 -13.5 -31.5t-32.5 -12.5q-18 0 -31.5 13t-13.5 31q0 19 13 32.5t32 13.5t32.5 -13.5
t13.5 -32.5z" />
    <glyph glyph-name="Edotaccent.001" horiz-adv-x="483" 
d="M407 444h-257v-142h207v-65h-207v-166h257v-71h-331v515h331v-71zM291 635q0 -21 -15.5 -36t-35.5 -15q-21 0 -36 15t-15 36q0 20 15 35t36 15q20 0 35.5 -15t15.5 -35z" />
    <glyph glyph-name="Egrave.001" horiz-adv-x="483" 
d="M76 515h331v-71h-257v-142h207v-65h-207v-166h257v-71h-331v515zM237 708l45 -115h-68l-63 115h86z" />
    <glyph glyph-name="Emacron.001" horiz-adv-x="498" 
d="M408 444h-257v-142h206v-65h-206v-166h257v-71h-331v515h331v-71zM422 658v-56h-346v56h346z" />
    <glyph glyph-name="Eogonek.001" horiz-adv-x="410" 
d="M409 -91l21 -37q-20 -19 -57 -19q-34 0 -59.5 21.5t-25.5 58.5q0 42 27 67h-239v515h331v-71h-257v-142h207v-65h-207v-166h257v-71q-24 -3 -43.5 -18t-19.5 -47q0 -17 10.5 -27.5t27.5 -10.5q13 0 27 12z" />
    <glyph glyph-name="Euro.001" horiz-adv-x="367" 
d="M220 281q-56 0 -100.5 33t-60.5 87h-49v37h43v28h-43v36h48q15 56 59.5 91t102.5 35q57 0 103 -37q-18 -36 -26 -45q-33 31 -74 31q-36 0 -64.5 -20.5t-40.5 -54.5h113v-36h-123v-11v-17h123v-37h-111q13 -32 41 -50.5t62 -18.5q41 0 74 30h2l24 -44q-46 -37 -103 -37z
" />
    <glyph glyph-name="F.sc" horiz-adv-x="479" 
d="M153 307h199v-68h-199v-239h-77v516h336v-67h-259v-142z" />
    <glyph glyph-name="G.sc" horiz-adv-x="554" 
d="M67 258q0 109 74.5 187t185.5 78q44 0 91.5 -15t74.5 -42h1l-33 -67l-2 2q-21 21 -55.5 35t-64.5 14q-80 0 -134.5 -57t-54.5 -135q0 -83 53 -138t137 -55q51 0 77 32v161h77v-199q0 -3 -4 -7q0 -1 -2 -3q-1 0 -3 -2q-27 -26 -72 -41t-86 -15q-113 0 -186.5 78t-73.5 189
z" />
    <glyph glyph-name="Gbreve.001" horiz-adv-x="550" 
d="M296 640q20 0 30.5 13.5t10.5 33.5h54q0 -42 -26.5 -69t-68.5 -27t-69 27.5t-27 68.5h55q0 -20 10.5 -33.5t30.5 -13.5zM490 255v-198q-17 -29 -70.5 -47.5t-94.5 -18.5q-111 0 -184.5 77t-73.5 189q0 110 74.5 187.5t183.5 77.5q45 0 90.5 -14.5t74.5 -41.5l-31 -62
q-23 21 -57 35t-65 14q-80 0 -136 -57.5t-56 -138.5q0 -85 54 -140.5t139 -55.5q54 0 80 33v161h72z" />
    <glyph glyph-name="Gcircumflex.001" horiz-adv-x="550" 
d="M297 662l-35 -73h-58l54 121h78l53 -121h-56zM490 255v-198q-17 -29 -70.5 -47.5t-94.5 -18.5q-111 0 -184.5 77t-73.5 189q0 110 74.5 187.5t183.5 77.5q45 0 90.5 -14.5t74.5 -41.5l-31 -62q-23 21 -57 35t-65 14q-80 0 -136 -57.5t-56 -138.5q0 -85 54 -140.5
t139 -55.5q54 0 80 33v161h72z" />
    <glyph glyph-name="Gcommaaccent.001" horiz-adv-x="550" 
d="M290 -238h-1l-19 38q3 2 9.5 6t9.5 6t7.5 6t6.5 7.5t4 9t3 12.5l-6 -1q-23 0 -36.5 14.5t-13.5 37.5q0 20 16 34.5t37 14.5q27 0 41.5 -22.5t14.5 -51.5q0 -32 -21.5 -68.5t-51.5 -42.5zM490 255v-198q-17 -29 -70.5 -47.5t-94.5 -18.5q-111 0 -184.5 77t-73.5 189
q0 110 74.5 187.5t183.5 77.5q45 0 90.5 -14.5t74.5 -41.5l-31 -62q-23 21 -57 35t-65 14q-80 0 -136 -57.5t-56 -138.5q0 -85 54 -140.5t139 -55.5q54 0 80 33v161h72z" />
    <glyph glyph-name="Gdotaccent.001" horiz-adv-x="550" 
d="M343 635q0 -20 -15 -35.5t-35 -15.5t-35.5 15.5t-15.5 35.5q0 21 15 36t36 15t35.5 -15t14.5 -36zM490 255v-198q-17 -29 -70.5 -47.5t-94.5 -18.5q-111 0 -184.5 77t-73.5 189q0 110 74.5 187.5t183.5 77.5q45 0 90.5 -14.5t74.5 -41.5l-31 -62q-23 21 -57 35t-65 14
q-80 0 -136 -57.5t-56 -138.5q0 -85 54 -140.5t139 -55.5q54 0 80 33v161h72z" />
    <glyph glyph-name="H.sc" horiz-adv-x="528" 
d="M452 515v-515h-77v238h-222v-238h-77v515h77v-204h222v204h77z" />
    <glyph glyph-name="Hbar.001" horiz-adv-x="637" 
d="M561 441v-54h-51v-387h-73v240h-227v-240h-72v387h-62v54h62v73h72v-73h227v73h73v-73h51zM437 308v79h-227v-79h227z" />
    <glyph glyph-name="Hcircumflex.001" horiz-adv-x="527" 
d="M376 515h75v-515h-75v238h-225v-238h-75v515h75v-206h225v206zM263 662l-35 -73h-57l54 122h77l53 -122h-56z" />
    <glyph glyph-name="I.sc" horiz-adv-x="229" 
d="M153 0h-77v515h77v-515z" />
    <glyph glyph-name="Iacute.001" horiz-adv-x="228" 
d="M151 515v-515h-75v515h75zM150 592h-69l45 114h86z" />
    <glyph glyph-name="Ibreve.001" horiz-adv-x="223" 
d="M149 515v-515h-75v515h75zM153 684h54q0 -41 -27 -68.5t-68 -27.5q-28 0 -50 12t-34 34t-12 50h54q0 -20 11 -33.5t30 -13.5q13 0 23 7t14.5 17.5t4.5 22.5z" />
    <glyph glyph-name="Icircumflex.001" horiz-adv-x="216" 
d="M145 515v-515h-74v515h74zM108 662l-35 -73h-57l53 122h78l53 -122h-56z" />
    <glyph glyph-name="Idieresis.001" horiz-adv-x="170" 
d="M122 515v-515h-74v515h74zM220 631q0 -18 -13.5 -31t-31.5 -13q-19 0 -32.5 13t-13.5 31q0 19 13.5 32.5t32.5 13.5t32 -13.5t13 -32.5zM40 631q0 -19 -13 -31.5t-32 -12.5t-32 13t-13 31q0 19 13 32.5t32 13.5t32 -13.5t13 -32.5z" />
    <glyph glyph-name="Idotaccent.001" horiz-adv-x="253" 
d="M164 515v-515h-74v515h74zM177 634q0 -20 -15 -35.5t-35 -15.5q-21 0 -36 15.5t-15 35.5q0 21 15 36t36 15q20 0 35 -15.5t15 -35.5z" />
    <glyph glyph-name="Igrave.001" horiz-adv-x="224" 
d="M148 515v-515h-75v515h75zM148 592h-69l-63 114h87z" />
    <glyph glyph-name="Imacron.001" horiz-adv-x="246" 
d="M160 515v-515h-75v515h75zM296 648v-56h-346v56h346z" />
    <glyph glyph-name="Iogonek.001" horiz-adv-x="199" 
d="M163 -82l20 -36q-23 -20 -57 -20q-33 0 -56.5 19.5t-23.5 50.5q0 37 31 68h-15v514h75v-515q-32 -17 -32 -56q0 -36 31 -36q12 0 27 11z" />
    <glyph glyph-name="Itilde.001" horiz-adv-x="227" 
d="M146 515v-515h-75v515h75zM4 581l-54 33q11 29 42 47.5t64 18.5q20 0 56.5 -13t55.5 -13q38 0 51 29l58 -29q-10 -27 -35 -46t-54 -19q-21 0 -60.5 14t-59.5 14q-23 0 -36 -8t-28 -28z" />
    <glyph glyph-name="J.sc" horiz-adv-x="400" 
d="M330 514v-262q0 -120 -19 -171q-33 -91 -132 -91q-75 0 -128 47l-1 1l33 67l2 -2q35 -35 85 -35q20 0 34.5 6.5t23.5 19.5t14.5 25.5t7.5 32.5t2.5 32.5t0.5 32.5v297h77z" />
    <glyph glyph-name="Jcircumflex.001" horiz-adv-x="399" 
d="M252 513h75v-266q0 -36 -1 -58t-5 -56.5t-14 -56t-25.5 -43.5t-42.5 -32.5t-62 -10.5q-80 0 -127 47l32 65q39 -36 86 -36q44 0 64 33.5t20 81.5v332zM291 662l-35 -73h-58l54 121h77l54 -121h-56z" />
    <glyph glyph-name="K.sc" horiz-adv-x="505" 
d="M449 0h-93l-203 246v-246h-77v515h77v-193l179 193h92l-204 -227z" />
    <glyph glyph-name="Kcommaaccent.001" horiz-adv-x="503" 
d="M218 289l229 -289h-91l-206 249v-249h-74v515h74v-196l183 196h88zM212 -238h-2l-19 38q3 2 10 6t9.5 6t7 6t6.5 7.5t4 9t3 12.5l-6 -1q-22 0 -36 14.5t-14 37.5q0 20 16.5 34.5t36.5 14.5q28 0 42.5 -22.5t14.5 -51.5q0 -32 -22 -68.5t-51 -42.5z" />
    <glyph glyph-name="L.sc" horiz-adv-x="394" 
d="M318 0h-242v515h77v-442h165v-73z" />
    <glyph glyph-name="Lacute.001" horiz-adv-x="392" 
d="M213 706l-62 -114h-69l45 114h86zM316 71v-71h-240v515h74v-444h166z" />
    <glyph glyph-name="Lcaron.001" horiz-adv-x="384" 
d="M308 71v-71h-240v515h74v-444h166zM108 634l39 76h53l-54 -121h-77l-53 121h53z" />
    <glyph glyph-name="Lcaron.2" horiz-adv-x="507" 
d="M316 71v-71h-240v515h75v-444h165zM369 450h-69l45 115h86z" />
    <glyph glyph-name="Lcommaaccent.001" horiz-adv-x="417" 
d="M341 72v-72h-265v580h76v-508h189zM228 -73q41 -13 41 -69q0 -36 -23 -74t-56 -46l-19 38q19 6 30.5 21.5t13.5 35.5q-25 -4 -42.5 11t-17.5 41q0 20 14.5 35.5t34.5 15.5q15 0 24 -9z" />
    <glyph glyph-name="Ldot.001" horiz-adv-x="422" 
d="M316 71v-71h-240v515h75v-444h165zM346 272q0 -21 -15 -36t-35 -15q-21 0 -36 15t-15 36q0 20 15 35t36 15q20 0 35 -15t15 -35z" />
    <glyph glyph-name="Lslash.001" horiz-adv-x="435" 
d="M193 70h166v-70h-240v230l-104 -65v66l104 64v219h74v-180l145 89v-64l-145 -90v-199z" />
    <glyph glyph-name="M.sc" horiz-adv-x="634" 
d="M558 0h-75v402l-165 -206l-165 205v-401h-77v515h73l169 -206l169 206h71v-515z" />
    <glyph glyph-name="N.sc" horiz-adv-x="528" 
d="M452 0h-78l-221 368v-368h-77v515h78l221 -371v371h77v-515z" />
    <glyph glyph-name="Nacute.001" horiz-adv-x="527" 
d="M451 0h-77l-221 368v-368h-77v515h77l222 -372v372h76v-515zM221 590l46 116h89l-64 -116h-71z" />
    <glyph glyph-name="Ncaron.001" horiz-adv-x="527" 
d="M451 0h-77l-221 368v-368h-77v515h77l222 -372v372h76v-515zM304 710h55l-55 -123h-78l-54 123h56l38 -74z" />
    <glyph glyph-name="Ncommaaccent.001" horiz-adv-x="526" 
d="M450 515v-515h-76l-224 372v-372h-74v515h76l224 -376v376h74zM240 -238h-1l-18 38q3 2 9.5 6t9 6t7 6t6 7.5t3.5 9t3 12.5l-5 -1q-22 0 -36 14.5t-14 37.5q0 20 16.5 34.5t37.5 14.5q27 0 41 -22.5t14 -51.5q0 -32 -21.5 -68.5t-51.5 -42.5z" />
    <glyph glyph-name="Ntilde.001" horiz-adv-x="526" 
d="M450 515v-515h-76l-224 372v-372h-74v515h76l224 -376v376h74zM160 590l-54 33q12 31 42 49t64 18q20 0 56 -13t56 -13q36 0 51 29l58 -29q-11 -28 -35.5 -46.5t-54.5 -18.5q-21 0 -60 14t-59 14q-23 0 -36 -8.5t-28 -28.5z" />
    <glyph glyph-name="O.sc" horiz-adv-x="592" 
d="M297 -8q-108 0 -169 78.5t-61 187.5q0 107 61.5 186t168.5 79q106 0 167 -79t61 -186q0 -109 -60.5 -187.5t-167.5 -78.5zM297 60q75 0 110.5 59t35.5 139q0 48 -13.5 90.5t-48 74t-84.5 31.5q-74 0 -110 -59t-36 -137q0 -50 13 -92.5t47 -74t86 -31.5z" />
    <glyph glyph-name="OE.001" horiz-adv-x="857" 
d="M295 462q-74 0 -110.5 -60t-36.5 -139q0 -80 36.5 -139.5t110.5 -59.5q76 0 112 59t36 140q0 80 -36.5 139.5t-111.5 59.5zM781 444h-258v-142h207v-64h-207v-167h258v-71h-332v76q-58 -79 -154 -79q-106 0 -167 78.5t-61 187.5t61 187.5t167 78.5q96 0 154 -81v67h332
v-71z" />
    <glyph glyph-name="Oacute.001" horiz-adv-x="591" 
d="M296 456q-51 0 -86 -31.5t-49 -74.5t-14 -93q0 -80 37 -139.5t112 -59.5q76 0 111.5 59t35.5 140q0 80 -36.5 139.5t-110.5 59.5zM296 523q104 0 166 -79.5t62 -186.5q0 -109 -61 -187t-167 -78t-167.5 78t-61.5 187q0 107 62.5 186.5t166.5 79.5zM322 592h-69l45 114h87
z" />
    <glyph glyph-name="Obreve.001" horiz-adv-x="591" 
d="M296 456q-51 0 -86 -31.5t-49 -74.5t-14 -93q0 -80 36.5 -139.5t112.5 -59.5t111.5 59t35.5 140q0 80 -36.5 139.5t-110.5 59.5zM296 523q104 0 166 -79.5t62 -186.5q0 -109 -61 -187t-167 -78q-107 0 -168 78t-61 187q0 107 62.5 186.5t166.5 79.5zM339 683h53
q0 -42 -26.5 -69t-68.5 -27t-69 27t-26 69h54q0 -20 10.5 -33.5t30.5 -13.5q18 0 30.5 14.5t11.5 32.5z" />
    <glyph glyph-name="Ocircumflex.001" horiz-adv-x="591" 
d="M296 456q-51 0 -86 -31.5t-49 -74.5t-14 -93q0 -80 37 -139.5t112 -59.5q76 0 111.5 59t35.5 140q0 80 -36.5 139.5t-110.5 59.5zM296 523q104 0 166 -79.5t62 -186.5q0 -109 -61 -187t-167 -78t-167.5 78t-61.5 187q0 107 62.5 186.5t166.5 79.5zM297 654l-35 -73h-57
l54 121h76l54 -121h-56z" />
    <glyph glyph-name="Odieresis.001" horiz-adv-x="591" 
d="M296 456q-51 0 -86 -31.5t-48.5 -74.5t-13.5 -93q0 -80 36.5 -139.5t111.5 -59.5q76 0 112 59t36 140q0 50 -13.5 93t-48.5 74.5t-86 31.5zM296 523q104 0 166 -79.5t62 -186.5q0 -109 -60.5 -187t-167.5 -78q-106 0 -167.5 78t-61.5 187q0 107 62.5 186.5t166.5 79.5z
M432 638q0 -19 -13 -32.5t-32 -13.5t-32.5 13.5t-13.5 32.5t13.5 32t32.5 13t32 -13t13 -32zM252 638q0 -19 -13.5 -32.5t-32.5 -13.5t-32 13.5t-13 32.5q0 18 13 31.5t32 13.5t32.5 -13t13.5 -32z" />
    <glyph glyph-name="Ograve.001" horiz-adv-x="591" 
d="M296 456q-51 0 -86 -31.5t-49 -74.5t-14 -93q0 -80 37 -139.5t112 -59.5q76 0 111.5 59t35.5 140q0 80 -36.5 139.5t-110.5 59.5zM296 523q104 0 166 -79.5t62 -186.5q0 -109 -61 -187t-167 -78t-167.5 78t-61.5 187q0 107 62.5 186.5t166.5 79.5zM208 707h86l46 -114
h-69z" />
    <glyph glyph-name="Ohungarumlaut.001" horiz-adv-x="591" 
d="M296 456q-51 0 -86 -31.5t-49 -74.5t-14 -93q0 -80 36.5 -139.5t112.5 -59.5t111.5 59t35.5 140q0 80 -36.5 139.5t-110.5 59.5zM296 523q104 0 166 -79.5t62 -186.5q0 -109 -61 -187t-167 -78q-107 0 -168 78t-61 187q0 107 62.5 186.5t166.5 79.5zM407 592h-69l41 114
h90zM242 592h-68l41 114h90z" />
    <glyph glyph-name="Omacron.001" horiz-adv-x="591" 
d="M296 456q-51 0 -86 -31.5t-49 -74.5t-14 -93q0 -80 37 -139.5t112 -59.5q76 0 111.5 59t35.5 140q0 80 -36.5 139.5t-110.5 59.5zM296 523q104 0 166 -79.5t62 -186.5q0 -109 -61 -187t-167 -78t-167.5 78t-61.5 187q0 107 62.5 186.5t166.5 79.5zM468 658v-56h-346v56
h346z" />
    <glyph glyph-name="Oslash.001" horiz-adv-x="591" 
d="M428 479q48 -37 72 -97t24 -126q0 -109 -61 -187t-167 -78q-46 0 -85 19l-34 -73h-56l44 96q-49 37 -73.5 97t-24.5 126q0 107 62.5 186.5t166.5 79.5q46 0 85 -18l36 77h58zM147 256q0 -97 49 -153l158 339q-26 13 -58 13q-51 0 -86 -31.5t-49 -74.5t-14 -93zM296 57
q52 0 86.5 31.5t47.5 74t13 93.5q0 96 -48 149l-156 -333q25 -15 57 -15z" />
    <glyph glyph-name="Otilde.001" horiz-adv-x="591" 
d="M296 522q104 0 166 -79.5t62 -186.5q0 -109 -61 -187t-167 -78t-167.5 78t-61.5 187q0 107 62.5 186.5t166.5 79.5zM296 57q52 0 86.5 31.5t48 74t13.5 93.5q0 50 -13.5 93t-48.5 74.5t-86 31.5t-86 -31.5t-48.5 -74.5t-13.5 -93q0 -80 36.5 -139.5t111.5 -59.5zM186 587
l-54 33q12 29 43 48t63 19q20 0 57 -13t56 -13q36 0 51 28l57 -29q-10 -27 -35 -45.5t-54 -18.5q-21 0 -60 14t-60 14q-22 0 -35.5 -8.5t-28.5 -28.5z" />
    <glyph glyph-name="P.sc" horiz-adv-x="503" 
d="M307 191q-23 -4 -70 -4q-28 0 -84 2v-189h-77v515h214q61 0 103.5 -49.5t42.5 -110.5q0 -58 -36 -106.5t-93 -57.5zM283 443h-130v-182h130q34 0 57 27.5t23 62.5q0 34 -23.5 63t-56.5 29z" />
    <glyph glyph-name="Q.sc" horiz-adv-x="591" 
d="M398 16l104 -121h-100l-86 101q-15 -3 -30 -3q-70 0 -121.5 40.5t-74.5 99.5t-23 126q0 106 61.5 185.5t167.5 79.5t167 -79t61 -186q0 -79 -30.5 -145t-95.5 -98zM440 259q0 76 -36 134t-108 58t-108 -58t-36 -134q0 -49 13 -91t47 -73t84 -31t84 31t47 73t13 91z" />
    <glyph glyph-name="R.sc" horiz-adv-x="537" 
d="M254 216h-102v-216h-76v515h217q62 0 103 -43.5t41 -104.5q0 -48 -28.5 -89.5t-73.5 -50.5l135 -227h-90zM152 285h134q31 0 53 24.5t22 56.5q0 80 -94 80h-115v-161z" />
    <glyph glyph-name="Racute.001" horiz-adv-x="535" 
d="M151 450v-170h117q43 0 68.5 22t25.5 64t-26 63t-69 21h-116zM381 0l-126 217h-104v-217h-75v515h216q62 0 103 -43t41 -105q0 -48 -28.5 -89.5t-74.5 -50.5l135 -227h-87zM276 592h-69l45 114h87z" />
    <glyph glyph-name="Rcaron.001" horiz-adv-x="535" 
d="M151 450v-170h117q43 0 68.5 22t25.5 64t-26 63t-69 21h-116zM381 0l-126 217h-104v-217h-75v515h216q62 0 103 -43t41 -105q0 -48 -28.5 -89.5t-74.5 -50.5l135 -227h-87zM236 634l38 76h53l-53 -121h-77l-54 121h53z" />
    <glyph glyph-name="Rcommaaccent.001" horiz-adv-x="535" 
d="M151 450v-170h117q43 0 68.5 22t25.5 64t-26 63t-69 21h-116zM381 0l-126 217h-104v-217h-75v515h216q62 0 103 -43t41 -105q0 -48 -28.5 -89.5t-74.5 -50.5l135 -227h-87zM231 -238h-1l-19 38q3 2 9.5 6t9.5 6t7.5 6t6.5 7.5t4 9t3 12.5l-6 -1q-22 0 -36 14.5t-14 37.5
q0 20 16 34.5t37 14.5q27 0 41.5 -22.5t14.5 -51.5q0 -32 -21.5 -68.5t-51.5 -42.5z" />
    <glyph glyph-name="S.sc" horiz-adv-x="481" 
d="M232 64q44 0 72.5 23t28.5 65q0 31 -38 54q-7 5 -38 20q-30 12 -45 19q-57 24 -89.5 54.5t-32.5 81.5q0 70 51 106t124 36q90 0 139 -45h1l-26 -61l-2 2q-40 34 -105 34q-40 0 -71.5 -18.5t-31.5 -55.5q0 -29 38 -50q11 -6 39 -18q23 -8 45 -17q57 -22 90 -53.5t33 -87.5
q0 -72 -50.5 -116.5t-124.5 -44.5q-44 0 -91.5 14t-79.5 39h-1l34 68l2 -1q23 -17 62.5 -32.5t66.5 -15.5z" />
    <glyph glyph-name="Sacute.001" horiz-adv-x="480" 
d="M67 45l33 66q5 -2 24 -12.5t27 -14t24 -10t29 -9t27 -2.5q43 0 73.5 22t30.5 63q0 30 -25 50.5t-61 34t-72.5 29t-61.5 45.5t-25 74q0 70 51 106t124 36q37 0 76.5 -11t60.5 -34l-24 -58q-64 35 -106 35q-41 0 -73.5 -19t-32.5 -57q0 -26 25.5 -43.5t62 -30t72.5 -28
t61.5 -47t25.5 -78.5q0 -72 -51.5 -116t-124.5 -44q-42 0 -93 14.5t-77 38.5zM274 584h-69l45 114h87z" />
    <glyph glyph-name="Scaron.001" horiz-adv-x="480" 
d="M67 45l33 66q5 -2 24 -12.5t27 -14t24 -10t29 -9t27 -2.5q43 0 73.5 22t30.5 63q0 30 -25 50.5t-61 34t-72.5 29t-61.5 45.5t-25 74q0 70 51 106t124 36q37 0 76.5 -11t60.5 -34l-24 -58q-64 35 -106 35q-41 0 -73.5 -19t-32.5 -57q0 -26 25.5 -43.5t62 -30t72.5 -28
t61.5 -47t25.5 -78.5q0 -72 -51.5 -116t-124.5 -44q-42 0 -93 14.5t-77 38.5zM247 634l38 77h53l-53 -122h-77l-53 122h53z" />
    <glyph glyph-name="Scedilla.001" horiz-adv-x="480" 
d="M200 -5q-92 12 -133 50l33 66q6 -3 20 -10.5t21.5 -11.5t21 -9.5t23 -8.5t21.5 -5.5t24 -2.5q43 0 73.5 22t30.5 63q0 26 -18 45t-45.5 29.5t-59 24t-59 27.5t-45.5 42t-18 65q0 70 51 106t124 36q37 0 76.5 -11t60.5 -34l-24 -58q-17 9 -26.5 14t-23.5 10.5t-27.5 8
t-28.5 2.5q-25 0 -48 -7t-40.5 -25t-17.5 -44q0 -22 18.5 -38.5t45.5 -25.5t59.5 -22.5t59.5 -28.5t45.5 -44t18.5 -68q0 -22 -5.5 -42t-15 -36.5t-23.5 -30.5t-30.5 -24t-35.5 -16.5t-40 -8.5l-38 -113l-81 5z" />
    <glyph glyph-name="Scircumflex.001" horiz-adv-x="480" 
d="M67 45l33 66q5 -2 24 -12.5t27 -14t24 -10t29 -9t27 -2.5q43 0 73.5 22t30.5 63q0 30 -25 50.5t-61 34t-72.5 29t-61.5 45.5t-25 74q0 70 51 106t124 36q38 0 77 -11t60 -34l-24 -58q-64 35 -105 35t-74 -19t-33 -57q0 -26 25.5 -43.5t62 -30t72.5 -28t61.5 -47
t25.5 -78.5q0 -72 -51.5 -116t-124.5 -44q-41 0 -92 14.5t-78 38.5zM248 662l-36 -73h-56l53 122h77l53 -122h-56z" />
    <glyph glyph-name="Scommaaccent.001" horiz-adv-x="479" 
d="M67 45l33 66q6 -3 24 -12.5t26.5 -13.5t24 -10.5t29 -9t27.5 -2.5q42 0 72.5 22t30.5 63q0 30 -25 50.5t-61 34t-72.5 29t-61.5 45.5t-25 74q0 70 51.5 106t124.5 36q37 0 76.5 -11t60.5 -34l-25 -58q-63 35 -105 35q-41 0 -73.5 -19t-32.5 -57q0 -26 25.5 -43.5
t61.5 -30t72 -28t61.5 -47t25.5 -78.5q0 -72 -51 -116t-124 -44q-42 0 -93 14.5t-77 38.5zM222 -238h-1l-18 38q3 2 9.5 6t9 6t7 6t6 7.5t3.5 9t3 12.5l-5 -1q-22 0 -36 14.5t-14 37.5q0 20 16.5 34.5t37.5 14.5q27 0 41 -22.5t14 -51.5q0 -32 -21.5 -68.5t-51.5 -42.5z" />
    <glyph glyph-name="T.sc" horiz-adv-x="508" 
d="M458 515v-71h-166v-444h-77v444h-165v71h408z" />
    <glyph glyph-name="Tbar.001" horiz-adv-x="507" 
d="M457 446h-166v-124h136v-56h-136v-266h-74v266h-137v56h137v124h-167v69h407v-69z" />
    <glyph glyph-name="Tcaron.001" horiz-adv-x="506" 
d="M291 446v-446h-75v446h-166v69h406v-69h-165zM253 634l39 77h53l-54 -122h-76l-54 122h53z" />
    <glyph glyph-name="Tcommaaccent.001" horiz-adv-x="506" 
d="M290 446v-446h-75v446h-165v69h406v-69h-166zM242 -239h-1l-19 39q3 2 10 6t9.5 6t7 6t6 7t3.5 8.5t3 12.5h-5q-22 0 -36 14.5t-14 36.5q0 20 16.5 35t36.5 15q27 0 41.5 -23t14.5 -51q0 -33 -21.5 -69.5t-51.5 -42.5z" />
    <glyph glyph-name="U.sc" horiz-adv-x="511" 
d="M441 515v-333q0 -81 -51.5 -135.5t-133.5 -54.5q-83 0 -134.5 54t-51.5 136v333h77v-333q0 -47 30.5 -81t78.5 -34q47 0 78.5 34t31.5 81v333h75z" />
    <glyph glyph-name="Uacute.001" horiz-adv-x="509" 
d="M439 515v-306q0 -29 -1 -44q-5 -76 -55.5 -124.5t-127.5 -48.5t-128 48t-56 125q-1 15 -1 44v306h74v-333q0 -47 32 -81.5t79 -34.5t79 34.5t32 81.5v27v306h73zM350 706l-62 -114h-69l45 114h86z" />
    <glyph glyph-name="Ubreve.001" horiz-adv-x="509" 
d="M366 515h73v-306q0 -29 -1 -44q-5 -76 -55.5 -124.5t-127.5 -48.5t-128 48t-56 125q-1 15 -1 44v305h74v-332q0 -49 31.5 -82.5t79.5 -33.5q47 0 79 34.5t32 81.5v333zM296 680h54q0 -42 -26.5 -69.5t-68.5 -27.5t-69 27.5t-26 69.5h53q1 -20 11.5 -34t30.5 -14
q19 0 30 14t11 34z" />
    <glyph glyph-name="Ucircumflex.001" horiz-adv-x="509" 
d="M366 515h73v-306q0 -29 -1 -44q-5 -76 -56 -124.5t-127 -48.5q-77 0 -128 48t-56 125q-1 15 -1 44v305h74v-332q0 -49 31.5 -82.5t79.5 -33.5q47 0 79 34.5t32 81.5v333zM255 662l-36 -73h-57l54 122h77l54 -122h-57z" />
    <glyph glyph-name="Udieresis.001" horiz-adv-x="509" 
d="M366 515h73v-306q0 -29 -1 -44q-5 -76 -55.5 -124.5t-127.5 -48.5t-128 48t-56 125q-1 15 -1 44v305h74v-332q0 -49 31.5 -82.5t79.5 -33.5q47 0 79 34.5t32 81.5v333zM391 631q0 -19 -13.5 -32.5t-32.5 -13.5t-32 13.5t-13 32.5t13 32t32 13t32.5 -13t13.5 -32zM210 631
q0 -19 -13 -32.5t-32 -13.5t-32 13.5t-13 32.5q0 18 13 31.5t32 13.5t32 -13t13 -32z" />
    <glyph glyph-name="Ugrave.001" horiz-adv-x="509" 
d="M439 515v-306q0 -29 -1 -44q-5 -76 -55.5 -124.5t-127.5 -48.5t-128 48t-56 125q-1 15 -1 44v306h74v-333q0 -47 32 -81.5t79 -34.5t79 34.5t32 81.5v27v306h73zM260 706l45 -114h-69l-63 114h87z" />
    <glyph glyph-name="Uhungarumlaut.001" horiz-adv-x="509" 
d="M366 515h73v-333q0 -81 -51.5 -135.5t-132.5 -54.5q-82 0 -133.5 54t-51.5 136v333h74v-333q0 -49 31.5 -82.5t79.5 -33.5t79.5 34t31.5 82v333zM265 706l-62 -114h-69l40 114h91zM429 706l-63 -114h-68l41 114h90z" />
    <glyph glyph-name="Umacron.001" horiz-adv-x="509" 
d="M366 515h73v-333q0 -81 -51.5 -135.5t-132.5 -54.5q-82 0 -133.5 54t-51.5 136v333h74v-333q0 -49 31.5 -82.5t79.5 -33.5t79.5 34t31.5 82v333zM426 658v-56h-344v56h344z" />
    <glyph glyph-name="Uogonek.001" horiz-adv-x="509" 
d="M366 514h73v-306q0 -163 -117 -206q-27 -25 -27 -58q0 -14 10.5 -26.5t24.5 -12.5q13 0 27 12l20 -36q-15 -20 -59 -20q-32 0 -55 20t-23 52q0 30 20 58q-78 -3 -131 47t-58 127q-1 15 -1 43v306h74v-333q0 -48 31.5 -82t79.5 -34q55 0 83 37t28 93v319z" />
    <glyph glyph-name="Uring.001" horiz-adv-x="509" 
d="M366 515h73v-306q0 -29 -1 -44q-5 -76 -55.5 -124.5t-127.5 -48.5t-128 48t-56 125q-1 15 -1 44v305h74v-332q0 -49 31.5 -82.5t79.5 -33.5q47 0 79 34.5t32 81.5v333zM216 650q0 -16 11.5 -27.5t26.5 -11.5q16 0 28 11.5t12 27.5t-12 27t-28 11q-15 0 -26.5 -11.5
t-11.5 -26.5zM334 650q0 -33 -23 -56.5t-56 -23.5t-56 23.5t-23 56.5q0 32 23.5 54.5t55.5 22.5t55.5 -22.5t23.5 -54.5z" />
    <glyph glyph-name="Utilde.001" horiz-adv-x="509" 
d="M366 515h73v-333q0 -81 -51.5 -135.5t-132.5 -54.5q-82 0 -133.5 54t-51.5 136v333h74v-333q0 -49 31.5 -82.5t79.5 -33.5t79.5 34t31.5 82v333zM151 587l-54 33q11 29 42 48t64 19q19 0 56 -13t56 -13q38 0 51 28l58 -29q-18 -31 -38 -47.5t-52 -16.5q-21 0 -60 14
t-60 14q-22 0 -35 -8.5t-28 -28.5z" />
    <glyph glyph-name="V.sc" horiz-adv-x="536" 
d="M486 515l-176 -515h-85l-175 515h87l132 -380l130 380h87z" />
    <glyph glyph-name="W.sc" horiz-adv-x="893" 
d="M843 515l-175 -515h-85l-136 384l-135 -384h-86l-176 515h87l132 -388l135 380h85l136 -380l131 388h87z" />
    <glyph glyph-name="Wacute.001" horiz-adv-x="892" 
d="M762 515h80l-175 -515h-84l-137 406l-136 -406h-84l-176 515h80l138 -402l136 397h83l138 -397zM548 708l-63 -114h-69l45 114h87z" />
    <glyph glyph-name="Wcircumflex.001" horiz-adv-x="892" 
d="M762 515h80l-176 -515h-83l-138 406l-136 -406h-83l-176 515h80l138 -402l136 396h83l138 -396zM451 661l-36 -73h-57l54 121h77l53 -121h-56z" />
    <glyph glyph-name="Wdieresis.001" horiz-adv-x="892" 
d="M762 515h80l-176 -515h-83l-138 406l-136 -406h-83l-176 515h80l138 -402l136 396h83l138 -396zM360 676q19 0 32.5 -13.5t13.5 -31.5q0 -19 -13.5 -32.5t-32.5 -13.5q-18 0 -31.5 13.5t-13.5 32.5t13 32t32 13zM540 676q19 0 32.5 -13t13.5 -32t-13.5 -32.5t-32.5 -13.5
t-32 13.5t-13 32.5q0 18 13.5 31.5t31.5 13.5z" />
    <glyph glyph-name="Wgrave.001" horiz-adv-x="892" 
d="M762 515h80l-176 -515h-83l-138 406l-136 -406h-83l-176 515h80l138 -402l136 396h83l138 -396zM434 706l45 -114h-69l-63 114h87z" />
    <glyph glyph-name="X.sc" horiz-adv-x="560" 
d="M504 0h-81l-142 215l-142 -215h-83l173 276l-152 239h81l123 -186l123 186h83l-156 -239z" />
    <glyph glyph-name="Y.sc" horiz-adv-x="527" 
d="M477 515l-175 -278v-237h-78v237l-174 278h81l133 -202l133 202h80z" />
    <glyph glyph-name="Yacute.001" horiz-adv-x="524" 
d="M396 515h78l-175 -278v-237h-74v237l-175 278h78l134 -204zM358 707l-62 -114h-69l45 114h86z" />
    <glyph glyph-name="Ycircumflex.001" horiz-adv-x="524" 
d="M396 515h78l-175 -278v-237h-74v237l-175 278h78l134 -204zM262 662l-35 -73h-57l53 121h77l54 -121h-56z" />
    <glyph glyph-name="Ydieresis.001" horiz-adv-x="524" 
d="M396 515h78l-175 -278v-237h-75v237l-174 278h77l134 -204zM397 632q0 -19 -13.5 -32t-32.5 -13q-18 0 -31.5 13t-13.5 32t13 32t32 13t32.5 -13t13.5 -32zM217 632q0 -19 -13.5 -32t-32.5 -13q-18 0 -31.5 13t-13.5 32t13 32t32 13t32.5 -13t13.5 -32z" />
    <glyph glyph-name="Ygrave.001" horiz-adv-x="524" 
d="M396 515h78l-175 -278v-237h-74v237l-175 278h78l134 -204zM189 706h87l44 -114h-69z" />
    <glyph glyph-name="Z.sc" horiz-adv-x="524" 
d="M448 450l-270 -383h270v-67h-372v66l272 382h-258v67h358v-65z" />
    <glyph glyph-name="Zacute.001" horiz-adv-x="522" 
d="M446 515v-64l-272 -386h272v-65h-370v65l274 384h-260v66h356zM358 706l-63 -114h-69l45 114h87z" />
    <glyph glyph-name="Zcaron.001" horiz-adv-x="521" 
d="M445 515v-64l-271 -386h271v-65h-369v65l274 384h-260v66h355zM272 634l39 77h53l-53 -122h-78l-53 122h53z" />
    <glyph glyph-name="Zdotaccent.001" horiz-adv-x="522" 
d="M446 515v-64l-272 -386h272v-65h-370v65l274 384h-260v66h356zM322 634q0 -20 -15 -35.5t-36 -15.5t-35.5 15t-14.5 36t14.5 36t35.5 15q20 0 35.5 -15.5t15.5 -35.5z" />
    <glyph glyph-name="cent.001" horiz-adv-x="311" 
d="M262 377l26 -44q-33 -36 -90 -45v-54h-48v54q-59 9 -93 56t-34 109t33.5 110t93.5 57v53h48v-53q60 -10 90 -45l-26 -43q-30 35 -83 35q-41 0 -68.5 -35.5t-27.5 -78.5q0 -42 27.5 -76t68.5 -34q47 0 83 34z" />
    <glyph glyph-name="check" horiz-adv-x="562" 
d="M558 639l-322 -649l-193 332h82l109 -191l239 508h85z" />
    <glyph glyph-name="circle.001" horiz-adv-x="292" 
d="M146 367q-29 0 -50 -21t-21 -50t21 -50t50 -21t50 21t21 50t-21 50t-50 21zM146 397q41 0 71 -30t30 -71t-30 -71t-71 -30t-71 30t-30 71t30 71t71 30z" />
    <glyph glyph-name="commaaccent" horiz-adv-x="269" 
d="M80 -117q0 22 18 37.5t40 15.5q28 0 42 -24t14 -54q0 -36 -23.5 -74t-56.5 -46l-18 38q39 12 44 57q-25 -5 -42.5 10t-17.5 40z" />
    <glyph glyph-name="copyright.001" horiz-adv-x="509" 
d="M254 654q83 0 142 -59t59 -141t-59 -141t-142 -59q-82 0 -141 59t-59 141t59 141t141 59zM431 454q0 73 -52 124.5t-125 51.5t-125 -51.5t-52 -124.5t52 -125t125 -52q74 0 125.5 51.5t51.5 125.5zM263 373q34 0 61 25l18 -31q-37 -34 -84 -34q-50 0 -81 35t-31 86
t31.5 85.5t82.5 34.5q47 0 82 -32l-18 -31q-7 10 -26 17t-34 7q-32 0 -54 -24.5t-22 -56.5t21.5 -56.5t53.5 -24.5z" />
    <glyph glyph-name="currency.001" horiz-adv-x="354" 
d="M92 455q0 -34 25 -59.5t59 -25.5q35 0 58.5 25t23.5 60t-23.5 60.5t-58.5 25.5q-34 0 -59 -26t-25 -60zM334 340l-42 -41l-45 44q-33 -22 -71 -22q-40 0 -71 21l-43 -43l-42 41l45 45q-20 29 -20 70q0 37 19 70l-44 43l42 42l43 -42q31 21 71 21q39 0 72 -22l44 43
l42 -42l-46 -46q17 -28 17 -67t-19 -68z" />
    <glyph glyph-name="d.001" horiz-adv-x="328" 
d="M244 595v129h61v-436h-61v16q-34 -22 -77 -22q-65 0 -104.5 52t-39.5 120q0 71 38.5 117.5t107.5 46.5q41 0 75 -23zM244 368v163q-26 29 -66 29t-63.5 -32t-23.5 -74q0 -46 22 -81.5t65 -35.5q17 0 36.5 9t29.5 22z" />
    <glyph glyph-name="dollar.001" horiz-adv-x="295" 
d="M180 289v-40h-47v35q-57 2 -98 35l24 45q50 -32 84 -32q26 0 46 14t20 39q0 23 -24.5 39t-54.5 24.5t-54.5 30.5t-24.5 57q0 36 22.5 60t59.5 31v39h47v-38q47 -2 77 -29l-19 -41q-28 24 -69 24q-27 0 -46.5 -11.5t-19.5 -36.5q0 -18 25 -31.5t55 -22t55 -32t25 -60.5
t-23 -64t-60 -35z" />
    <glyph glyph-name="doublecheck" horiz-adv-x="793" 
d="M712 612h81l-311 -615l-131 219l-108 -219l-193 331h81l109 -190l226 474h83l-159 -324l89 -150z" />
    <glyph glyph-name="eight.tx" horiz-adv-x="480" 
d="M333 344q47 -23 74 -68t27 -98q0 -83 -57 -135.5t-140 -52.5t-140.5 52.5t-57.5 135.5q0 54 27.5 98.5t75.5 67.5q-68 43 -68 126q0 67 47.5 110.5t115.5 43.5q67 0 114.5 -43.5t47.5 -110.5q0 -38 -17 -72t-49 -54zM153 468q0 -36 24.5 -59.5t60.5 -23.5q34 0 58 25
t24 59q0 37 -23.5 60t-60.5 23q-32 0 -57.5 -26t-25.5 -58zM237 57q50 0 84 34t34 84q0 46 -36 82t-82 36t-82 -36t-36 -82q0 -50 34 -84t84 -34z" />
    <glyph glyph-name="five.tx" horiz-adv-x="538" 
d="M64 -48l33 69q73 -50 142 -50q54 0 93 37.5t39 91.5q0 41 -18 67.5t-51 38.5t-62.5 15.5t-69.5 3.5q-12 0 -35 -0.5t-34 -0.5l9 290h302v-73h-234l-4 -143h62q102 0 162 -50.5t60 -150.5q0 -88 -62.5 -146.5t-150.5 -58.5q-97 0 -181 60z" />
    <glyph glyph-name="four.tx" horiz-adv-x="531" 
d="M507 130v-72h-96v-156h-85v156h-281v63l264 393h102v-384h96zM141 130h185v277z" />
    <glyph glyph-name="franc.001" horiz-adv-x="299" 
d="M108 525v-74h124v-51h-124v-55h68v-46h-68v-48h-55l1 48h-41v46h41v231h222v-51h-168z" />
    <glyph glyph-name="h.001" horiz-adv-x="303" 
d="M279 476v-187h-63v168q0 97 -63 97q-31 0 -48 -31.5t-17 -65.5v-168h-63v436h63v-145q28 38 80 38q111 0 111 -142z" />
    <glyph glyph-name="lira.001" horiz-adv-x="281" 
d="M204 473v-41h-73q-7 -68 -24 -96h135v-49h-217v49q50 0 53 96h-53v41h53v5q0 57 28 99.5t82 42.5q50 0 78 -34l-21 -39q-23 25 -55 25q-55 0 -58 -99h72z" />
    <glyph glyph-name="n.001" horiz-adv-x="298" 
d="M276 488v-200h-62v160q0 22 -2 37t-7.5 32.5t-19.5 27t-36 9.5q-32 0 -48 -35t-16 -71v-160h-63v324h63v-33q27 39 81 39q55 0 82.5 -36.5t27.5 -93.5z" />
    <glyph glyph-name="nine.tx" horiz-adv-x="549" 
d="M254 133q-81 0 -135 55t-54 137q0 86 57 141t144 55t144 -55t57 -141q0 -52 -30 -114q-18 -37 -42 -81t-41.5 -75t-46.5 -80.5t-44 -75.5h-89l135 245q-23 -11 -55 -11zM266 449q-53 0 -87 -35.5t-34 -88.5t34 -89.5t87 -36.5q52 0 86 36.5t34 89.5t-34 88.5t-86 35.5z
" />
    <glyph glyph-name="one.tx" horiz-adv-x="438" 
d="M270 74h114v-75h-317v75h118v351l-114 -48l-17 71l140 65h76v-439z" />
    <glyph glyph-name="quadrate" horiz-adv-x="277" 
d="M45 195v187h187v-187h-187z" />
    <glyph glyph-name="quadrate.001" horiz-adv-x="277" 
d="M201 357h-126v-126h126v126zM232 388v-187h-187v187h187z" />
    <glyph glyph-name="r.001" horiz-adv-x="238" 
d="M88 453v-164h-63v323h63v-32q28 39 78 39q34 0 47 -10l-43 -59q-12 2 -18 2q-34 0 -49 -30t-15 -69z" />
    <glyph glyph-name="registered.001" horiz-adv-x="465" 
d="M232 653q83 0 142 -59t59 -141t-59 -141t-142 -59q-82 0 -141 58.5t-59 141.5q0 82 59 141t141 59zM232 276q74 0 126 52t52 125t-52 125t-126 52q-73 0 -125 -52t-52 -125t52 -125t125 -52zM309 494q0 -19 -10.5 -35t-28.5 -22l55 -92h-43l-51 86h-35v-86h-37v212h89
q26 0 43.5 -18.5t17.5 -44.5zM196 464h50q11 0 18.5 9.5t7.5 20.5q0 12 -7.5 21t-18.5 9h-50v-60z" />
    <glyph glyph-name="s.001" horiz-adv-x="269" 
d="M22 314l25 47q29 -21 68 -21q69 0 69 42q0 20 -24 36t-52.5 25.5t-52.5 32t-24 54.5q0 43 33.5 66t78.5 23q58 0 99 -31l-22 -44q-30 23 -72 23q-20 0 -35.5 -9t-15.5 -28q0 -17 23.5 -32t51.5 -26.5t51.5 -35t23.5 -54.5q0 -47 -39 -73t-88 -26q-54 0 -98 31z" />
    <glyph glyph-name="seven.tx" horiz-adv-x="442" 
d="M45 440v74h350q2 -10 2 -16q0 -52 -24 -107l-212 -489h-89l236 538h-263z" />
    <glyph glyph-name="six.tx" horiz-adv-x="498" 
d="M250 378q85 0 139 -53.5t54 -138.5q0 -86 -57 -141t-143 -55q-87 0 -144.5 54.5t-57.5 141.5q0 52 29 113q23 48 51.5 99.5t67 117.5t55.5 96h88l-135 -245q22 11 53 11zM243 61q53 0 87 36t34 89t-34.5 90t-86.5 37q-53 0 -87.5 -37t-34.5 -90t34.5 -89t87.5 -36z" />
    <glyph glyph-name="sterling.001" horiz-adv-x="290" 
d="M203 473v-41h-73q-2 -63 -24 -96h135v-49h-217v49h6q9 0 13 2q14 4 23.5 37t10.5 57h-53v41h54l-1 4q0 56 27 99t80 43q16 0 30.5 -3.5t23.5 -8t15.5 -10t8.5 -8.5l3 -3l-20 -40q-25 25 -54 25q-57 0 -60 -98h72z" />
    <glyph glyph-name="t.001" horiz-adv-x="255" 
d="M165 281q-47 0 -69.5 35t-22.5 84v158h-44v53h44v86h61l1 -86h92v-53h-92v-146q0 -75 39 -75q26 0 35 14l20 -47q-29 -23 -64 -23z" />
    <glyph glyph-name="three.tx" horiz-adv-x="496" 
d="M272 272q79 0 129 -52t50 -132q0 -88 -63.5 -142t-153.5 -54q-46 0 -97 18.5t-87 48.5l31 62q69 -51 143 -51q59 0 100.5 30.5t41.5 87.5q0 26 -8.5 46t-25.5 31.5t-33.5 19t-42.5 10t-43 3.5t-43 1h-10v66l161 176h-243v73h340v-73z" />
    <glyph glyph-name="triangle.001" horiz-adv-x="252" 
d="M58 353v-126l100 63zM18 427l216 -137l-216 -137v274z" />
    <glyph glyph-name="two.tx" horiz-adv-x="538" 
d="M71 0v46q0 60 29.5 105t71 70t83 45.5t71 44t29.5 52.5q0 40 -29.5 63t-71.5 23q-36 0 -77.5 -16.5t-72.5 -39.5l-32 71q71 60 187 62q77 0 129 -44.5t52 -118.5q0 -44 -26.5 -77t-64.5 -54t-76 -41t-64.5 -48.5t-26.5 -64.5h283v-78h-394z" />
    <glyph glyph-name="yen.001" horiz-adv-x="333" 
d="M259 452v-36h-66v-14h66v-35h-66v-78h-52v78h-66v35h66v14h-66v36h57l-103 161h55l82 -124l83 124h55l-103 -161h58z" />
    <glyph glyph-name="zero.tx" horiz-adv-x="526" 
d="M263 451q-46 0 -77 -32.5t-43 -74t-12 -86.5q0 -46 11.5 -87.5t42.5 -74.5t78 -33q48 0 79.5 33t42.5 74t11 88q0 46 -11.5 87t-43 73.5t-78.5 32.5zM263 525q66 0 115.5 -42t71.5 -101t22 -124q0 -66 -21.5 -125t-70.5 -101t-117 -42t-117 42t-70.5 101t-21.5 125
q0 65 22 124t71.5 101t115.5 42z" />
    <glyph glyph-name="ampersand.001" horiz-adv-x="576" 
d="M333 108q-81 94 -124 160q-37 -14 -62 -44t-25 -66q0 -41 32.5 -70.5t75.5 -29.5q56 0 103 50zM529 -1h-96l-1 1q-36 38 -53 57q-65 -63 -148 -63q-71 0 -124 45t-53 114q0 55 35 100.5t88 68.5q-26 52 -26 82q0 54 43.5 85t100.5 31q59 0 100 -28l1 -1l-26 -51l-2 1
q-30 19 -68 19q-30 0 -51 -17t-21 -45q0 -57 154 -237q34 58 34 134v3h66v-3q0 -106 -53 -188q52 -58 96 -104z" />
    <glyph glyph-name="a.salt" horiz-adv-x="573" 
d="M549 56l-21 -65q-22 0 -38.5 5.5t-30.5 19t-21.5 24t-21.5 33.5q-25 -38 -72 -59t-95 -21q-54 0 -96.5 24t-67.5 64t-38 87.5t-13 98.5q0 66 22 123t71 96t116 39q44 0 87.5 -17t69.5 -50v56h79v-227q0 -7 -0.5 -23t-0.5 -29.5t0.5 -33t2 -35t4.5 -33t8.5 -31t12.5 -24.5
t18.5 -17t24.5 -5zM400 154v205q0 37 -45.5 62.5t-85.5 25.5q-70 0 -110 -53.5t-40 -125.5q0 -37 8.5 -70.5t26 -62t47.5 -45.5t69 -17q23 0 46 7.5t42.5 21.5t32.5 32q9 13 9 20z" />
    <glyph glyph-name="aacute.salt" horiz-adv-x="573" 
d="M549 56l-21 -65q-22 0 -38.5 5.5t-30.5 19t-21.5 24t-21.5 33.5q-25 -38 -72 -59t-95 -21q-54 0 -96.5 24t-67.5 64t-38 87.5t-13 98.5q0 66 22 123t71 96t116 39q28 0 57 -7.5t55.5 -23t44.5 -36.5v56h79v-227q0 -7 -0.5 -23t-0.5 -29.5t0.5 -33t2 -35t4.5 -33t8.5 -31
t12.5 -24.5t18.5 -17t24.5 -5zM400 154v205q0 37 -45.5 62.5t-85.5 25.5q-70 0 -110 -53.5t-40 -125.5q0 -37 8.5 -70.5t26 -62t47.5 -45.5t69 -17q23 0 46 7.5t42.5 21.5t32.5 32q9 13 9 20zM313 615h-70l50 126h89z" />
    <glyph glyph-name="abreve.salt" horiz-adv-x="573" 
d="M549 56l-21 -65q-22 0 -38.5 5.5t-30.5 19t-21.5 24t-21.5 33.5q-25 -38 -72 -59t-95 -21q-54 0 -96.5 24t-67.5 64t-38 87.5t-13 98.5q0 66 22 123t71 96t116 39q28 0 57 -7.5t55.5 -23t44.5 -36.5v56h79v-227q0 -7 -0.5 -23t-0.5 -29.5t0.5 -33t2 -35t4.5 -33t8.5 -31
t12.5 -24.5t18.5 -17t24.5 -5zM400 154v205q0 37 -45.5 62.5t-85.5 25.5q-70 0 -110 -53.5t-40 -125.5q0 -37 8.5 -70.5t26 -62t47.5 -45.5t69 -17q23 0 46 7.5t42.5 21.5t32.5 32q9 13 9 20zM283 642q21 0 34.5 15.5t13.5 37.5h55q0 -45 -29 -74.5t-74 -29.5t-74.5 29
t-29.5 75h55q0 -22 13.5 -37.5t35.5 -15.5z" />
    <glyph glyph-name="acircumflex.salt" horiz-adv-x="573" 
d="M549 56l-21 -65q-22 0 -38.5 5.5t-30.5 19t-21.5 24t-21.5 33.5q-25 -38 -72 -59t-95 -21q-54 0 -96.5 24t-67.5 64t-38 87.5t-13 98.5q0 66 22 123t71 96t116 39q28 0 57 -7.5t55.5 -23t44.5 -36.5v56h79v-227q0 -7 -0.5 -23t-0.5 -29.5t0.5 -33t2 -35t4.5 -33t8.5 -31
t12.5 -24.5t18.5 -17t24.5 -5zM400 154v205q0 37 -45.5 62.5t-85.5 25.5q-70 0 -110 -53.5t-40 -125.5q0 -37 8.5 -70.5t26 -62t47.5 -45.5t69 -17q23 0 46 7.5t42.5 21.5t32.5 32q9 13 9 20zM268 699l-41 -87h-58l59 134h80l59 -134h-57z" />
    <glyph glyph-name="adieresis.salt" horiz-adv-x="573" 
d="M549 56l-21 -65q-22 0 -38.5 5.5t-30.5 19t-21.5 24t-21.5 33.5q-25 -38 -72 -59t-95 -21q-54 0 -96.5 24t-67.5 64t-38 87.5t-13 98.5q0 66 22 123t71 96t116 39q28 0 57 -7.5t55.5 -23t44.5 -36.5v56h79v-227q0 -7 -0.5 -23t-0.5 -29.5t0.5 -33t2 -35t4.5 -33t8.5 -31
t12.5 -24.5t18.5 -17t24.5 -5zM400 154v205q0 37 -45.5 62.5t-85.5 25.5q-70 0 -110 -53.5t-40 -125.5q0 -37 8.5 -70.5t26 -62t47.5 -45.5t69 -17q23 0 46 7.5t42.5 21.5t32.5 32q9 13 9 20zM172 757q13 0 24.5 -6.5t17.5 -17.5t6 -24q0 -20 -14 -34t-34 -14q-19 0 -33 14
t-14 34t14 34t33 14zM376.5 757q19.5 0 33.5 -14t14 -33.5t-14 -34t-34 -14.5q-13 0 -24 6.5t-17.5 17.5t-6.5 24q0 20 14.5 34t34 14z" />
    <glyph glyph-name="agrave.salt" horiz-adv-x="573" 
d="M549 56l-21 -65q-22 0 -38.5 5.5t-30.5 19t-21.5 24t-21.5 33.5q-25 -38 -72 -59t-95 -21q-54 0 -96.5 24t-67.5 64t-38 87.5t-13 98.5q0 66 22 123t71 96t116 39q28 0 57 -7.5t55.5 -23t44.5 -36.5v56h79v-227q0 -7 -0.5 -23t-0.5 -29.5t0.5 -33t2 -35t4.5 -33t8.5 -31
t12.5 -24.5t18.5 -17t24.5 -5zM400 154v205q0 37 -45.5 62.5t-85.5 25.5q-70 0 -110 -53.5t-40 -125.5q0 -37 8.5 -70.5t26 -62t47.5 -45.5t69 -17q23 0 46 7.5t42.5 21.5t32.5 32q9 13 9 20zM247 741l49 -126h-70l-68 126h89z" />
    <glyph glyph-name="amacron.salt" horiz-adv-x="573" 
d="M549 56l-21 -65q-22 0 -38.5 5.5t-30.5 19t-21.5 24t-21.5 33.5q-25 -38 -72 -59t-95 -21q-54 0 -96.5 24t-67.5 64t-38 87.5t-13 98.5q0 66 22 123t71 96t116 39q28 0 57 -7.5t55.5 -23t44.5 -36.5v56h79v-227q0 -7 -0.5 -23t-0.5 -29.5t0.5 -33t2 -35t4.5 -33t8.5 -31
t12.5 -24.5t18.5 -17t24.5 -5zM400 154v205q0 37 -45.5 62.5t-85.5 25.5q-70 0 -110 -53.5t-40 -125.5q0 -37 8.5 -70.5t26 -62t47.5 -45.5t69 -17q23 0 46 7.5t42.5 21.5t32.5 32q9 13 9 20zM485 707v-57h-383v57h383z" />
    <glyph glyph-name="aogonek.salt" horiz-adv-x="566" 
d="M549 56l-21 -65h1q-10 -3 -18 -18.5t-8 -33.5q0 -20 11 -32t32 -12q13 0 30 11l20 -36q-21 -21 -62 -21q-35 0 -61 23t-26 57q0 39 27 75q-11 7 -22 19t-17.5 21.5t-18.5 28.5q-25 -38 -72 -59t-95 -21q-54 0 -96.5 24t-67.5 64t-38 87.5t-13 98.5q0 66 22 123t71 96
t116 39q28 0 57 -7.5t55.5 -23t44.5 -36.5v56h79v-227q0 -7 -0.5 -23t-0.5 -29.5t0.5 -33t2 -35t4.5 -33t8.5 -31t12.5 -24.5t18.5 -17t24.5 -5zM400 154v205q0 37 -45.5 62.5t-85.5 25.5q-70 0 -110 -53.5t-40 -125.5q0 -37 8.5 -70.5t26 -62t47.5 -45.5t69 -17
q23 0 46 7.5t42.5 21.5t32.5 32q9 13 9 20z" />
    <glyph glyph-name="aring.salt" horiz-adv-x="573" 
d="M549 56l-21 -65q-22 0 -38.5 5.5t-30.5 19t-21.5 24t-21.5 33.5q-25 -38 -72 -59t-95 -21q-54 0 -96.5 24t-67.5 64t-38 87.5t-13 98.5q0 66 22 123t71 96t116 39q28 0 57 -7.5t55.5 -23t44.5 -36.5v56h79v-227q0 -7 -0.5 -23t-0.5 -29.5t0.5 -33t2 -35t4.5 -33t8.5 -31
t12.5 -24.5t18.5 -17t24.5 -5zM400 154v205q0 37 -45.5 62.5t-85.5 25.5q-70 0 -110 -53.5t-40 -125.5q0 -37 8.5 -70.5t26 -62t47.5 -45.5t69 -17q23 0 46 7.5t42.5 21.5t32.5 32q9 13 9 20zM283 768q36 0 61.5 -25t25.5 -61t-25.5 -62t-61.5 -26q-37 0 -62.5 25.5
t-25.5 62.5q0 36 26 61t62 25zM282 726q-18 0 -31.5 -13t-13.5 -31t13.5 -32t31.5 -14t32 14t14 32t-14 31t-32 13z" />
    <glyph glyph-name="atilde.salt" horiz-adv-x="573" 
d="M549 56l-21 -65q-22 0 -38.5 5.5t-30.5 19t-21.5 24t-21.5 33.5q-25 -38 -72 -59t-95 -21q-54 0 -96.5 24t-67.5 64t-38 87.5t-13 98.5q0 66 22 123t71 96t116 39q28 0 57 -7.5t55.5 -23t44.5 -36.5v56h79v-227q0 -7 -0.5 -23t-0.5 -29.5t0.5 -33t2 -35t4.5 -33t8.5 -31
t12.5 -24.5t18.5 -17t24.5 -5zM400 154v205q0 37 -45.5 62.5t-85.5 25.5q-70 0 -110 -53.5t-40 -125.5q0 -37 8.5 -70.5t26 -62t47.5 -45.5t69 -17q23 0 46 7.5t42.5 21.5t32.5 32q9 13 9 20zM145 641l-55 34q15 32 47.5 51.5t68.5 19.5q22 0 63.5 -14.5t64.5 -14.5
q41 0 57 32l60 -29q-14 -31 -40 -50t-59 -19q-24 0 -67.5 15.5t-66.5 15.5q-50 0 -73 -41z" />
    </font>
</defs>
</svg>
