<?xml version="1.0" standalone="no"?>
<!DOCTYPE svg PUBLIC "-//W3C//DTD SVG 20010904//EN"
 "http://www.w3.org/TR/2001/REC-SVG-20010904/DTD/svg10.dtd">
<svg version="1.0" xmlns="http://www.w3.org/2000/svg"
 width="96.000000pt" height="96.000000pt" viewBox="0 0 96.000000 96.000000"
 preserveAspectRatio="xMidYMid meet">
<metadata>
Created by potrace 1.11, written by Peter Selinger 2001-2013
</metadata>
<g transform="translate(0.000000,96.000000) scale(0.100000,-0.100000)"
fill="#000000" stroke="none">
<path d="M369 865 c-108 -39 -181 -104 -227 -205 -21 -44 -26 -73 -28 -142 -1
-49 2 -88 7 -88 5 0 9 -9 9 -19 0 -31 42 -101 89 -148 148 -148 381 -144 527
9 71 75 97 143 96 255 0 77 -15 123 -60 192 -38 58 -91 101 -162 134 -55 26
-196 32 -251 12z"/>
</g>
</svg>
